<svg xmlns="http://www.w3.org/2000/svg" viewBox="0 0 64 64" width="64" height="64" shape-rendering="crispEdges"><rect x="4" y="8" width="4" height="4" fill="#FFD54F"/><rect x="12" y="8" width="4" height="4" fill="#FFD54F"/><rect x="20" y="8" width="4" height="4" fill="#FFD54F"/><rect x="28" y="8" width="4" height="4" fill="#FFD54F"/><rect x="36" y="8" width="4" height="4" fill="#FFD54F"/><rect x="44" y="8" width="4" height="4" fill="#FFD54F"/><rect x="4" y="12" width="52" height="4" fill="#FFD54F"/><rect x="4" y="16" width="4" height="4" fill="#FFD54F"/><rect x="12" y="16" width="36" height="4" fill="#FFD54F"/><rect x="52" y="16" width="4" height="4" fill="#FFD54F"/><rect x="4" y="20" width="52" height="4" fill="#FFD54F"/><rect x="4" y="24" width="52" height="4" fill="#FFD54F"/><rect x="4" y="28" width="52" height="4" fill="#FFD54F"/><rect x="8" y="32" width="44" height="4" fill="#FFD54F"/><rect x="8" y="36" width="44" height="4" fill="#FFD54F"/><rect x="12" y="40" width="36" height="4" fill="#FFD54F"/><rect x="12" y="44" width="36" height="4" fill="#FFD54F"/><rect x="16" y="48" width="28" height="4" fill="#FFD54F"/><rect x="16" y="52" width="28" height="4" fill="#FFD54F"/><rect x="20" y="56" width="20" height="4" fill="#FFD54F"/></svg>