<svg xmlns="http://www.w3.org/2000/svg" viewBox="0 0 64 64" width="64" height="64" shape-rendering="crispEdges"><rect x="8" y="0" width="8" height="4" fill="#5D4037"/><rect x="8" y="4" width="8" height="4" fill="#5D4037"/><rect x="16" y="4" width="16" height="4" fill="#E53935"/><rect x="8" y="8" width="8" height="4" fill="#5D4037"/><rect x="16" y="8" width="16" height="4" fill="#E53935"/><rect x="8" y="12" width="8" height="4" fill="#5D4037"/><rect x="16" y="12" width="16" height="4" fill="#E53935"/><rect x="8" y="16" width="8" height="4" fill="#5D4037"/><rect x="8" y="20" width="8" height="4" fill="#5D4037"/><rect x="8" y="24" width="8" height="4" fill="#5D4037"/><rect x="8" y="28" width="8" height="4" fill="#5D4037"/><rect x="8" y="32" width="8" height="4" fill="#5D4037"/><rect x="8" y="36" width="8" height="4" fill="#5D4037"/><rect x="8" y="40" width="8" height="4" fill="#5D4037"/><rect x="8" y="44" width="8" height="4" fill="#5D4037"/><rect x="8" y="48" width="8" height="4" fill="#5D4037"/><rect x="8" y="52" width="8" height="4" fill="#5D4037"/><rect x="8" y="56" width="8" height="4" fill="#5D4037"/></svg>