<svg xmlns="http://www.w3.org/2000/svg" viewBox="0 0 64 64" width="64" height="64" shape-rendering="crispEdges"><rect x="0" y="0" width="60" height="4" fill="#1565C0"/><rect x="0" y="4" width="8" height="4" fill="#1565C0"/><rect x="8" y="4" width="4" height="4" fill="#42A5F5"/><rect x="12" y="4" width="12" height="4" fill="#1565C0"/><rect x="24" y="4" width="4" height="4" fill="#42A5F5"/><rect x="28" y="4" width="12" height="4" fill="#1565C0"/><rect x="40" y="4" width="4" height="4" fill="#42A5F5"/><rect x="44" y="4" width="12" height="4" fill="#1565C0"/><rect x="56" y="4" width="4" height="4" fill="#42A5F5"/><rect x="0" y="8" width="60" height="4" fill="#1565C0"/><rect x="0" y="12" width="4" height="4" fill="#1565C0"/><rect x="4" y="12" width="4" height="4" fill="#42A5F5"/><rect x="8" y="12" width="12" height="4" fill="#1565C0"/><rect x="20" y="12" width="4" height="4" fill="#42A5F5"/><rect x="24" y="12" width="12" height="4" fill="#1565C0"/><rect x="36" y="12" width="4" height="4" fill="#42A5F5"/><rect x="40" y="12" width="12" height="4" fill="#1565C0"/><rect x="52" y="12" width="4" height="4" fill="#42A5F5"/><rect x="56" y="12" width="4" height="4" fill="#1565C0"/><rect x="0" y="16" width="60" height="4" fill="#1565C0"/><rect x="0" y="20" width="8" height="4" fill="#1565C0"/><rect x="8" y="20" width="4" height="4" fill="#42A5F5"/><rect x="12" y="20" width="12" height="4" fill="#1565C0"/><rect x="24" y="20" width="4" height="4" fill="#42A5F5"/><rect x="28" y="20" width="12" height="4" fill="#1565C0"/><rect x="40" y="20" width="4" height="4" fill="#42A5F5"/><rect x="44" y="20" width="12" height="4" fill="#1565C0"/><rect x="56" y="20" width="4" height="4" fill="#42A5F5"/><rect x="0" y="24" width="60" height="4" fill="#1565C0"/><rect x="0" y="28" width="4" height="4" fill="#1565C0"/><rect x="4" y="28" width="4" height="4" fill="#42A5F5"/><rect x="8" y="28" width="12" height="4" fill="#1565C0"/><rect x="20" y="28" width="4" height="4" fill="#42A5F5"/><rect x="24" y="28" width="12" height="4" fill="#1565C0"/><rect x="36" y="28" width="4" height="4" fill="#42A5F5"/><rect x="40" y="28" width="12" height="4" fill="#1565C0"/><rect x="52" y="28" width="4" height="4" fill="#42A5F5"/><rect x="56" y="28" width="4" height="4" fill="#1565C0"/><rect x="0" y="32" width="60" height="4" fill="#1565C0"/><rect x="0" y="36" width="8" height="4" fill="#1565C0"/><rect x="8" y="36" width="4" height="4" fill="#42A5F5"/><rect x="12" y="36" width="12" height="4" fill="#1565C0"/><rect x="24" y="36" width="4" height="4" fill="#42A5F5"/><rect x="28" y="36" width="12" height="4" fill="#1565C0"/><rect x="40" y="36" width="4" height="4" fill="#42A5F5"/><rect x="44" y="36" width="12" height="4" fill="#1565C0"/><rect x="56" y="36" width="4" height="4" fill="#42A5F5"/><rect x="0" y="40" width="60" height="4" fill="#1565C0"/><rect x="0" y="44" width="4" height="4" fill="#1565C0"/><rect x="4" y="44" width="4" height="4" fill="#42A5F5"/><rect x="8" y="44" width="12" height="4" fill="#1565C0"/><rect x="20" y="44" width="4" height="4" fill="#42A5F5"/><rect x="24" y="44" width="12" height="4" fill="#1565C0"/><rect x="36" y="44" width="4" height="4" fill="#42A5F5"/><rect x="40" y="44" width="12" height="4" fill="#1565C0"/><rect x="52" y="44" width="4" height="4" fill="#42A5F5"/><rect x="56" y="44" width="4" height="4" fill="#1565C0"/><rect x="0" y="48" width="60" height="4" fill="#1565C0"/><rect x="0" y="52" width="8" height="4" fill="#1565C0"/><rect x="8" y="52" width="4" height="4" fill="#42A5F5"/><rect x="12" y="52" width="12" height="4" fill="#1565C0"/><rect x="24" y="52" width="4" height="4" fill="#42A5F5"/><rect x="28" y="52" width="12" height="4" fill="#1565C0"/><rect x="40" y="52" width="4" height="4" fill="#42A5F5"/><rect x="44" y="52" width="12" height="4" fill="#1565C0"/><rect x="56" y="52" width="4" height="4" fill="#42A5F5"/><rect x="0" y="56" width="60" height="4" fill="#1565C0"/><rect x="0" y="60" width="4" height="4" fill="#1565C0"/><rect x="4" y="60" width="4" height="4" fill="#42A5F5"/><rect x="8" y="60" width="12" height="4" fill="#1565C0"/><rect x="20" y="60" width="4" height="4" fill="#42A5F5"/><rect x="24" y="60" width="12" height="4" fill="#1565C0"/><rect x="36" y="60" width="4" height="4" fill="#42A5F5"/><rect x="40" y="60" width="12" height="4" fill="#1565C0"/><rect x="52" y="60" width="4" height="4" fill="#42A5F5"/><rect x="56" y="60" width="4" height="4" fill="#1565C0"/></svg>