<svg xmlns="http://www.w3.org/2000/svg" viewBox="0 0 64 64" width="64" height="64" shape-rendering="crispEdges"><rect x="8" y="0" width="48" height="4" fill="#6A1B9A"/><rect x="8" y="4" width="48" height="4" fill="#6A1B9A"/><rect x="8" y="8" width="8" height="4" fill="#6A1B9A"/><rect x="16" y="8" width="4" height="4" fill="#FFD54F"/><rect x="20" y="8" width="8" height="4" fill="#6A1B9A"/><rect x="28" y="8" width="4" height="4" fill="#FFD54F"/><rect x="32" y="8" width="8" height="4" fill="#6A1B9A"/><rect x="40" y="8" width="4" height="4" fill="#FFD54F"/><rect x="44" y="8" width="8" height="4" fill="#6A1B9A"/><rect x="8" y="12" width="48" height="4" fill="#6A1B9A"/><rect x="8" y="16" width="48" height="4" fill="#6A1B9A"/><rect x="12" y="20" width="40" height="4" fill="#6A1B9A"/><rect x="12" y="24" width="40" height="4" fill="#6A1B9A"/><rect x="12" y="28" width="40" height="4" fill="#6A1B9A"/><rect x="12" y="32" width="40" height="4" fill="#6A1B9A"/><rect x="12" y="36" width="40" height="4" fill="#6A1B9A"/><rect x="12" y="40" width="40" height="4" fill="#6A1B9A"/><rect x="12" y="44" width="40" height="4" fill="#6A1B9A"/><rect x="12" y="48" width="40" height="4" fill="#6A1B9A"/><rect x="16" y="52" width="32" height="4" fill="#6A1B9A"/></svg>