<svg xmlns="http://www.w3.org/2000/svg" viewBox="0 0 480 640" width="480" height="640" shape-rendering="crispEdges">
<style>
@keyframes floatX{0%{transform:translateX(0)}100%{transform:translateX(480px)}}
@keyframes floatXneg{0%{transform:translateX(480px)}100%{transform:translateX(-80px)}}
@keyframes floatYup{0%{transform:translateY(0);opacity:.8}100%{transform:translateY(-640px);opacity:0}}
@keyframes floatYdown{0%{transform:translateY(-40px)}100%{transform:translateY(680px)}}
@keyframes fadeInOut{0%,100%{opacity:.15}50%{opacity:.7}}
@keyframes pulse{0%,100%{opacity:.6;transform:scale(1)}50%{opacity:1;transform:scale(1.15)}}
@keyframes sway{0%,100%{transform:rotate(-3deg)}50%{transform:rotate(3deg)}}
@keyframes bob{0%,100%{transform:translateY(0)}50%{transform:translateY(-6px)}}
@keyframes flash{0%,90%,100%{opacity:0}92%,96%{opacity:.8}}
@keyframes wave{0%{d:path('M0,0 Q60,-8 120,0 Q180,8 240,0 Q300,-8 360,0 Q420,8 480,0 L480,20 L0,20 Z')}50%{d:path('M0,0 Q60,8 120,0 Q180,-8 240,0 Q300,8 360,0 Q420,-8 480,0 L480,20 L0,20 Z')}100%{d:path('M0,0 Q60,-8 120,0 Q180,8 240,0 Q300,-8 360,0 Q420,8 480,0 L480,20 L0,20 Z')}}
</style>
<rect x="0" y="0" width="480" height="8" fill="#4a9fe5"/><rect x="0" y="8" width="480" height="8" fill="#4ca0e3"/><rect x="0" y="16" width="480" height="8" fill="#4ea2e0"/><rect x="0" y="24" width="480" height="8" fill="#50a3de"/><rect x="0" y="32" width="480" height="8" fill="#51a5dc"/><rect x="0" y="40" width="480" height="8" fill="#53a6d9"/><rect x="0" y="48" width="480" height="8" fill="#55a8d7"/><rect x="0" y="56" width="480" height="8" fill="#57a9d5"/><rect x="0" y="64" width="480" height="8" fill="#59abd2"/><rect x="0" y="72" width="480" height="8" fill="#5bacd0"/><rect x="0" y="80" width="480" height="8" fill="#5daece"/><rect x="0" y="88" width="480" height="8" fill="#5eafcb"/><rect x="0" y="96" width="480" height="8" fill="#60b1c9"/><rect x="0" y="104" width="480" height="8" fill="#62b2c7"/><rect x="0" y="112" width="480" height="8" fill="#64b4c5"/><rect x="0" y="120" width="480" height="8" fill="#66b5c2"/><rect x="0" y="128" width="480" height="8" fill="#68b6c0"/><rect x="0" y="136" width="480" height="8" fill="#6ab8be"/><rect x="0" y="144" width="480" height="8" fill="#6bb9bb"/><rect x="0" y="152" width="480" height="8" fill="#6dbbb9"/><rect x="0" y="160" width="480" height="8" fill="#6fbcb7"/><rect x="0" y="168" width="480" height="8" fill="#71beb4"/><rect x="0" y="176" width="480" height="8" fill="#73bfb2"/><rect x="0" y="184" width="480" height="8" fill="#75c1b0"/><rect x="0" y="192" width="480" height="8" fill="#77c2ad"/><rect x="0" y="200" width="480" height="8" fill="#78c4ab"/><rect x="0" y="208" width="480" height="8" fill="#7ac5a9"/><rect x="0" y="216" width="480" height="8" fill="#7cc7a6"/><rect x="0" y="224" width="480" height="8" fill="#7ec8a4"/><rect x="0" y="232" width="480" height="8" fill="#7bc69f"/><rect x="0" y="240" width="480" height="8" fill="#79c59a"/><rect x="0" y="248" width="480" height="8" fill="#76c396"/><rect x="0" y="256" width="480" height="8" fill="#73c191"/><rect x="0" y="264" width="480" height="8" fill="#70bf8c"/><rect x="0" y="272" width="480" height="8" fill="#6ebe87"/><rect x="0" y="280" width="480" height="8" fill="#6bbc82"/><rect x="0" y="288" width="480" height="8" fill="#68ba7d"/><rect x="0" y="296" width="480" height="8" fill="#65b878"/><rect x="0" y="304" width="480" height="8" fill="#63b774"/><rect x="0" y="312" width="480" height="8" fill="#60b56f"/><rect x="0" y="320" width="480" height="8" fill="#5db36a"/><rect x="0" y="328" width="56" height="8" fill="#5bb066"/><rect x="56" y="328" width="32" height="8" fill="#3AA03A"/><rect x="88" y="328" width="144" height="8" fill="#5bb066"/><rect x="232" y="328" width="32" height="8" fill="#3AA03A"/><rect x="264" y="328" width="128" height="8" fill="#5bb066"/><rect x="392" y="328" width="32" height="8" fill="#3AA03A"/><rect x="424" y="328" width="56" height="8" fill="#5bb066"/><rect x="0" y="336" width="48" height="8" fill="#5aad63"/><rect x="48" y="336" width="48" height="8" fill="#3AA03A"/><rect x="96" y="336" width="128" height="8" fill="#5aad63"/><rect x="224" y="336" width="48" height="8" fill="#3AA03A"/><rect x="272" y="336" width="112" height="8" fill="#5aad63"/><rect x="384" y="336" width="48" height="8" fill="#3AA03A"/><rect x="432" y="336" width="48" height="8" fill="#5aad63"/><rect x="0" y="344" width="48" height="8" fill="#58a95f"/><rect x="48" y="344" width="48" height="8" fill="#3AA03A"/><rect x="96" y="344" width="128" height="8" fill="#58a95f"/><rect x="224" y="344" width="48" height="8" fill="#3AA03A"/><rect x="272" y="344" width="112" height="8" fill="#58a95f"/><rect x="384" y="344" width="48" height="8" fill="#3AA03A"/><rect x="432" y="344" width="48" height="8" fill="#58a95f"/><rect x="0" y="352" width="40" height="8" fill="#57a65c"/><rect x="40" y="352" width="64" height="8" fill="#2D8B2D"/><rect x="104" y="352" width="112" height="8" fill="#57a65c"/><rect x="216" y="352" width="64" height="8" fill="#2D8B2D"/><rect x="280" y="352" width="96" height="8" fill="#57a65c"/><rect x="376" y="352" width="64" height="8" fill="#2D8B2D"/><rect x="440" y="352" width="40" height="8" fill="#57a65c"/><rect x="0" y="360" width="40" height="8" fill="#55a358"/><rect x="40" y="360" width="64" height="8" fill="#2D8B2D"/><rect x="104" y="360" width="112" height="8" fill="#55a358"/><rect x="216" y="360" width="64" height="8" fill="#2D8B2D"/><rect x="280" y="360" width="96" height="8" fill="#55a358"/><rect x="376" y="360" width="64" height="8" fill="#2D8B2D"/><rect x="440" y="360" width="40" height="8" fill="#55a358"/><rect x="0" y="368" width="48" height="8" fill="#54a055"/><rect x="48" y="368" width="48" height="8" fill="#2D8B2D"/><rect x="96" y="368" width="128" height="8" fill="#54a055"/><rect x="224" y="368" width="48" height="8" fill="#2D8B2D"/><rect x="272" y="368" width="112" height="8" fill="#54a055"/><rect x="384" y="368" width="48" height="8" fill="#2D8B2D"/><rect x="432" y="368" width="48" height="8" fill="#54a055"/><rect x="0" y="376" width="48" height="8" fill="#529c51"/><rect x="48" y="376" width="48" height="8" fill="#2D8B2D"/><rect x="96" y="376" width="128" height="8" fill="#529c51"/><rect x="224" y="376" width="48" height="8" fill="#2D8B2D"/><rect x="272" y="376" width="112" height="8" fill="#529c51"/><rect x="384" y="376" width="48" height="8" fill="#2D8B2D"/><rect x="432" y="376" width="48" height="8" fill="#529c51"/><rect x="0" y="384" width="64" height="8" fill="#50994d"/><rect x="64" y="384" width="16" height="8" fill="#6D4C2A"/><rect x="80" y="384" width="160" height="8" fill="#50994d"/><rect x="240" y="384" width="16" height="8" fill="#6D4C2A"/><rect x="256" y="384" width="144" height="8" fill="#50994d"/><rect x="400" y="384" width="16" height="8" fill="#6D4C2A"/><rect x="416" y="384" width="64" height="8" fill="#50994d"/><rect x="0" y="392" width="64" height="8" fill="#4f964a"/><rect x="64" y="392" width="16" height="8" fill="#6D4C2A"/><rect x="80" y="392" width="160" height="8" fill="#4f964a"/><rect x="240" y="392" width="16" height="8" fill="#6D4C2A"/><rect x="256" y="392" width="144" height="8" fill="#4f964a"/><rect x="400" y="392" width="16" height="8" fill="#6D4C2A"/><rect x="416" y="392" width="64" height="8" fill="#4f964a"/><rect x="0" y="400" width="64" height="8" fill="#4d9346"/><rect x="64" y="400" width="16" height="8" fill="#6D4C2A"/><rect x="80" y="400" width="160" height="8" fill="#4d9346"/><rect x="240" y="400" width="16" height="8" fill="#6D4C2A"/><rect x="256" y="400" width="144" height="8" fill="#4d9346"/><rect x="400" y="400" width="16" height="8" fill="#6D4C2A"/><rect x="416" y="400" width="64" height="8" fill="#4d9346"/><rect x="0" y="408" width="64" height="8" fill="#4c8f43"/><rect x="64" y="408" width="16" height="8" fill="#6D4C2A"/><rect x="80" y="408" width="160" height="8" fill="#4c8f43"/><rect x="240" y="408" width="16" height="8" fill="#6D4C2A"/><rect x="256" y="408" width="24" height="8" fill="#4c8f43"/><rect x="280" y="408" width="16" height="8" fill="#fff"/><rect x="296" y="408" width="104" height="8" fill="#4c8f43"/><rect x="400" y="408" width="16" height="8" fill="#6D4C2A"/><rect x="416" y="408" width="64" height="8" fill="#4c8f43"/><rect x="0" y="416" width="16" height="8" fill="#3D7A2A"/><rect x="16" y="416" width="8" height="8" fill="#3A7A2A"/><rect x="24" y="416" width="72" height="8" fill="#3D7A2A"/><rect x="96" y="416" width="16" height="8" fill="#fff"/><rect x="112" y="416" width="8" height="8" fill="#3A7A2A"/><rect x="120" y="416" width="88" height="8" fill="#3D7A2A"/><rect x="208" y="416" width="8" height="8" fill="#3A7A2A"/><rect x="216" y="416" width="56" height="8" fill="#3D7A2A"/><rect x="272" y="416" width="32" height="8" fill="#E53935"/><rect x="304" y="416" width="8" height="8" fill="#3A7A2A"/><rect x="312" y="416" width="88" height="8" fill="#3D7A2A"/><rect x="400" y="416" width="8" height="8" fill="#3A7A2A"/><rect x="408" y="416" width="32" height="8" fill="#3D7A2A"/><rect x="440" y="416" width="16" height="8" fill="#fff"/><rect x="456" y="416" width="24" height="8" fill="#3D7A2A"/><rect x="0" y="424" width="16" height="8" fill="#498b3e"/><rect x="16" y="424" width="8" height="8" fill="#FF6B9D"/><rect x="24" y="424" width="24" height="8" fill="#498b3e"/><rect x="48" y="424" width="8" height="8" fill="#3A7A2A"/><rect x="56" y="424" width="32" height="8" fill="#498b3e"/><rect x="88" y="424" width="32" height="8" fill="#FDD835"/><rect x="120" y="424" width="24" height="8" fill="#498b3e"/><rect x="144" y="424" width="8" height="8" fill="#3A7A2A"/><rect x="152" y="424" width="56" height="8" fill="#498b3e"/><rect x="208" y="424" width="8" height="8" fill="#FFD700"/><rect x="216" y="424" width="24" height="8" fill="#498b3e"/><rect x="240" y="424" width="8" height="8" fill="#3A7A2A"/><rect x="248" y="424" width="24" height="8" fill="#498b3e"/><rect x="272" y="424" width="32" height="8" fill="#E53935"/><rect x="304" y="424" width="8" height="8" fill="#FFAA00"/><rect x="312" y="424" width="24" height="8" fill="#498b3e"/><rect x="336" y="424" width="8" height="8" fill="#3A7A2A"/><rect x="344" y="424" width="56" height="8" fill="#498b3e"/><rect x="400" y="424" width="8" height="8" fill="#FF4444"/><rect x="408" y="424" width="24" height="8" fill="#498b3e"/><rect x="432" y="424" width="32" height="8" fill="#FDD835"/><rect x="464" y="424" width="16" height="8" fill="#498b3e"/><rect x="0" y="432" width="48" height="8" fill="#488a3d"/><rect x="48" y="432" width="8" height="8" fill="#FFD700"/><rect x="56" y="432" width="24" height="8" fill="#488a3d"/><rect x="80" y="432" width="8" height="8" fill="#3A7A2A"/><rect x="88" y="432" width="32" height="8" fill="#FDD835"/><rect x="120" y="432" width="24" height="8" fill="#488a3d"/><rect x="144" y="432" width="8" height="8" fill="#FFAA00"/><rect x="152" y="432" width="24" height="8" fill="#488a3d"/><rect x="176" y="432" width="8" height="8" fill="#3A7A2A"/><rect x="184" y="432" width="56" height="8" fill="#488a3d"/><rect x="240" y="432" width="8" height="8" fill="#FF4444"/><rect x="248" y="432" width="24" height="8" fill="#488a3d"/><rect x="272" y="432" width="8" height="8" fill="#3A7A2A"/><rect x="280" y="432" width="16" height="8" fill="#F5E6D3"/><rect x="296" y="432" width="40" height="8" fill="#488a3d"/><rect x="336" y="432" width="8" height="8" fill="#FF6B9D"/><rect x="344" y="432" width="24" height="8" fill="#488a3d"/><rect x="368" y="432" width="8" height="8" fill="#3A7A2A"/><rect x="376" y="432" width="56" height="8" fill="#488a3d"/><rect x="432" y="432" width="32" height="8" fill="#FDD835"/><rect x="464" y="432" width="8" height="8" fill="#3A7A2A"/><rect x="472" y="432" width="8" height="8" fill="#488a3d"/><rect x="0" y="440" width="80" height="8" fill="#47883d"/><rect x="80" y="440" width="8" height="8" fill="#FF4444"/><rect x="88" y="440" width="8" height="8" fill="#47883d"/><rect x="96" y="440" width="16" height="8" fill="#F5E6D3"/><rect x="112" y="440" width="64" height="8" fill="#47883d"/><rect x="176" y="440" width="8" height="8" fill="#FF6B9D"/><rect x="184" y="440" width="88" height="8" fill="#47883d"/><rect x="272" y="440" width="8" height="8" fill="#FF69B4"/><rect x="280" y="440" width="16" height="8" fill="#F5E6D3"/><rect x="296" y="440" width="72" height="8" fill="#47883d"/><rect x="368" y="440" width="8" height="8" fill="#FFD700"/><rect x="376" y="440" width="64" height="8" fill="#47883d"/><rect x="440" y="440" width="16" height="8" fill="#F5E6D3"/><rect x="456" y="440" width="8" height="8" fill="#47883d"/><rect x="464" y="440" width="8" height="8" fill="#FFAA00"/><rect x="472" y="440" width="8" height="8" fill="#47883d"/><rect x="0" y="448" width="96" height="8" fill="#46873c"/><rect x="96" y="448" width="16" height="8" fill="#F5E6D3"/><rect x="112" y="448" width="328" height="8" fill="#46873c"/><rect x="440" y="448" width="16" height="8" fill="#F5E6D3"/><rect x="456" y="448" width="24" height="8" fill="#46873c"/><rect x="0" y="456" width="480" height="8" fill="#45863b"/><rect x="0" y="464" width="480" height="8" fill="#44853a"/><rect x="0" y="472" width="480" height="8" fill="#438439"/><rect x="0" y="480" width="480" height="8" fill="#428338"/><rect x="0" y="488" width="480" height="8" fill="#418138"/><rect x="0" y="496" width="480" height="8" fill="#408037"/><rect x="0" y="504" width="480" height="8" fill="#3f7f36"/><rect x="0" y="512" width="480" height="8" fill="#3e7e35"/><rect x="0" y="520" width="480" height="8" fill="#3d7d34"/><rect x="0" y="528" width="480" height="8" fill="#3c7c34"/><rect x="0" y="536" width="480" height="8" fill="#3b7a33"/><rect x="0" y="544" width="480" height="8" fill="#3a7932"/><rect x="0" y="552" width="480" height="8" fill="#397831"/><rect x="0" y="560" width="480" height="8" fill="#387730"/><rect x="0" y="568" width="480" height="8" fill="#37762f"/><rect x="0" y="576" width="480" height="8" fill="#36742f"/><rect x="0" y="584" width="480" height="8" fill="#35732e"/><rect x="0" y="592" width="480" height="8" fill="#34722d"/><rect x="0" y="600" width="480" height="8" fill="#33712c"/><rect x="0" y="608" width="480" height="8" fill="#32702b"/><rect x="0" y="616" width="480" height="8" fill="#316f2a"/><rect x="0" y="624" width="480" height="8" fill="#306d2a"/><rect x="0" y="632" width="480" height="8" fill="#2f6c29"/>
<g style="animation:floatXneg 20s linear infinite;opacity:0.7" transform="translate(20,30)">
<rect x="0" y="12" width="40" height="12" fill="#fff" rx="2"/>
<rect x="6" y="4" width="20" height="12" fill="#fff" rx="2"/>
<rect x="16" y="0" width="14" height="10" fill="#fff" rx="2"/>
</g><g style="animation:floatXneg 28s linear infinite;opacity:0.5" transform="translate(200,15)">
<rect x="0" y="15" width="50" height="15" fill="#fff" rx="2"/>
<rect x="7.5" y="5" width="25" height="15" fill="#fff" rx="2"/>
<rect x="20" y="0" width="17.5" height="12.5" fill="#fff" rx="2"/>
</g><g style="animation:floatXneg 24s linear infinite;opacity:0.6" transform="translate(400,40)">
<rect x="0" y="10.5" width="35" height="10.5" fill="#fff" rx="2"/>
<rect x="5.25" y="3.5" width="17.5" height="10.5" fill="#fff" rx="2"/>
<rect x="14" y="0" width="12.25" height="8.75" fill="#fff" rx="2"/>
</g><g style="animation:floatX 18s linear 0s infinite" transform="translate(-40,60)">
<rect x="0" y="0" width="4" height="2" fill="#333"/>
<rect x="4" y="-2" width="3" height="2" fill="#333"/>
<rect x="6" y="-3" width="2" height="2" fill="#333"/>
<rect x="7" y="-2" width="3" height="2" fill="#333"/>
</g><g style="animation:floatX 22s linear 3s infinite" transform="translate(-40,100)">
<rect x="0" y="0" width="4" height="2" fill="#333"/>
<rect x="4" y="-2" width="3" height="2" fill="#333"/>
<rect x="6" y="-3" width="2" height="2" fill="#333"/>
<rect x="7" y="-2" width="3" height="2" fill="#333"/>
</g><g style="animation:floatX 26s linear 6s infinite" transform="translate(-40,140)">
<rect x="0" y="0" width="4" height="2" fill="#333"/>
<rect x="4" y="-2" width="3" height="2" fill="#333"/>
<rect x="6" y="-3" width="2" height="2" fill="#333"/>
<rect x="7" y="-2" width="3" height="2" fill="#333"/>
</g><rect x="50" y="200" width="3" height="3" fill="#ff0" opacity=".5" style="animation:pulse 2s ease-in-out 0s infinite"/><rect x="150" y="280" width="3" height="3" fill="#ff0" opacity=".5" style="animation:pulse 2.5s ease-in-out 1.2s infinite"/><rect x="250" y="360" width="3" height="3" fill="#ff0" opacity=".5" style="animation:pulse 3s ease-in-out 2.4s infinite"/><rect x="350" y="440" width="3" height="3" fill="#ff0" opacity=".5" style="animation:pulse 3.5s ease-in-out 3.5999999999999996s infinite"/>
</svg>