<svg xmlns="http://www.w3.org/2000/svg" viewBox="0 0 480 640" width="480" height="640" shape-rendering="crispEdges">
<style>
@keyframes floatX{0%{transform:translateX(0)}100%{transform:translateX(480px)}}
@keyframes floatXneg{0%{transform:translateX(480px)}100%{transform:translateX(-80px)}}
@keyframes floatYup{0%{transform:translateY(0);opacity:.8}100%{transform:translateY(-640px);opacity:0}}
@keyframes floatYdown{0%{transform:translateY(-40px)}100%{transform:translateY(680px)}}
@keyframes fadeInOut{0%,100%{opacity:.15}50%{opacity:.7}}
@keyframes pulse{0%,100%{opacity:.6;transform:scale(1)}50%{opacity:1;transform:scale(1.15)}}
@keyframes sway{0%,100%{transform:rotate(-3deg)}50%{transform:rotate(3deg)}}
@keyframes bob{0%,100%{transform:translateY(0)}50%{transform:translateY(-6px)}}
@keyframes flash{0%,90%,100%{opacity:0}92%,96%{opacity:.8}}
@keyframes wave{0%{d:path('M0,0 Q60,-8 120,0 Q180,8 240,0 Q300,-8 360,0 Q420,8 480,0 L480,20 L0,20 Z')}50%{d:path('M0,0 Q60,8 120,0 Q180,-8 240,0 Q300,8 360,0 Q420,-8 480,0 L480,20 L0,20 Z')}100%{d:path('M0,0 Q60,-8 120,0 Q180,8 240,0 Q300,-8 360,0 Q420,8 480,0 L480,20 L0,20 Z')}}
</style>
<rect x="0" y="0" width="480" height="8" fill="#00b4d8"/><rect x="0" y="8" width="480" height="8" fill="#03b5d9"/><rect x="0" y="16" width="480" height="8" fill="#06b6d9"/><rect x="0" y="24" width="480" height="8" fill="#09b7da"/><rect x="0" y="32" width="480" height="8" fill="#0cb8da"/><rect x="0" y="40" width="480" height="8" fill="#0fb9db"/><rect x="0" y="48" width="480" height="8" fill="#12badb"/><rect x="0" y="56" width="480" height="8" fill="#15badc"/><rect x="0" y="64" width="480" height="8" fill="#18bbdc"/><rect x="0" y="72" width="480" height="8" fill="#1bbcdd"/><rect x="0" y="80" width="480" height="8" fill="#1ebddd"/><rect x="0" y="88" width="480" height="8" fill="#21bede"/><rect x="0" y="96" width="480" height="8" fill="#24bfde"/><rect x="0" y="104" width="480" height="8" fill="#27c0df"/><rect x="0" y="112" width="480" height="8" fill="#2ac1df"/><rect x="0" y="120" width="480" height="8" fill="#2dc2e0"/><rect x="0" y="128" width="480" height="8" fill="#30c3e0"/><rect x="0" y="136" width="480" height="8" fill="#33c4e1"/><rect x="0" y="144" width="480" height="8" fill="#36c5e1"/><rect x="0" y="152" width="480" height="8" fill="#39c5e2"/><rect x="0" y="160" width="480" height="8" fill="#3cc6e2"/><rect x="0" y="168" width="480" height="8" fill="#3fc7e3"/><rect x="0" y="176" width="480" height="8" fill="#42c8e3"/><rect x="0" y="184" width="480" height="8" fill="#45c9e4"/><rect x="0" y="192" width="480" height="8" fill="#48cae4"/><rect x="0" y="200" width="480" height="8" fill="#51cbe2"/><rect x="0" y="208" width="480" height="8" fill="#59ccdf"/><rect x="0" y="216" width="480" height="8" fill="#62cddd"/><rect x="0" y="224" width="480" height="8" fill="#6bceda"/><rect x="0" y="232" width="480" height="8" fill="#73cfd8"/><rect x="0" y="240" width="480" height="8" fill="#7cd0d5"/><rect x="0" y="248" width="96" height="8" fill="#85d1d3"/><rect x="96" y="248" width="24" height="8" fill="#2E8B2E"/><rect x="120" y="248" width="360" height="8" fill="#85d1d3"/><rect x="0" y="256" width="104" height="8" fill="#8dd2d0"/><rect x="104" y="256" width="40" height="8" fill="#2E8B2E"/><rect x="144" y="256" width="336" height="8" fill="#8dd2d0"/><rect x="0" y="264" width="88" height="8" fill="#96d3ce"/><rect x="88" y="264" width="24" height="8" fill="#2E8B2E"/><rect x="112" y="264" width="8" height="8" fill="#96d3ce"/><rect x="120" y="264" width="24" height="8" fill="#2E8B2E"/><rect x="144" y="264" width="72" height="8" fill="#96d3ce"/><rect x="216" y="264" width="24" height="8" fill="#2E8B2E"/><rect x="240" y="264" width="240" height="8" fill="#96d3ce"/><rect x="0" y="272" width="112" height="8" fill="#9fd4cc"/><rect x="112" y="272" width="16" height="8" fill="#6D4C2A"/><rect x="128" y="272" width="96" height="8" fill="#9fd4cc"/><rect x="224" y="272" width="40" height="8" fill="#2E8B2E"/><rect x="264" y="272" width="216" height="8" fill="#9fd4cc"/><rect x="0" y="280" width="96" height="8" fill="#a7d5c9"/><rect x="96" y="280" width="24" height="8" fill="#6D4C2A"/><rect x="120" y="280" width="88" height="8" fill="#a7d5c9"/><rect x="208" y="280" width="24" height="8" fill="#2E8B2E"/><rect x="232" y="280" width="8" height="8" fill="#a7d5c9"/><rect x="240" y="280" width="24" height="8" fill="#2E8B2E"/><rect x="264" y="280" width="216" height="8" fill="#a7d5c9"/><rect x="0" y="288" width="80" height="8" fill="#b0d6c7"/><rect x="80" y="288" width="16" height="8" fill="#6D4C2A"/><rect x="96" y="288" width="136" height="8" fill="#b0d6c7"/><rect x="232" y="288" width="16" height="8" fill="#6D4C2A"/><rect x="248" y="288" width="232" height="8" fill="#b0d6c7"/><rect x="0" y="296" width="80" height="8" fill="#b8d7c4"/><rect x="80" y="296" width="16" height="8" fill="#6D4C2A"/><rect x="96" y="296" width="120" height="8" fill="#b8d7c4"/><rect x="216" y="296" width="24" height="8" fill="#6D4C2A"/><rect x="240" y="296" width="240" height="8" fill="#b8d7c4"/><rect x="0" y="304" width="80" height="8" fill="#c1d8c2"/><rect x="80" y="304" width="16" height="8" fill="#6D4C2A"/><rect x="96" y="304" width="104" height="8" fill="#c1d8c2"/><rect x="200" y="304" width="16" height="8" fill="#6D4C2A"/><rect x="216" y="304" width="264" height="8" fill="#c1d8c2"/><rect x="0" y="312" width="80" height="8" fill="#cad9bf"/><rect x="80" y="312" width="16" height="8" fill="#6D4C2A"/><rect x="96" y="312" width="104" height="8" fill="#cad9bf"/><rect x="200" y="312" width="16" height="8" fill="#6D4C2A"/><rect x="216" y="312" width="264" height="8" fill="#cad9bf"/><rect x="0" y="320" width="80" height="8" fill="#d2dabd"/><rect x="80" y="320" width="16" height="8" fill="#6D4C2A"/><rect x="96" y="320" width="104" height="8" fill="#d2dabd"/><rect x="200" y="320" width="16" height="8" fill="#6D4C2A"/><rect x="216" y="320" width="264" height="8" fill="#d2dabd"/><rect x="0" y="328" width="200" height="8" fill="#dbdbba"/><rect x="200" y="328" width="16" height="8" fill="#6D4C2A"/><rect x="216" y="328" width="264" height="8" fill="#dbdbba"/><rect x="0" y="336" width="200" height="8" fill="#e4dcb8"/><rect x="200" y="336" width="16" height="8" fill="#6D4C2A"/><rect x="216" y="336" width="264" height="8" fill="#e4dcb8"/><rect x="0" y="344" width="480" height="8" fill="#ecddb5"/><rect x="0" y="352" width="480" height="8" fill="#f5deb3"/><rect x="0" y="360" width="480" height="8" fill="#f2d9ae"/><rect x="0" y="368" width="480" height="8" fill="#efd5a8"/><rect x="0" y="376" width="480" height="8" fill="#ecd0a3"/><rect x="0" y="384" width="480" height="8" fill="#eacb9d"/><rect x="0" y="392" width="480" height="8" fill="#e7c698"/><rect x="0" y="400" width="104" height="8" fill="#e4c292"/><rect x="104" y="400" width="48" height="8" fill="#fff"/><rect x="152" y="400" width="120" height="8" fill="#e4c292"/><rect x="272" y="400" width="48" height="8" fill="#fff"/><rect x="320" y="400" width="120" height="8" fill="#e4c292"/><rect x="440" y="400" width="40" height="8" fill="#fff"/><rect x="0" y="408" width="88" height="8" fill="#e1bd8d"/><rect x="88" y="408" width="16" height="8" fill="#fff"/><rect x="104" y="408" width="16" height="8" fill="#e1bd8d"/><rect x="120" y="408" width="8" height="8" fill="#B0E0E6"/><rect x="128" y="408" width="16" height="8" fill="#e1bd8d"/><rect x="144" y="408" width="8" height="8" fill="#B0E0E6"/><rect x="152" y="408" width="16" height="8" fill="#fff"/><rect x="168" y="408" width="88" height="8" fill="#e1bd8d"/><rect x="256" y="408" width="16" height="8" fill="#fff"/><rect x="272" y="408" width="16" height="8" fill="#e1bd8d"/><rect x="288" y="408" width="8" height="8" fill="#B0E0E6"/><rect x="296" y="408" width="16" height="8" fill="#e1bd8d"/><rect x="312" y="408" width="8" height="8" fill="#B0E0E6"/><rect x="320" y="408" width="16" height="8" fill="#fff"/><rect x="336" y="408" width="88" height="8" fill="#e1bd8d"/><rect x="424" y="408" width="16" height="8" fill="#fff"/><rect x="440" y="408" width="16" height="8" fill="#e1bd8d"/><rect x="456" y="408" width="8" height="8" fill="#B0E0E6"/><rect x="464" y="408" width="16" height="8" fill="#e1bd8d"/><rect x="0" y="416" width="24" height="8" fill="#fff"/><rect x="24" y="416" width="48" height="8" fill="#deb887"/><rect x="72" y="416" width="16" height="8" fill="#fff"/><rect x="88" y="416" width="8" height="8" fill="#deb887"/><rect x="96" y="416" width="8" height="8" fill="#B0E0E6"/><rect x="104" y="416" width="64" height="8" fill="#deb887"/><rect x="168" y="416" width="24" height="8" fill="#fff"/><rect x="192" y="416" width="40" height="8" fill="#deb887"/><rect x="232" y="416" width="24" height="8" fill="#fff"/><rect x="256" y="416" width="8" height="8" fill="#deb887"/><rect x="264" y="416" width="8" height="8" fill="#B0E0E6"/><rect x="272" y="416" width="64" height="8" fill="#deb887"/><rect x="336" y="416" width="24" height="8" fill="#fff"/><rect x="360" y="416" width="40" height="8" fill="#deb887"/><rect x="400" y="416" width="24" height="8" fill="#fff"/><rect x="424" y="416" width="8" height="8" fill="#deb887"/><rect x="432" y="416" width="8" height="8" fill="#B0E0E6"/><rect x="440" y="416" width="40" height="8" fill="#deb887"/><rect x="0" y="424" width="8" height="8" fill="#B0E0E6"/><rect x="8" y="424" width="16" height="8" fill="#dbb684"/><rect x="24" y="424" width="48" height="8" fill="#fff"/><rect x="72" y="424" width="8" height="8" fill="#B0E0E6"/><rect x="80" y="424" width="88" height="8" fill="#dbb684"/><rect x="168" y="424" width="8" height="8" fill="#B0E0E6"/><rect x="176" y="424" width="16" height="8" fill="#dbb684"/><rect x="192" y="424" width="40" height="8" fill="#fff"/><rect x="232" y="424" width="8" height="8" fill="#dbb684"/><rect x="240" y="424" width="8" height="8" fill="#B0E0E6"/><rect x="248" y="424" width="88" height="8" fill="#dbb684"/><rect x="336" y="424" width="8" height="8" fill="#B0E0E6"/><rect x="344" y="424" width="16" height="8" fill="#dbb684"/><rect x="360" y="424" width="40" height="8" fill="#fff"/><rect x="400" y="424" width="8" height="8" fill="#dbb684"/><rect x="408" y="424" width="8" height="8" fill="#B0E0E6"/><rect x="416" y="424" width="64" height="8" fill="#dbb684"/><rect x="0" y="432" width="24" height="8" fill="#d7b480"/><rect x="24" y="432" width="8" height="8" fill="#B0E0E6"/><rect x="32" y="432" width="16" height="8" fill="#d7b480"/><rect x="48" y="432" width="8" height="8" fill="#B0E0E6"/><rect x="56" y="432" width="136" height="8" fill="#d7b480"/><rect x="192" y="432" width="8" height="8" fill="#B0E0E6"/><rect x="200" y="432" width="16" height="8" fill="#d7b480"/><rect x="216" y="432" width="8" height="8" fill="#B0E0E6"/><rect x="224" y="432" width="136" height="8" fill="#d7b480"/><rect x="360" y="432" width="8" height="8" fill="#B0E0E6"/><rect x="368" y="432" width="16" height="8" fill="#d7b480"/><rect x="384" y="432" width="8" height="8" fill="#B0E0E6"/><rect x="392" y="432" width="88" height="8" fill="#d7b480"/><rect x="0" y="440" width="480" height="8" fill="#d4b17d"/><rect x="0" y="448" width="480" height="8" fill="#d0af79"/><rect x="0" y="456" width="480" height="8" fill="#cdad76"/><rect x="0" y="464" width="480" height="8" fill="#c9ab72"/><rect x="0" y="472" width="480" height="8" fill="#c6a86e"/><rect x="0" y="480" width="480" height="8" fill="#c2a66b"/><rect x="0" y="488" width="480" height="8" fill="#aaa476"/><rect x="0" y="496" width="480" height="8" fill="#91a282"/><rect x="0" y="504" width="480" height="8" fill="#79a08e"/><rect x="0" y="512" width="480" height="8" fill="#619e99"/><rect x="0" y="520" width="480" height="8" fill="#499ca5"/><rect x="0" y="528" width="480" height="8" fill="#319ab0"/><rect x="0" y="536" width="480" height="8" fill="#1898bc"/><rect x="0" y="544" width="480" height="8" fill="#0096c7"/><rect x="0" y="552" width="480" height="8" fill="#0091c2"/><rect x="0" y="560" width="480" height="8" fill="#008dbd"/><rect x="0" y="568" width="480" height="8" fill="#0088b8"/><rect x="0" y="576" width="480" height="8" fill="#0084b3"/><rect x="0" y="584" width="480" height="8" fill="#007fae"/><rect x="0" y="592" width="480" height="8" fill="#007aa8"/><rect x="0" y="600" width="480" height="8" fill="#0076a3"/><rect x="0" y="608" width="480" height="8" fill="#00719e"/><rect x="0" y="616" width="480" height="8" fill="#006d99"/><rect x="0" y="624" width="480" height="8" fill="#006894"/><rect x="0" y="632" width="480" height="8" fill="#00648f"/>
<path fill="#0096C7" opacity=".3" style="animation:wave 3s ease-in-out infinite" d="M0,0 Q60,-8 120,0 Q180,8 240,0 Q300,-8 360,0 Q420,8 480,0 L480,20 L0,20 Z" transform="translate(0,416)"/><g style="animation:floatXneg 22s linear infinite;opacity:0.5" transform="translate(50,25)">
<rect x="0" y="13.5" width="45" height="13.5" fill="#fff" rx="2"/>
<rect x="6.75" y="4.5" width="22.5" height="13.5" fill="#fff" rx="2"/>
<rect x="18" y="0" width="15.749999999999998" height="11.25" fill="#fff" rx="2"/>
</g><g style="animation:floatXneg 30s linear infinite;opacity:0.4" transform="translate(300,10)">
<rect x="0" y="12" width="40" height="12" fill="#fff" rx="2"/>
<rect x="6" y="4" width="20" height="12" fill="#fff" rx="2"/>
<rect x="16" y="0" width="14" height="10" fill="#fff" rx="2"/>
</g><g style="animation:floatX 16s linear 0s infinite" transform="translate(-40,80)">
<rect x="0" y="0" width="4" height="2" fill="#333"/>
<rect x="4" y="-2" width="3" height="2" fill="#333"/>
<rect x="6" y="-3" width="2" height="2" fill="#333"/>
<rect x="7" y="-2" width="3" height="2" fill="#333"/>
</g><g style="animation:floatX 19s linear 2.5s infinite" transform="translate(-40,130)">
<rect x="0" y="0" width="4" height="2" fill="#333"/>
<rect x="4" y="-2" width="3" height="2" fill="#333"/>
<rect x="6" y="-3" width="2" height="2" fill="#333"/>
<rect x="7" y="-2" width="3" height="2" fill="#333"/>
</g><g style="animation:floatX 22s linear 5s infinite" transform="translate(-40,180)">
<rect x="0" y="0" width="4" height="2" fill="#333"/>
<rect x="4" y="-2" width="3" height="2" fill="#333"/>
<rect x="6" y="-3" width="2" height="2" fill="#333"/>
<rect x="7" y="-2" width="3" height="2" fill="#333"/>
</g><g style="animation:floatX 25s linear 7.5s infinite" transform="translate(-40,230)">
<rect x="0" y="0" width="4" height="2" fill="#333"/>
<rect x="4" y="-2" width="3" height="2" fill="#333"/>
<rect x="6" y="-3" width="2" height="2" fill="#333"/>
<rect x="7" y="-2" width="3" height="2" fill="#333"/>
</g><rect x="40" y="650" width="7.107000582188815" height="7.107000582188815" fill="#4af" opacity=".3" rx="3.5535002910944073" style="animation:floatYup 8s ease-in 0s infinite"/><rect x="110" y="650" width="8.079441905882137" height="8.079441905882137" fill="#4af" opacity=".3" rx="4.039720952941068" style="animation:floatYup 10s ease-in 0.8s infinite"/><rect x="180" y="650" width="9.421046116824582" height="9.421046116824582" fill="#4af" opacity=".3" rx="4.710523058412291" style="animation:floatYup 12s ease-in 1.6s infinite"/><rect x="250" y="650" width="8.21848319493162" height="8.21848319493162" fill="#4af" opacity=".3" rx="4.10924159746581" style="animation:floatYup 14s ease-in 2.4000000000000004s infinite"/><rect x="320" y="650" width="9.838204630640373" height="9.838204630640373" fill="#4af" opacity=".3" rx="4.9191023153201865" style="animation:floatYup 16s ease-in 3.2s infinite"/><rect x="390" y="650" width="5.062216571675627" height="5.062216571675627" fill="#4af" opacity=".3" rx="2.5311082858378136" style="animation:floatYup 18s ease-in 4s infinite"/>
</svg>