<svg xmlns="http://www.w3.org/2000/svg" viewBox="0 0 480 640" width="480" height="640" shape-rendering="crispEdges">
<style>
@keyframes floatX{0%{transform:translateX(0)}100%{transform:translateX(480px)}}
@keyframes floatXneg{0%{transform:translateX(480px)}100%{transform:translateX(-80px)}}
@keyframes floatYup{0%{transform:translateY(0);opacity:.8}100%{transform:translateY(-640px);opacity:0}}
@keyframes floatYdown{0%{transform:translateY(-40px)}100%{transform:translateY(680px)}}
@keyframes fadeInOut{0%,100%{opacity:.15}50%{opacity:.7}}
@keyframes pulse{0%,100%{opacity:.6;transform:scale(1)}50%{opacity:1;transform:scale(1.15)}}
@keyframes sway{0%,100%{transform:rotate(-3deg)}50%{transform:rotate(3deg)}}
@keyframes bob{0%,100%{transform:translateY(0)}50%{transform:translateY(-6px)}}
@keyframes flash{0%,90%,100%{opacity:0}92%,96%{opacity:.8}}
@keyframes wave{0%{d:path('M0,0 Q60,-8 120,0 Q180,8 240,0 Q300,-8 360,0 Q420,8 480,0 L480,20 L0,20 Z')}50%{d:path('M0,0 Q60,8 120,0 Q180,-8 240,0 Q300,8 360,0 Q420,-8 480,0 L480,20 L0,20 Z')}100%{d:path('M0,0 Q60,-8 120,0 Q180,8 240,0 Q300,-8 360,0 Q420,8 480,0 L480,20 L0,20 Z')}}
</style>
<rect x="0" y="0" width="480" height="8" fill="#1a0000"/><rect x="0" y="8" width="480" height="8" fill="#1e0100"/><rect x="0" y="16" width="480" height="8" fill="#220200"/><rect x="0" y="24" width="480" height="8" fill="#260300"/><rect x="0" y="32" width="480" height="8" fill="#2a0400"/><rect x="0" y="40" width="480" height="8" fill="#2e0400"/><rect x="0" y="48" width="480" height="8" fill="#320500"/><rect x="0" y="56" width="480" height="8" fill="#360600"/><rect x="0" y="64" width="480" height="8" fill="#3b0700"/><rect x="0" y="72" width="480" height="8" fill="#3f0800"/><rect x="0" y="80" width="480" height="8" fill="#430900"/><rect x="0" y="88" width="480" height="8" fill="#470a00"/><rect x="0" y="96" width="480" height="8" fill="#4b0a00"/><rect x="0" y="104" width="480" height="8" fill="#4f0b00"/><rect x="0" y="112" width="480" height="8" fill="#530c00"/><rect x="0" y="120" width="480" height="8" fill="#570d00"/><rect x="0" y="128" width="480" height="8" fill="#5b0e00"/><rect x="0" y="136" width="480" height="8" fill="#621000"/><rect x="0" y="144" width="480" height="8" fill="#691300"/><rect x="0" y="152" width="480" height="8" fill="#701500"/><rect x="0" y="160" width="480" height="8" fill="#771700"/><rect x="0" y="168" width="480" height="8" fill="#7e1a00"/><rect x="0" y="176" width="480" height="8" fill="#851c00"/><rect x="0" y="184" width="480" height="8" fill="#8c1e00"/><rect x="0" y="192" width="480" height="8" fill="#942100"/><rect x="0" y="200" width="480" height="8" fill="#9b2300"/><rect x="0" y="208" width="480" height="8" fill="#a22500"/><rect x="0" y="216" width="480" height="8" fill="#a92700"/><rect x="0" y="224" width="480" height="8" fill="#b02a00"/><rect x="0" y="232" width="480" height="8" fill="#b72c00"/><rect x="0" y="240" width="480" height="8" fill="#be2e00"/><rect x="0" y="248" width="480" height="8" fill="#c53100"/><rect x="0" y="256" width="480" height="8" fill="#cc3300"/><rect x="0" y="264" width="480" height="8" fill="#d03700"/><rect x="0" y="272" width="480" height="8" fill="#d53b00"/><rect x="0" y="280" width="200" height="8" fill="#d94000"/><rect x="200" y="280" width="8" height="8" fill="#3D1500"/><rect x="208" y="280" width="272" height="8" fill="#d94000"/><rect x="0" y="288" width="192" height="8" fill="#dd4400"/><rect x="192" y="288" width="24" height="8" fill="#3D1500"/><rect x="216" y="288" width="264" height="8" fill="#dd4400"/><rect x="0" y="296" width="184" height="8" fill="#e14800"/><rect x="184" y="296" width="40" height="8" fill="#3D1500"/><rect x="224" y="296" width="256" height="8" fill="#e14800"/><rect x="0" y="304" width="176" height="8" fill="#e54c00"/><rect x="176" y="304" width="56" height="8" fill="#3D1500"/><rect x="232" y="304" width="248" height="8" fill="#e54c00"/><rect x="0" y="312" width="168" height="8" fill="#ea5100"/><rect x="168" y="312" width="72" height="8" fill="#3D1500"/><rect x="240" y="312" width="200" height="8" fill="#ea5100"/><rect x="440" y="312" width="8" height="8" fill="#2A0A00"/><rect x="448" y="312" width="32" height="8" fill="#ea5100"/><rect x="0" y="320" width="160" height="8" fill="#ee5500"/><rect x="160" y="320" width="88" height="8" fill="#3D1500"/><rect x="248" y="320" width="184" height="8" fill="#ee5500"/><rect x="432" y="320" width="24" height="8" fill="#2A0A00"/><rect x="456" y="320" width="24" height="8" fill="#ee5500"/><rect x="0" y="328" width="160" height="8" fill="#f25900"/><rect x="160" y="328" width="88" height="8" fill="#3D1500"/><rect x="248" y="328" width="176" height="8" fill="#f25900"/><rect x="424" y="328" width="40" height="8" fill="#2A0A00"/><rect x="464" y="328" width="16" height="8" fill="#f25900"/><rect x="0" y="336" width="152" height="8" fill="#f75e00"/><rect x="152" y="336" width="104" height="8" fill="#3D1500"/><rect x="256" y="336" width="160" height="8" fill="#f75e00"/><rect x="416" y="336" width="56" height="8" fill="#2A0A00"/><rect x="472" y="336" width="8" height="8" fill="#f75e00"/><rect x="0" y="344" width="144" height="8" fill="#fb6200"/><rect x="144" y="344" width="120" height="8" fill="#3D1500"/><rect x="264" y="344" width="144" height="8" fill="#fb6200"/><rect x="408" y="344" width="72" height="8" fill="#2A0A00"/><rect x="0" y="352" width="136" height="8" fill="#ff6600"/><rect x="136" y="352" width="136" height="8" fill="#3D1500"/><rect x="272" y="352" width="128" height="8" fill="#ff6600"/><rect x="400" y="352" width="80" height="8" fill="#2A0A00"/><rect x="0" y="360" width="128" height="8" fill="#f96000"/><rect x="128" y="360" width="152" height="8" fill="#3D1500"/><rect x="280" y="360" width="112" height="8" fill="#f96000"/><rect x="392" y="360" width="88" height="8" fill="#2A0A00"/><rect x="0" y="368" width="120" height="8" fill="#f25900"/><rect x="120" y="368" width="168" height="8" fill="#3D1500"/><rect x="288" y="368" width="104" height="8" fill="#f25900"/><rect x="392" y="368" width="88" height="8" fill="#2A0A00"/><rect x="0" y="376" width="120" height="8" fill="#ec5300"/><rect x="120" y="376" width="168" height="8" fill="#3D1500"/><rect x="288" y="376" width="96" height="8" fill="#ec5300"/><rect x="384" y="376" width="96" height="8" fill="#2A0A00"/><rect x="0" y="384" width="112" height="8" fill="#e64d00"/><rect x="112" y="384" width="64" height="8" fill="#3D1500"/><rect x="176" y="384" width="32" height="8" fill="#FF4500"/><rect x="208" y="384" width="8" height="8" fill="#FFAA00"/><rect x="216" y="384" width="8" height="8" fill="#FF4500"/><rect x="224" y="384" width="72" height="8" fill="#3D1500"/><rect x="296" y="384" width="80" height="8" fill="#e64d00"/><rect x="376" y="384" width="104" height="8" fill="#2A0A00"/><rect x="0" y="392" width="48" height="8" fill="#df4600"/><rect x="48" y="392" width="8" height="8" fill="#FFAA00"/><rect x="56" y="392" width="48" height="8" fill="#df4600"/><rect x="104" y="392" width="72" height="8" fill="#FF4500"/><rect x="176" y="392" width="8" height="8" fill="#FFAA00"/><rect x="184" y="392" width="8" height="8" fill="#FF4500"/><rect x="192" y="392" width="24" height="8" fill="#FFAA00"/><rect x="216" y="392" width="88" height="8" fill="#FF4500"/><rect x="304" y="392" width="64" height="8" fill="#df4600"/><rect x="368" y="392" width="112" height="8" fill="#2A0A00"/><rect x="0" y="400" width="40" height="8" fill="#d94000"/><rect x="40" y="400" width="24" height="8" fill="#FF4500"/><rect x="64" y="400" width="32" height="8" fill="#d94000"/><rect x="96" y="400" width="88" height="8" fill="#FF4500"/><rect x="184" y="400" width="8" height="8" fill="#FFAA00"/><rect x="192" y="400" width="24" height="8" fill="#FF4500"/><rect x="216" y="400" width="8" height="8" fill="#FFAA00"/><rect x="224" y="400" width="88" height="8" fill="#FF4500"/><rect x="312" y="400" width="48" height="8" fill="#d94000"/><rect x="360" y="400" width="120" height="8" fill="#FF6600"/><rect x="0" y="408" width="88" height="8" fill="#d23900"/><rect x="88" y="408" width="32" height="8" fill="#FF4500"/><rect x="120" y="408" width="8" height="8" fill="#FFAA00"/><rect x="128" y="408" width="72" height="8" fill="#FF4500"/><rect x="200" y="408" width="16" height="8" fill="#FFAA00"/><rect x="216" y="408" width="104" height="8" fill="#FF4500"/><rect x="320" y="408" width="32" height="8" fill="#d23900"/><rect x="352" y="408" width="88" height="8" fill="#FF6600"/><rect x="440" y="408" width="8" height="8" fill="#FFAA00"/><rect x="448" y="408" width="32" height="8" fill="#FF6600"/><rect x="0" y="416" width="80" height="8" fill="#cc3300"/><rect x="80" y="416" width="248" height="8" fill="#FF4500"/><rect x="328" y="416" width="16" height="8" fill="#cc3300"/><rect x="344" y="416" width="24" height="8" fill="#FF6600"/><rect x="368" y="416" width="8" height="8" fill="#FFAA00"/><rect x="376" y="416" width="56" height="8" fill="#FF6600"/><rect x="432" y="416" width="24" height="8" fill="#FF4500"/><rect x="456" y="416" width="24" height="8" fill="#FF6600"/><rect x="0" y="424" width="360" height="8" fill="#c13100"/><rect x="360" y="424" width="24" height="8" fill="#FF4500"/><rect x="384" y="424" width="96" height="8" fill="#c13100"/><rect x="0" y="432" width="288" height="8" fill="#b63000"/><rect x="288" y="432" width="8" height="8" fill="#FFAA00"/><rect x="296" y="432" width="184" height="8" fill="#b63000"/><rect x="0" y="440" width="280" height="8" fill="#ac2e00"/><rect x="280" y="440" width="24" height="8" fill="#FF4500"/><rect x="304" y="440" width="176" height="8" fill="#ac2e00"/><rect x="0" y="448" width="480" height="8" fill="#a12d00"/><rect x="0" y="456" width="480" height="8" fill="#962b00"/><rect x="0" y="464" width="480" height="8" fill="#8b2a00"/><rect x="0" y="472" width="480" height="8" fill="#802800"/><rect x="0" y="480" width="480" height="8" fill="#752600"/><rect x="0" y="488" width="480" height="8" fill="#6b2500"/><rect x="0" y="496" width="480" height="8" fill="#602300"/><rect x="0" y="504" width="480" height="8" fill="#552200"/><rect x="0" y="512" width="480" height="8" fill="#4a2000"/><rect x="0" y="520" width="480" height="8" fill="#471f00"/><rect x="0" y="528" width="480" height="8" fill="#441d00"/><rect x="0" y="536" width="480" height="8" fill="#411c00"/><rect x="0" y="544" width="480" height="8" fill="#3e1b00"/><rect x="0" y="552" width="480" height="8" fill="#3b1900"/><rect x="0" y="560" width="480" height="8" fill="#381800"/><rect x="0" y="568" width="480" height="8" fill="#351600"/><rect x="0" y="576" width="480" height="8" fill="#321500"/><rect x="0" y="584" width="480" height="8" fill="#2f1400"/><rect x="0" y="592" width="480" height="8" fill="#2c1200"/><rect x="0" y="600" width="480" height="8" fill="#291100"/><rect x="0" y="608" width="480" height="8" fill="#261000"/><rect x="0" y="616" width="480" height="8" fill="#230e00"/><rect x="0" y="624" width="480" height="8" fill="#200d00"/><rect x="0" y="632" width="480" height="8" fill="#1d0b00"/>
<rect x="20" y="640" width="5.796075398521479" height="5.796075398521479" fill="#fa0" opacity=".6" style="animation:floatYup 5s ease-out 0s infinite"/><rect x="42" y="640" width="6.697744088706792" height="6.697744088706792" fill="#f60" opacity=".6" style="animation:floatYup 5.8s ease-out 1.1s infinite"/><rect x="64" y="640" width="4.456662195243273" height="4.456662195243273" fill="#f60" opacity=".6" style="animation:floatYup 6.6s ease-out 2.2s infinite"/><rect x="86" y="640" width="3.0500239111141703" height="3.0500239111141703" fill="#f60" opacity=".6" style="animation:floatYup 7.4s ease-out 3.3000000000000003s infinite"/><rect x="108" y="640" width="6.277782534680301" height="6.277782534680301" fill="#fa0" opacity=".6" style="animation:floatYup 8.2s ease-out 4.4s infinite"/><rect x="130" y="640" width="5.334028941101314" height="5.334028941101314" fill="#fa0" opacity=".6" style="animation:floatYup 9s ease-out 5.5s infinite"/><rect x="152" y="640" width="5.563532846311242" height="5.563532846311242" fill="#f60" opacity=".6" style="animation:floatYup 9.8s ease-out 6.6000000000000005s infinite"/><rect x="174" y="640" width="4.5702745540902825" height="4.5702745540902825" fill="#fa0" opacity=".6" style="animation:floatYup 10.600000000000001s ease-out 7.700000000000001s infinite"/><rect x="196" y="640" width="3.5730719910019584" height="3.5730719910019584" fill="#fa0" opacity=".6" style="animation:floatYup 11.4s ease-out 8.8s infinite"/><rect x="218" y="640" width="6.530135449839537" height="6.530135449839537" fill="#fa0" opacity=".6" style="animation:floatYup 12.2s ease-out 9.9s infinite"/><rect x="240" y="640" width="4.244740835363685" height="4.244740835363685" fill="#f60" opacity=".6" style="animation:floatYup 13s ease-out 11s infinite"/><rect x="262" y="640" width="3.08430512430387" height="3.08430512430387" fill="#fa0" opacity=".6" style="animation:floatYup 13.8s ease-out 12.100000000000001s infinite"/><rect x="284" y="640" width="4.871975088357662" height="4.871975088357662" fill="#f60" opacity=".6" style="animation:floatYup 14.600000000000001s ease-out 13.200000000000001s infinite"/><rect x="306" y="640" width="5.540871378962605" height="5.540871378962605" fill="#f60" opacity=".6" style="animation:floatYup 15.4s ease-out 14.3s infinite"/><rect x="328" y="640" width="6.888757058691517" height="6.888757058691517" fill="#fa0" opacity=".6" style="animation:floatYup 16.200000000000003s ease-out 15.400000000000002s infinite"/><rect x="350" y="640" width="3.0699004647295736" height="3.0699004647295736" fill="#f60" opacity=".6" style="animation:floatYup 17s ease-out 16.5s infinite"/><rect x="372" y="640" width="3.5399312891322268" height="3.5399312891322268" fill="#f60" opacity=".6" style="animation:floatYup 17.8s ease-out 17.6s infinite"/><rect x="394" y="640" width="4.001147130544622" height="4.001147130544622" fill="#fa0" opacity=".6" style="animation:floatYup 18.6s ease-out 18.700000000000003s infinite"/><rect x="416" y="640" width="3.549477114461489" height="3.549477114461489" fill="#f60" opacity=".6" style="animation:floatYup 19.4s ease-out 19.8s infinite"/><rect x="438" y="640" width="3.741589308012267" height="3.741589308012267" fill="#f60" opacity=".6" style="animation:floatYup 20.200000000000003s ease-out 20.900000000000002s infinite"/><rect x="176" y="384" width="48" height="32" fill="#f60" opacity=".4" style="animation:pulse 2s ease-in-out infinite"/><rect x="15" y="10" width="3" height="3" fill="#ff8" style="animation:pulse 1.5s ease-in-out 0s infinite"/><rect x="105" y="25" width="3" height="3" fill="#ff8" style="animation:pulse 1.8s ease-in-out 0.7s infinite"/><rect x="195" y="40" width="3" height="3" fill="#ff8" style="animation:pulse 2.1s ease-in-out 1.4s infinite"/><rect x="285" y="55" width="3" height="3" fill="#ff8" style="animation:pulse 2.4s ease-in-out 2.0999999999999996s infinite"/><rect x="375" y="70" width="3" height="3" fill="#ff8" style="animation:pulse 2.7s ease-in-out 2.8s infinite"/>
</svg>