<svg xmlns="http://www.w3.org/2000/svg" viewBox="0 0 480 640" width="480" height="640" shape-rendering="crispEdges">
<style>
@keyframes floatX{0%{transform:translateX(0)}100%{transform:translateX(480px)}}
@keyframes floatXneg{0%{transform:translateX(480px)}100%{transform:translateX(-80px)}}
@keyframes floatYup{0%{transform:translateY(0);opacity:.8}100%{transform:translateY(-640px);opacity:0}}
@keyframes floatYdown{0%{transform:translateY(-40px)}100%{transform:translateY(680px)}}
@keyframes fadeInOut{0%,100%{opacity:.15}50%{opacity:.7}}
@keyframes pulse{0%,100%{opacity:.6;transform:scale(1)}50%{opacity:1;transform:scale(1.15)}}
@keyframes sway{0%,100%{transform:rotate(-3deg)}50%{transform:rotate(3deg)}}
@keyframes bob{0%,100%{transform:translateY(0)}50%{transform:translateY(-6px)}}
@keyframes flash{0%,90%,100%{opacity:0}92%,96%{opacity:.8}}
@keyframes wave{0%{d:path('M0,0 Q60,-8 120,0 Q180,8 240,0 Q300,-8 360,0 Q420,8 480,0 L480,20 L0,20 Z')}50%{d:path('M0,0 Q60,8 120,0 Q180,-8 240,0 Q300,8 360,0 Q420,-8 480,0 L480,20 L0,20 Z')}100%{d:path('M0,0 Q60,-8 120,0 Q180,8 240,0 Q300,-8 360,0 Q420,8 480,0 L480,20 L0,20 Z')}}
</style>
<rect x="0" y="0" width="480" height="8" fill="#e0f4ff"/><rect x="0" y="8" width="480" height="8" fill="#def3ff"/><rect x="0" y="16" width="480" height="8" fill="#dcf1ff"/><rect x="0" y="24" width="480" height="8" fill="#d9f0ff"/><rect x="0" y="32" width="480" height="8" fill="#d7efff"/><rect x="0" y="40" width="480" height="8" fill="#d5edff"/><rect x="0" y="48" width="480" height="8" fill="#d3ecff"/><rect x="0" y="56" width="480" height="8" fill="#d0ebff"/><rect x="0" y="64" width="480" height="8" fill="#cee9ff"/><rect x="0" y="72" width="480" height="8" fill="#cce8ff"/><rect x="0" y="80" width="480" height="8" fill="#cae7ff"/><rect x="0" y="88" width="480" height="8" fill="#c7e5ff"/><rect x="0" y="96" width="480" height="8" fill="#c5e4ff"/><rect x="0" y="104" width="480" height="8" fill="#c3e2ff"/><rect x="0" y="112" width="480" height="8" fill="#c1e1ff"/><rect x="0" y="120" width="480" height="8" fill="#bee0ff"/><rect x="0" y="128" width="480" height="8" fill="#bcdeff"/><rect x="0" y="136" width="480" height="8" fill="#baddff"/><rect x="0" y="144" width="480" height="8" fill="#b8dcff"/><rect x="0" y="152" width="480" height="8" fill="#b5daff"/><rect x="0" y="160" width="480" height="8" fill="#b3d9ff"/><rect x="0" y="168" width="480" height="8" fill="#b1d8ff"/><rect x="0" y="176" width="480" height="8" fill="#aed7ff"/><rect x="0" y="184" width="480" height="8" fill="#acd5ff"/><rect x="0" y="192" width="480" height="8" fill="#aad4ff"/><rect x="0" y="200" width="480" height="8" fill="#a7d3ff"/><rect x="0" y="208" width="480" height="8" fill="#a5d2ff"/><rect x="0" y="216" width="480" height="8" fill="#a3d1ff"/><rect x="0" y="224" width="480" height="8" fill="#a1d0ff"/><rect x="0" y="232" width="480" height="8" fill="#9eceff"/><rect x="0" y="240" width="480" height="8" fill="#9ccdff"/><rect x="0" y="248" width="480" height="8" fill="#9accff"/><rect x="0" y="256" width="480" height="8" fill="#97cbff"/><rect x="0" y="264" width="480" height="8" fill="#95caff"/><rect x="0" y="272" width="480" height="8" fill="#93c8ff"/><rect x="0" y="280" width="160" height="8" fill="#90c7ff"/><rect x="160" y="280" width="8" height="8" fill="#C8D8E8"/><rect x="168" y="280" width="312" height="8" fill="#90c7ff"/><rect x="0" y="288" width="152" height="8" fill="#8ec6ff"/><rect x="152" y="288" width="24" height="8" fill="#C8D8E8"/><rect x="176" y="288" width="304" height="8" fill="#8ec6ff"/><rect x="0" y="296" width="144" height="8" fill="#94c9ff"/><rect x="144" y="296" width="40" height="8" fill="#C8D8E8"/><rect x="184" y="296" width="296" height="8" fill="#94c9ff"/><rect x="0" y="304" width="136" height="8" fill="#9acdff"/><rect x="136" y="304" width="56" height="8" fill="#C8D8E8"/><rect x="192" y="304" width="288" height="8" fill="#9acdff"/><rect x="0" y="312" width="128" height="8" fill="#a0d0ff"/><rect x="128" y="312" width="72" height="8" fill="#C8D8E8"/><rect x="200" y="312" width="240" height="8" fill="#a0d0ff"/><rect x="440" y="312" width="8" height="8" fill="#B8C8D8"/><rect x="448" y="312" width="32" height="8" fill="#a0d0ff"/><rect x="0" y="320" width="120" height="8" fill="#a6d3ff"/><rect x="120" y="320" width="88" height="8" fill="#C8D8E8"/><rect x="208" y="320" width="224" height="8" fill="#a6d3ff"/><rect x="432" y="320" width="24" height="8" fill="#B8C8D8"/><rect x="456" y="320" width="24" height="8" fill="#a6d3ff"/><rect x="0" y="328" width="56" height="8" fill="#acd7ff"/><rect x="56" y="328" width="32" height="8" fill="#fff"/><rect x="88" y="328" width="24" height="8" fill="#acd7ff"/><rect x="112" y="328" width="56" height="8" fill="#C8D8E8"/><rect x="168" y="328" width="32" height="8" fill="#fff"/><rect x="200" y="328" width="16" height="8" fill="#C8D8E8"/><rect x="216" y="328" width="56" height="8" fill="#acd7ff"/><rect x="272" y="328" width="32" height="8" fill="#fff"/><rect x="304" y="328" width="72" height="8" fill="#acd7ff"/><rect x="376" y="328" width="32" height="8" fill="#fff"/><rect x="408" y="328" width="16" height="8" fill="#acd7ff"/><rect x="424" y="328" width="40" height="8" fill="#B8C8D8"/><rect x="464" y="328" width="16" height="8" fill="#acd7ff"/><rect x="0" y="336" width="48" height="8" fill="#b2daff"/><rect x="48" y="336" width="48" height="8" fill="#E8F0F8"/><rect x="96" y="336" width="8" height="8" fill="#b2daff"/><rect x="104" y="336" width="56" height="8" fill="#C8D8E8"/><rect x="160" y="336" width="48" height="8" fill="#E8F0F8"/><rect x="208" y="336" width="16" height="8" fill="#C8D8E8"/><rect x="224" y="336" width="40" height="8" fill="#b2daff"/><rect x="264" y="336" width="48" height="8" fill="#E8F0F8"/><rect x="312" y="336" width="56" height="8" fill="#b2daff"/><rect x="368" y="336" width="48" height="8" fill="#E8F0F8"/><rect x="416" y="336" width="56" height="8" fill="#B8C8D8"/><rect x="472" y="336" width="8" height="8" fill="#b2daff"/><rect x="0" y="344" width="48" height="8" fill="#b8ddff"/><rect x="48" y="344" width="48" height="8" fill="#E8F0F8"/><rect x="96" y="344" width="64" height="8" fill="#C8D8E8"/><rect x="160" y="344" width="48" height="8" fill="#E8F0F8"/><rect x="208" y="344" width="24" height="8" fill="#C8D8E8"/><rect x="232" y="344" width="32" height="8" fill="#b8ddff"/><rect x="264" y="344" width="48" height="8" fill="#E8F0F8"/><rect x="312" y="344" width="56" height="8" fill="#b8ddff"/><rect x="368" y="344" width="48" height="8" fill="#E8F0F8"/><rect x="416" y="344" width="64" height="8" fill="#B8C8D8"/><rect x="0" y="352" width="40" height="8" fill="#bee1ff"/><rect x="40" y="352" width="64" height="8" fill="#D6EEFF"/><rect x="104" y="352" width="48" height="8" fill="#C8D8E8"/><rect x="152" y="352" width="64" height="8" fill="#D6EEFF"/><rect x="216" y="352" width="16" height="8" fill="#C8D8E8"/><rect x="232" y="352" width="24" height="8" fill="#bee1ff"/><rect x="256" y="352" width="64" height="8" fill="#D6EEFF"/><rect x="320" y="352" width="40" height="8" fill="#bee1ff"/><rect x="360" y="352" width="64" height="8" fill="#D6EEFF"/><rect x="424" y="352" width="48" height="8" fill="#B8C8D8"/><rect x="472" y="352" width="8" height="8" fill="#D6EEFF"/><rect x="0" y="360" width="40" height="8" fill="#c4e4ff"/><rect x="40" y="360" width="64" height="8" fill="#D6EEFF"/><rect x="104" y="360" width="48" height="8" fill="#C8D8E8"/><rect x="152" y="360" width="64" height="8" fill="#D6EEFF"/><rect x="216" y="360" width="24" height="8" fill="#C8D8E8"/><rect x="240" y="360" width="16" height="8" fill="#c4e4ff"/><rect x="256" y="360" width="64" height="8" fill="#D6EEFF"/><rect x="320" y="360" width="40" height="8" fill="#c4e4ff"/><rect x="360" y="360" width="64" height="8" fill="#D6EEFF"/><rect x="424" y="360" width="48" height="8" fill="#B8C8D8"/><rect x="472" y="360" width="8" height="8" fill="#D6EEFF"/><rect x="0" y="368" width="48" height="8" fill="#cae7ff"/><rect x="48" y="368" width="48" height="8" fill="#E8F0F8"/><rect x="96" y="368" width="64" height="8" fill="#C8D8E8"/><rect x="160" y="368" width="48" height="8" fill="#E8F0F8"/><rect x="208" y="368" width="40" height="8" fill="#C8D8E8"/><rect x="248" y="368" width="16" height="8" fill="#cae7ff"/><rect x="264" y="368" width="48" height="8" fill="#E8F0F8"/><rect x="312" y="368" width="56" height="8" fill="#cae7ff"/><rect x="368" y="368" width="48" height="8" fill="#E8F0F8"/><rect x="416" y="368" width="64" height="8" fill="#B8C8D8"/><rect x="0" y="376" width="48" height="8" fill="#d0ebff"/><rect x="48" y="376" width="48" height="8" fill="#E8F0F8"/><rect x="96" y="376" width="64" height="8" fill="#C8D8E8"/><rect x="160" y="376" width="48" height="8" fill="#E8F0F8"/><rect x="208" y="376" width="48" height="8" fill="#C8D8E8"/><rect x="256" y="376" width="8" height="8" fill="#d0ebff"/><rect x="264" y="376" width="48" height="8" fill="#E8F0F8"/><rect x="312" y="376" width="56" height="8" fill="#d0ebff"/><rect x="368" y="376" width="48" height="8" fill="#E8F0F8"/><rect x="416" y="376" width="64" height="8" fill="#B8C8D8"/><rect x="0" y="384" width="64" height="8" fill="#d6eeff"/><rect x="64" y="384" width="16" height="8" fill="#5C4033"/><rect x="80" y="384" width="96" height="8" fill="#fff"/><rect x="176" y="384" width="16" height="8" fill="#5C4033"/><rect x="192" y="384" width="72" height="8" fill="#fff"/><rect x="264" y="384" width="16" height="8" fill="#d6eeff"/><rect x="280" y="384" width="16" height="8" fill="#5C4033"/><rect x="296" y="384" width="72" height="8" fill="#d6eeff"/><rect x="368" y="384" width="16" height="8" fill="#B8C8D8"/><rect x="384" y="384" width="16" height="8" fill="#5C4033"/><rect x="400" y="384" width="80" height="8" fill="#B8C8D8"/><rect x="0" y="392" width="56" height="8" fill="#d8eefe"/><rect x="56" y="392" width="8" height="8" fill="#fff"/><rect x="64" y="392" width="16" height="8" fill="#5C4033"/><rect x="80" y="392" width="96" height="8" fill="#fff"/><rect x="176" y="392" width="16" height="8" fill="#5C4033"/><rect x="192" y="392" width="80" height="8" fill="#fff"/><rect x="272" y="392" width="8" height="8" fill="#d8eefe"/><rect x="280" y="392" width="16" height="8" fill="#5C4033"/><rect x="296" y="392" width="64" height="8" fill="#d8eefe"/><rect x="360" y="392" width="24" height="8" fill="#F0F8FF"/><rect x="384" y="392" width="16" height="8" fill="#5C4033"/><rect x="400" y="392" width="80" height="8" fill="#F0F8FF"/><rect x="0" y="400" width="48" height="8" fill="#d9eefe"/><rect x="48" y="400" width="16" height="8" fill="#fff"/><rect x="64" y="400" width="16" height="8" fill="#5C4033"/><rect x="80" y="400" width="96" height="8" fill="#fff"/><rect x="176" y="400" width="16" height="8" fill="#5C4033"/><rect x="192" y="400" width="88" height="8" fill="#fff"/><rect x="280" y="400" width="16" height="8" fill="#5C4033"/><rect x="296" y="400" width="56" height="8" fill="#d9eefe"/><rect x="352" y="400" width="32" height="8" fill="#F0F8FF"/><rect x="384" y="400" width="16" height="8" fill="#5C4033"/><rect x="400" y="400" width="80" height="8" fill="#F0F8FF"/><rect x="0" y="408" width="40" height="8" fill="#dbeffd"/><rect x="40" y="408" width="24" height="8" fill="#fff"/><rect x="64" y="408" width="16" height="8" fill="#5C4033"/><rect x="80" y="408" width="96" height="8" fill="#fff"/><rect x="176" y="408" width="16" height="8" fill="#5C4033"/><rect x="192" y="408" width="88" height="8" fill="#fff"/><rect x="280" y="408" width="16" height="8" fill="#5C4033"/><rect x="296" y="408" width="48" height="8" fill="#dbeffd"/><rect x="344" y="408" width="40" height="8" fill="#F0F8FF"/><rect x="384" y="408" width="16" height="8" fill="#5C4033"/><rect x="400" y="408" width="80" height="8" fill="#F0F8FF"/><rect x="0" y="416" width="480" height="8" fill="#E8F0F8"/><rect x="0" y="424" width="480" height="8" fill="#E8F0F8"/><rect x="0" y="432" width="480" height="8" fill="#E8F0F8"/><rect x="0" y="440" width="480" height="8" fill="#D0DEE8"/><rect x="0" y="448" width="480" height="8" fill="#D0DEE8"/><rect x="0" y="456" width="480" height="8" fill="#D0DEE8"/><rect x="0" y="464" width="480" height="8" fill="#e5f0f9"/><rect x="0" y="472" width="480" height="8" fill="#e7f0f9"/><rect x="0" y="480" width="480" height="8" fill="#e8f0f8"/><rect x="0" y="488" width="480" height="8" fill="#e6eef6"/><rect x="0" y="496" width="480" height="8" fill="#e3ecf5"/><rect x="0" y="504" width="480" height="8" fill="#e1eaf3"/><rect x="0" y="512" width="480" height="8" fill="#dee8f2"/><rect x="0" y="520" width="480" height="8" fill="#dce6f0"/><rect x="0" y="528" width="480" height="8" fill="#dae4ee"/><rect x="0" y="536" width="480" height="8" fill="#d7e2ed"/><rect x="0" y="544" width="480" height="8" fill="#d5e0eb"/><rect x="0" y="552" width="480" height="8" fill="#d2deea"/><rect x="0" y="560" width="480" height="8" fill="#d0dce8"/><rect x="0" y="568" width="480" height="8" fill="#cedae6"/><rect x="0" y="576" width="480" height="8" fill="#cbd8e5"/><rect x="0" y="584" width="480" height="8" fill="#c9d6e3"/><rect x="0" y="592" width="480" height="8" fill="#c6d4e2"/><rect x="0" y="600" width="480" height="8" fill="#c4d2e0"/><rect x="0" y="608" width="480" height="8" fill="#c2d0de"/><rect x="0" y="616" width="480" height="8" fill="#bfcedd"/><rect x="0" y="624" width="480" height="8" fill="#bdccdb"/><rect x="0" y="632" width="480" height="8" fill="#bacada"/>
<rect x="10" y="-10" width="3.3175998219000187" height="3.3175998219000187" fill="#fff" opacity=".7" style="animation:floatYdown 5.779493020628459s linear 0s infinite"/><rect x="26" y="-10" width="6.312700758684521" height="6.312700758684521" fill="#fff" opacity=".7" style="animation:floatYdown 6.310753205762862s linear 0.4s infinite"/><rect x="42" y="-10" width="3.209198670918613" height="3.209198670918613" fill="#fff" opacity=".7" style="animation:floatYdown 6.066812144750829s linear 0.8s infinite"/><rect x="58" y="-10" width="4.751280640066862" height="4.751280640066862" fill="#fff" opacity=".7" style="animation:floatYdown 6.426583926435738s linear 1.2000000000000002s infinite"/><rect x="74" y="-10" width="5.075097998490745" height="5.075097998490745" fill="#fff" opacity=".7" style="animation:floatYdown 4.353520022501116s linear 1.6s infinite"/><rect x="90" y="-10" width="6.5141621329630315" height="6.5141621329630315" fill="#fff" opacity=".7" style="animation:floatYdown 4.762969681991644s linear 2s infinite"/><rect x="106" y="-10" width="6.736995881469713" height="6.736995881469713" fill="#fff" opacity=".7" style="animation:floatYdown 5.274637508976866s linear 2.4000000000000004s infinite"/><rect x="122" y="-10" width="3.733179943041005" height="3.733179943041005" fill="#fff" opacity=".7" style="animation:floatYdown 4.110269382398986s linear 2.8000000000000003s infinite"/><rect x="138" y="-10" width="3.8976740440847992" height="3.8976740440847992" fill="#fff" opacity=".7" style="animation:floatYdown 6.96660644556406s linear 3.2s infinite"/><rect x="154" y="-10" width="3.9761928340652677" height="3.9761928340652677" fill="#fff" opacity=".7" style="animation:floatYdown 6.321329596821576s linear 3.6s infinite"/><rect x="170" y="-10" width="3.855493606510985" height="3.855493606510985" fill="#fff" opacity=".7" style="animation:floatYdown 4.468992047595665s linear 4s infinite"/><rect x="186" y="-10" width="3.489291909300374" height="3.489291909300374" fill="#fff" opacity=".7" style="animation:floatYdown 5.968940155702723s linear 4.4s infinite"/><rect x="202" y="-10" width="4.216475886961558" height="4.216475886961558" fill="#fff" opacity=".7" style="animation:floatYdown 5.550609421480139s linear 4.800000000000001s infinite"/><rect x="218" y="-10" width="4.816407411887827" height="4.816407411887827" fill="#fff" opacity=".7" style="animation:floatYdown 5.011569246438884s linear 5.2s infinite"/><rect x="234" y="-10" width="5.820206904284459" height="5.820206904284459" fill="#fff" opacity=".7" style="animation:floatYdown 4.896713411328253s linear 5.6000000000000005s infinite"/><rect x="250" y="-10" width="6.79980903595551" height="6.79980903595551" fill="#fff" opacity=".7" style="animation:floatYdown 5.0518059598664316s linear 6s infinite"/><rect x="266" y="-10" width="5.67478635992763" height="5.67478635992763" fill="#fff" opacity=".7" style="animation:floatYdown 6.348607797091965s linear 6.4s infinite"/><rect x="282" y="-10" width="3.0162502126067685" height="3.0162502126067685" fill="#fff" opacity=".7" style="animation:floatYdown 5.503835160872903s linear 6.800000000000001s infinite"/><rect x="298" y="-10" width="6.423713045330714" height="6.423713045330714" fill="#fff" opacity=".7" style="animation:floatYdown 5.347963433300084s linear 7.2s infinite"/><rect x="314" y="-10" width="6.132025355602384" height="6.132025355602384" fill="#fff" opacity=".7" style="animation:floatYdown 4.544772931921745s linear 7.6000000000000005s infinite"/><rect x="330" y="-10" width="5.2463721249010655" height="5.2463721249010655" fill="#fff" opacity=".7" style="animation:floatYdown 5.650359064606787s linear 8s infinite"/><rect x="346" y="-10" width="5.104536761194479" height="5.104536761194479" fill="#fff" opacity=".7" style="animation:floatYdown 5.349378742569784s linear 8.4s infinite"/><rect x="362" y="-10" width="3.0062926602031212" height="3.0062926602031212" fill="#fff" opacity=".7" style="animation:floatYdown 4.526573008127996s linear 8.8s infinite"/><rect x="378" y="-10" width="5.369499496510635" height="5.369499496510635" fill="#fff" opacity=".7" style="animation:floatYdown 5.437985416877078s linear 9.200000000000001s infinite"/><rect x="394" y="-10" width="6.179715212048887" height="6.179715212048887" fill="#fff" opacity=".7" style="animation:floatYdown 4.772659543435074s linear 9.600000000000001s infinite"/><rect x="410" y="-10" width="5.134447639534317" height="5.134447639534317" fill="#fff" opacity=".7" style="animation:floatYdown 5.145532818073114s linear 10s infinite"/><rect x="426" y="-10" width="5.7850684285259995" height="5.7850684285259995" fill="#fff" opacity=".7" style="animation:floatYdown 6.737103463325747s linear 10.4s infinite"/><rect x="442" y="-10" width="6.849241436392973" height="6.849241436392973" fill="#fff" opacity=".7" style="animation:floatYdown 4.422691285258366s linear 10.8s infinite"/><rect x="458" y="-10" width="4.848636917211552" height="4.848636917211552" fill="#fff" opacity=".7" style="animation:floatYdown 4.3249602754800245s linear 11.200000000000001s infinite"/><rect x="474" y="-10" width="5.390607908613687" height="5.390607908613687" fill="#fff" opacity=".7" style="animation:floatYdown 6.326821566643739s linear 11.600000000000001s infinite"/><rect x="0" y="0" width="480" height="80" fill="#8cf" opacity=".08" style="animation:fadeInOut 6s ease-in-out infinite"/><rect x="96" y="10" width="288" height="40" fill="#fcf" opacity=".06" style="animation:fadeInOut 8s ease-in-out 2s infinite"/><rect x="20" y="5" width="3" height="3" fill="#ff8" style="animation:pulse 1.8s ease-in-out 0s infinite"/><rect x="100" y="17" width="3" height="3" fill="#ff8" style="animation:pulse 2.1s ease-in-out 0.5s infinite"/><rect x="180" y="29" width="3" height="3" fill="#ff8" style="animation:pulse 2.4s ease-in-out 1s infinite"/><rect x="260" y="41" width="3" height="3" fill="#ff8" style="animation:pulse 2.7s ease-in-out 1.5s infinite"/><rect x="340" y="53" width="3" height="3" fill="#ff8" style="animation:pulse 3s ease-in-out 2s infinite"/><rect x="420" y="65" width="3" height="3" fill="#ff8" style="animation:pulse 3.3s ease-in-out 2.5s infinite"/>
</svg>