<svg xmlns="http://www.w3.org/2000/svg" viewBox="0 0 480 640" width="480" height="640" shape-rendering="crispEdges">
<style>
@keyframes floatX{0%{transform:translateX(0)}100%{transform:translateX(480px)}}
@keyframes floatXneg{0%{transform:translateX(480px)}100%{transform:translateX(-80px)}}
@keyframes floatYup{0%{transform:translateY(0);opacity:.8}100%{transform:translateY(-640px);opacity:0}}
@keyframes floatYdown{0%{transform:translateY(-40px)}100%{transform:translateY(680px)}}
@keyframes fadeInOut{0%,100%{opacity:.15}50%{opacity:.7}}
@keyframes pulse{0%,100%{opacity:.6;transform:scale(1)}50%{opacity:1;transform:scale(1.15)}}
@keyframes sway{0%,100%{transform:rotate(-3deg)}50%{transform:rotate(3deg)}}
@keyframes bob{0%,100%{transform:translateY(0)}50%{transform:translateY(-6px)}}
@keyframes flash{0%,90%,100%{opacity:0}92%,96%{opacity:.8}}
@keyframes wave{0%{d:path('M0,0 Q60,-8 120,0 Q180,8 240,0 Q300,-8 360,0 Q420,8 480,0 L480,20 L0,20 Z')}50%{d:path('M0,0 Q60,8 120,0 Q180,-8 240,0 Q300,8 360,0 Q420,-8 480,0 L480,20 L0,20 Z')}100%{d:path('M0,0 Q60,-8 120,0 Q180,8 240,0 Q300,-8 360,0 Q420,8 480,0 L480,20 L0,20 Z')}}
</style>
<rect x="0" y="0" width="480" height="8" fill="#050010"/><rect x="0" y="8" width="480" height="8" fill="#060013"/><rect x="0" y="16" width="480" height="8" fill="#070015"/><rect x="0" y="24" width="480" height="8" fill="#080018"/><rect x="0" y="32" width="480" height="8" fill="#09001b"/><rect x="0" y="40" width="480" height="8" fill="#09001d"/><rect x="0" y="48" width="480" height="8" fill="#0a0020"/><rect x="0" y="56" width="480" height="8" fill="#0b0023"/><rect x="0" y="64" width="480" height="8" fill="#0c0025"/><rect x="0" y="72" width="480" height="8" fill="#0d0028"/><rect x="0" y="80" width="480" height="8" fill="#0e002b"/><rect x="0" y="88" width="480" height="8" fill="#0f002d"/><rect x="0" y="96" width="480" height="8" fill="#100030"/><rect x="0" y="104" width="480" height="8" fill="#100033"/><rect x="0" y="112" width="480" height="8" fill="#110035"/><rect x="0" y="120" width="480" height="8" fill="#120038"/><rect x="0" y="128" width="480" height="8" fill="#13003b"/><rect x="0" y="136" width="480" height="8" fill="#14003d"/><rect x="0" y="144" width="480" height="8" fill="#150040"/><rect x="0" y="152" width="480" height="8" fill="#160043"/><rect x="0" y="160" width="480" height="8" fill="#170045"/><rect x="0" y="168" width="480" height="8" fill="#170048"/><rect x="0" y="176" width="480" height="8" fill="#18004b"/><rect x="0" y="184" width="480" height="8" fill="#19004d"/><rect x="0" y="192" width="480" height="8" fill="#1a0050"/><rect x="0" y="200" width="480" height="8" fill="#1b0052"/><rect x="0" y="208" width="480" height="8" fill="#1d0054"/><rect x="0" y="216" width="480" height="8" fill="#1e0056"/><rect x="0" y="224" width="480" height="8" fill="#200058"/><rect x="0" y="232" width="480" height="8" fill="#21005a"/><rect x="0" y="240" width="480" height="8" fill="#23005c"/><rect x="0" y="248" width="120" height="8" fill="#24005e"/><rect x="120" y="248" width="8" height="8" fill="#0a0015"/><rect x="128" y="248" width="8" height="8" fill="#24005e"/><rect x="136" y="248" width="8" height="8" fill="#0a0015"/><rect x="144" y="248" width="8" height="8" fill="#24005e"/><rect x="152" y="248" width="8" height="8" fill="#0a0015"/><rect x="160" y="248" width="136" height="8" fill="#24005e"/><rect x="296" y="248" width="16" height="8" fill="#0a0015"/><rect x="312" y="248" width="160" height="8" fill="#24005e"/><rect x="472" y="248" width="8" height="8" fill="#0a0015"/><rect x="0" y="256" width="120" height="8" fill="#260060"/><rect x="120" y="256" width="8" height="8" fill="#0a0015"/><rect x="128" y="256" width="8" height="8" fill="#260060"/><rect x="136" y="256" width="8" height="8" fill="#0a0015"/><rect x="144" y="256" width="8" height="8" fill="#260060"/><rect x="152" y="256" width="8" height="8" fill="#0a0015"/><rect x="160" y="256" width="136" height="8" fill="#260060"/><rect x="296" y="256" width="16" height="8" fill="#0a0015"/><rect x="312" y="256" width="160" height="8" fill="#260060"/><rect x="472" y="256" width="8" height="8" fill="#0a0015"/><rect x="0" y="264" width="120" height="8" fill="#270062"/><rect x="120" y="264" width="48" height="8" fill="#0a0015"/><rect x="168" y="264" width="120" height="8" fill="#270062"/><rect x="288" y="264" width="32" height="8" fill="#0a0015"/><rect x="320" y="264" width="152" height="8" fill="#270062"/><rect x="472" y="264" width="8" height="8" fill="#0a0015"/><rect x="0" y="272" width="120" height="8" fill="#290064"/><rect x="120" y="272" width="48" height="8" fill="#0a0015"/><rect x="168" y="272" width="120" height="8" fill="#290064"/><rect x="288" y="272" width="32" height="8" fill="#0a0015"/><rect x="320" y="272" width="152" height="8" fill="#290064"/><rect x="472" y="272" width="8" height="8" fill="#0a0015"/><rect x="0" y="280" width="120" height="8" fill="#2a0066"/><rect x="120" y="280" width="48" height="8" fill="#0a0015"/><rect x="168" y="280" width="128" height="8" fill="#2a0066"/><rect x="296" y="280" width="16" height="8" fill="#0a0015"/><rect x="312" y="280" width="160" height="8" fill="#2a0066"/><rect x="472" y="280" width="8" height="8" fill="#0a0015"/><rect x="0" y="288" width="120" height="8" fill="#2c0068"/><rect x="120" y="288" width="48" height="8" fill="#0a0015"/><rect x="168" y="288" width="128" height="8" fill="#2c0068"/><rect x="296" y="288" width="16" height="8" fill="#0a0015"/><rect x="312" y="288" width="160" height="8" fill="#2c0068"/><rect x="472" y="288" width="8" height="8" fill="#0a0015"/><rect x="0" y="296" width="120" height="8" fill="#2d006a"/><rect x="120" y="296" width="16" height="8" fill="#0a0015"/><rect x="136" y="296" width="16" height="8" fill="#FFCC00"/><rect x="152" y="296" width="16" height="8" fill="#0a0015"/><rect x="168" y="296" width="128" height="8" fill="#2d006a"/><rect x="296" y="296" width="16" height="8" fill="#0a0015"/><rect x="312" y="296" width="160" height="8" fill="#2d006a"/><rect x="472" y="296" width="8" height="8" fill="#0a0015"/><rect x="0" y="304" width="120" height="8" fill="#2e006c"/><rect x="120" y="304" width="16" height="8" fill="#0a0015"/><rect x="136" y="304" width="16" height="8" fill="#FFCC00"/><rect x="152" y="304" width="16" height="8" fill="#0a0015"/><rect x="168" y="304" width="128" height="8" fill="#2e006c"/><rect x="296" y="304" width="16" height="8" fill="#0a0015"/><rect x="312" y="304" width="160" height="8" fill="#2e006c"/><rect x="472" y="304" width="8" height="8" fill="#0a0015"/><rect x="0" y="312" width="120" height="8" fill="#30006e"/><rect x="120" y="312" width="48" height="8" fill="#0a0015"/><rect x="168" y="312" width="128" height="8" fill="#30006e"/><rect x="296" y="312" width="16" height="8" fill="#0a0015"/><rect x="312" y="312" width="160" height="8" fill="#30006e"/><rect x="472" y="312" width="8" height="8" fill="#0a0015"/><rect x="0" y="320" width="120" height="8" fill="#310070"/><rect x="120" y="320" width="48" height="8" fill="#0a0015"/><rect x="168" y="320" width="128" height="8" fill="#310070"/><rect x="296" y="320" width="16" height="8" fill="#0a0015"/><rect x="312" y="320" width="160" height="8" fill="#310070"/><rect x="472" y="320" width="8" height="8" fill="#0a0015"/><rect x="0" y="328" width="120" height="8" fill="#330072"/><rect x="120" y="328" width="48" height="8" fill="#0a0015"/><rect x="168" y="328" width="128" height="8" fill="#330072"/><rect x="296" y="328" width="16" height="8" fill="#0a0015"/><rect x="312" y="328" width="160" height="8" fill="#330072"/><rect x="472" y="328" width="8" height="8" fill="#0a0015"/><rect x="0" y="336" width="120" height="8" fill="#340074"/><rect x="120" y="336" width="48" height="8" fill="#0a0015"/><rect x="168" y="336" width="128" height="8" fill="#340074"/><rect x="296" y="336" width="16" height="8" fill="#0a0015"/><rect x="312" y="336" width="160" height="8" fill="#340074"/><rect x="472" y="336" width="8" height="8" fill="#0a0015"/><rect x="0" y="344" width="120" height="8" fill="#360076"/><rect x="120" y="344" width="360" height="8" fill="#0a0015"/><rect x="0" y="352" width="120" height="8" fill="#370078"/><rect x="120" y="352" width="56" height="8" fill="#0a0015"/><rect x="176" y="352" width="16" height="8" fill="#FFCC00"/><rect x="192" y="352" width="48" height="8" fill="#0a0015"/><rect x="240" y="352" width="16" height="8" fill="#FFCC00"/><rect x="256" y="352" width="64" height="8" fill="#0a0015"/><rect x="320" y="352" width="8" height="8" fill="#1a0020"/><rect x="328" y="352" width="56" height="8" fill="#0a0015"/><rect x="384" y="352" width="16" height="8" fill="#FFCC00"/><rect x="400" y="352" width="48" height="8" fill="#0a0015"/><rect x="448" y="352" width="16" height="8" fill="#FFCC00"/><rect x="464" y="352" width="16" height="8" fill="#0a0015"/><rect x="0" y="360" width="120" height="8" fill="#39007a"/><rect x="120" y="360" width="56" height="8" fill="#0a0015"/><rect x="176" y="360" width="16" height="8" fill="#FFCC00"/><rect x="192" y="360" width="48" height="8" fill="#0a0015"/><rect x="240" y="360" width="16" height="8" fill="#FFCC00"/><rect x="256" y="360" width="48" height="8" fill="#0a0015"/><rect x="304" y="360" width="40" height="8" fill="#1a0020"/><rect x="344" y="360" width="40" height="8" fill="#0a0015"/><rect x="384" y="360" width="16" height="8" fill="#FFCC00"/><rect x="400" y="360" width="48" height="8" fill="#0a0015"/><rect x="448" y="360" width="16" height="8" fill="#FFCC00"/><rect x="464" y="360" width="16" height="8" fill="#0a0015"/><rect x="0" y="368" width="120" height="8" fill="#3a007c"/><rect x="120" y="368" width="176" height="8" fill="#0a0015"/><rect x="296" y="368" width="56" height="8" fill="#1a0020"/><rect x="352" y="368" width="128" height="8" fill="#0a0015"/><rect x="0" y="376" width="120" height="8" fill="#3c007e"/><rect x="120" y="376" width="176" height="8" fill="#0a0015"/><rect x="296" y="376" width="56" height="8" fill="#1a0020"/><rect x="352" y="376" width="128" height="8" fill="#0a0015"/><rect x="0" y="384" width="120" height="8" fill="#3d0080"/><rect x="120" y="384" width="168" height="8" fill="#0a0015"/><rect x="288" y="384" width="72" height="8" fill="#1a0020"/><rect x="360" y="384" width="120" height="8" fill="#0a0015"/><rect x="0" y="392" width="120" height="8" fill="#3b007b"/><rect x="120" y="392" width="168" height="8" fill="#0a0015"/><rect x="288" y="392" width="64" height="8" fill="#1a0020"/><rect x="352" y="392" width="128" height="8" fill="#0a0015"/><rect x="0" y="400" width="120" height="8" fill="#390076"/><rect x="120" y="400" width="168" height="8" fill="#0a0015"/><rect x="288" y="400" width="64" height="8" fill="#1a0020"/><rect x="352" y="400" width="128" height="8" fill="#0a0015"/><rect x="0" y="408" width="120" height="8" fill="#360071"/><rect x="120" y="408" width="168" height="8" fill="#0a0015"/><rect x="288" y="408" width="64" height="8" fill="#1a0020"/><rect x="352" y="408" width="128" height="8" fill="#0a0015"/><rect x="0" y="416" width="120" height="8" fill="#34006c"/><rect x="120" y="416" width="168" height="8" fill="#0a0015"/><rect x="288" y="416" width="64" height="8" fill="#1a0020"/><rect x="352" y="416" width="128" height="8" fill="#0a0015"/><rect x="0" y="424" width="120" height="8" fill="#320067"/><rect x="120" y="424" width="168" height="8" fill="#0a0015"/><rect x="288" y="424" width="64" height="8" fill="#1a0020"/><rect x="352" y="424" width="128" height="8" fill="#0a0015"/><rect x="0" y="432" width="120" height="8" fill="#300062"/><rect x="120" y="432" width="168" height="8" fill="#0a0015"/><rect x="288" y="432" width="64" height="8" fill="#1a0020"/><rect x="352" y="432" width="128" height="8" fill="#0a0015"/><rect x="0" y="440" width="480" height="8" fill="#0a0015"/><rect x="0" y="448" width="480" height="8" fill="#0a0015"/><rect x="0" y="456" width="480" height="8" fill="#0a0015"/><rect x="0" y="464" width="480" height="8" fill="#0a0015"/><rect x="0" y="472" width="480" height="8" fill="#0a0015"/><rect x="0" y="480" width="480" height="8" fill="#0a0015"/><rect x="0" y="488" width="480" height="8" fill="#0a0015"/><rect x="0" y="496" width="480" height="8" fill="#0a0015"/><rect x="0" y="504" width="480" height="8" fill="#0a0015"/><rect x="0" y="512" width="480" height="8" fill="#0a0015"/><rect x="0" y="520" width="480" height="8" fill="#0a0015"/><rect x="0" y="528" width="480" height="8" fill="#0a0015"/><rect x="0" y="536" width="480" height="8" fill="#0a0015"/><rect x="0" y="544" width="480" height="8" fill="#0a0015"/><rect x="0" y="552" width="480" height="8" fill="#0a0015"/><rect x="0" y="560" width="480" height="8" fill="#0a0015"/><rect x="0" y="568" width="480" height="8" fill="#0a0015"/><rect x="0" y="576" width="480" height="8" fill="#0a0015"/><rect x="0" y="584" width="480" height="8" fill="#0a0015"/><rect x="0" y="592" width="480" height="8" fill="#0a0015"/><rect x="0" y="600" width="480" height="8" fill="#0a0015"/><rect x="0" y="608" width="480" height="8" fill="#0a0015"/><rect x="0" y="616" width="480" height="8" fill="#0a0015"/><rect x="0" y="624" width="480" height="8" fill="#0a0015"/><rect x="0" y="632" width="480" height="8" fill="#0a0015"/>
<circle cx="544" cy="80" r="48" fill="#e8e8f0"/><circle cx="576" cy="72" r="40" fill="#1a0050"/><rect x="176" y="144" width="2" height="2" fill="#fff" style="animation:pulse 2.1982432770903784s ease-in-out 3.07423551517208s infinite"/><rect x="304" y="312" width="2" height="2" fill="#ccf" style="animation:pulse 4.284857954463205s ease-in-out 1.7914423991785915s infinite"/><rect x="472" y="80" width="2" height="2" fill="#fff" style="animation:pulse 2.494451122530999s ease-in-out 3.002138871527382s infinite"/><rect x="344" y="8" width="2" height="2" fill="#fff" style="animation:pulse 2.9846047577874346s ease-in-out 1.068969345676512s infinite"/><rect x="160" y="128" width="2" height="2" fill="#fff" style="animation:pulse 3.9482389355927596s ease-in-out 2.2986049255294s infinite"/><rect x="456" y="248" width="2" height="2" fill="#fff" style="animation:pulse 2.9774463067163888s ease-in-out 1.7042969550665243s infinite"/><rect x="192" y="288" width="2" height="2" fill="#fff" style="animation:pulse 1.9962888282815923s ease-in-out 3.0721427957293685s infinite"/><rect x="240" y="152" width="2" height="2" fill="#fff" style="animation:pulse 4.127623238860139s ease-in-out 3.0871838155600613s infinite"/><rect x="64" y="96" width="2" height="2" fill="#ccf" style="animation:pulse 3.427559490928283s ease-in-out 1.1691323476518551s infinite"/><rect x="272" y="160" width="2" height="2" fill="#ccf" style="animation:pulse 3.5508733079877164s ease-in-out 0.051246831144666216s infinite"/><rect x="56" y="184" width="2" height="2" fill="#ccf" style="animation:pulse 3.6287582025613467s ease-in-out 1.1844819516283063s infinite"/><rect x="112" y="48" width="2" height="2" fill="#ccf" style="animation:pulse 1.7259049613403628s ease-in-out 4.313502894789954s infinite"/><rect x="472" y="296" width="2" height="2" fill="#ccf" style="animation:pulse 2.1783252134340034s ease-in-out 2.864841612388113s infinite"/><rect x="72" y="64" width="2" height="2" fill="#ccf" style="animation:pulse 3.505555927174383s ease-in-out 1.378175403175173s infinite"/><rect x="240" y="304" width="2" height="2" fill="#fff" style="animation:pulse 2.2997393183179886s ease-in-out 0.22988903205644673s infinite"/><rect x="256" y="312" width="2" height="2" fill="#fff" style="animation:pulse 1.6101294684307015s ease-in-out 0.20660259117170066s infinite"/><rect x="352" y="136" width="2" height="2" fill="#ccf" style="animation:pulse 2.4075109026342796s ease-in-out 1.615348072566405s infinite"/><rect x="216" y="264" width="2" height="2" fill="#fff" style="animation:pulse 1.5238888646992068s ease-in-out 2.324992855983152s infinite"/><rect x="168" y="48" width="2" height="2" fill="#ccf" style="animation:pulse 3.0225389875001967s ease-in-out 0.6313488492931724s infinite"/><rect x="296" y="280" width="2" height="2" fill="#fff" style="animation:pulse 3.3940299989233114s ease-in-out 3.141167756852599s infinite"/><rect x="288" y="88" width="2" height="2" fill="#fff" style="animation:pulse 3.100342239183994s ease-in-out 2.9774313740384537s infinite"/><rect x="8" y="24" width="2" height="2" fill="#fff" style="animation:pulse 2.982185824427307s ease-in-out 3.3775396998177443s infinite"/><rect x="424" y="304" width="2" height="2" fill="#fff" style="animation:pulse 2.8914399617722775s ease-in-out 2.1182952103308677s infinite"/><rect x="72" y="192" width="2" height="2" fill="#fff" style="animation:pulse 2.596187811639488s ease-in-out 0.9818326848855291s infinite"/><rect x="336" y="184" width="2" height="2" fill="#fff" style="animation:pulse 2.163798108791058s ease-in-out 1.8673198075951953s infinite"/><rect x="112" y="96" width="2" height="2" fill="#fff" style="animation:pulse 3.8875195109649314s ease-in-out 3.144936865397958s infinite"/><rect x="336" y="192" width="2" height="2" fill="#fff" style="animation:pulse 3.2481899989766703s ease-in-out 3.342421491811767s infinite"/><rect x="64" y="304" width="2" height="2" fill="#fff" style="animation:pulse 2.209860582934404s ease-in-out 3.068147551920426s infinite"/><rect x="144" y="288" width="2" height="2" fill="#fff" style="animation:pulse 4.139693035464822s ease-in-out 4.869580659424221s infinite"/><rect x="224" y="112" width="2" height="2" fill="#fff" style="animation:pulse 2.510990220930562s ease-in-out 1.0694217053456039s infinite"/><rect x="64" y="40" width="2" height="2" fill="#ccf" style="animation:pulse 1.6597721949141053s ease-in-out 1.6083324647625679s infinite"/><rect x="472" y="56" width="2" height="2" fill="#ccf" style="animation:pulse 3.804418382948618s ease-in-out 2.4416909332333847s infinite"/><rect x="376" y="104" width="2" height="2" fill="#fff" style="animation:pulse 4.3411131616384s ease-in-out 1.7378319797652508s infinite"/><rect x="376" y="56" width="2" height="2" fill="#fff" style="animation:pulse 1.9027943584381846s ease-in-out 0.044005273288465485s infinite"/><rect x="128" y="80" width="2" height="2" fill="#fff" style="animation:pulse 3.9593247229916395s ease-in-out 3.784163506243609s infinite"/><rect x="448" y="176" width="2" height="2" fill="#ccf" style="animation:pulse 1.7797708470459765s ease-in-out 1.6552470428986188s infinite"/><rect x="360" y="104" width="2" height="2" fill="#fff" style="animation:pulse 4.353552183100475s ease-in-out 4.026236311364647s infinite"/><rect x="32" y="248" width="2" height="2" fill="#ccf" style="animation:pulse 4.144636355601515s ease-in-out 0.4769676300689957s infinite"/><rect x="72" y="128" width="2" height="2" fill="#ccf" style="animation:pulse 3.197015717272076s ease-in-out 1.4820247859808056s infinite"/><rect x="432" y="144" width="2" height="2" fill="#ccf" style="animation:pulse 3.602873180616753s ease-in-out 4.686453974882549s infinite"/><g style="animation:floatX 12s linear 0s infinite" transform="translate(-30,80)">
<rect x="4" y="0" width="4" height="3" fill="#222"/>
<rect x="0" y="-3" width="4" height="4" fill="#222"/>
<rect x="8" y="-3" width="4" height="4" fill="#222"/>
<rect x="3" y="-4" width="2" height="2" fill="#222"/>
<rect x="7" y="-4" width="2" height="2" fill="#222"/>
</g><g style="animation:floatX 14s linear 3s infinite" transform="translate(-30,150)">
<rect x="4" y="0" width="4" height="3" fill="#222"/>
<rect x="0" y="-3" width="4" height="4" fill="#222"/>
<rect x="8" y="-3" width="4" height="4" fill="#222"/>
<rect x="3" y="-4" width="2" height="2" fill="#222"/>
<rect x="7" y="-4" width="2" height="2" fill="#222"/>
</g><g style="animation:floatX 16s linear 6s infinite" transform="translate(-30,220)">
<rect x="4" y="0" width="4" height="3" fill="#222"/>
<rect x="0" y="-3" width="4" height="4" fill="#222"/>
<rect x="8" y="-3" width="4" height="4" fill="#222"/>
<rect x="3" y="-4" width="2" height="2" fill="#222"/>
<rect x="7" y="-4" width="2" height="2" fill="#222"/>
</g><g style="animation:floatX 18s linear 9s infinite" transform="translate(-30,290)">
<rect x="4" y="0" width="4" height="3" fill="#222"/>
<rect x="0" y="-3" width="4" height="4" fill="#222"/>
<rect x="8" y="-3" width="4" height="4" fill="#222"/>
<rect x="3" y="-4" width="2" height="2" fill="#222"/>
<rect x="7" y="-4" width="2" height="2" fill="#222"/>
</g><g style="animation:flash 8s ease 3s infinite" transform="translate(180,0)">
<rect x="0" y="20" width="4" height="16" fill="#ff0" opacity=".7"/>
<rect x="4" y="36" width="4" height="12" fill="#ff0" opacity=".5"/>
<rect x="-4" y="48" width="4" height="10" fill="#ff0" opacity=".3"/>
</g><g style="animation:flash 10s ease 5s infinite" transform="translate(320,0)">
<rect x="0" y="20" width="4" height="16" fill="#ff0" opacity=".7"/>
<rect x="4" y="36" width="4" height="12" fill="#ff0" opacity=".5"/>
<rect x="-4" y="48" width="4" height="10" fill="#ff0" opacity=".3"/>
</g>
</svg>