<svg xmlns="http://www.w3.org/2000/svg" viewBox="0 0 480 640" width="480" height="640" shape-rendering="crispEdges">
<style>
@keyframes floatX{0%{transform:translateX(0)}100%{transform:translateX(480px)}}
@keyframes floatXneg{0%{transform:translateX(480px)}100%{transform:translateX(-80px)}}
@keyframes floatYup{0%{transform:translateY(0);opacity:.8}100%{transform:translateY(-640px);opacity:0}}
@keyframes floatYdown{0%{transform:translateY(-40px)}100%{transform:translateY(680px)}}
@keyframes fadeInOut{0%,100%{opacity:.15}50%{opacity:.7}}
@keyframes pulse{0%,100%{opacity:.6;transform:scale(1)}50%{opacity:1;transform:scale(1.15)}}
@keyframes sway{0%,100%{transform:rotate(-3deg)}50%{transform:rotate(3deg)}}
@keyframes bob{0%,100%{transform:translateY(0)}50%{transform:translateY(-6px)}}
@keyframes flash{0%,90%,100%{opacity:0}92%,96%{opacity:.8}}
@keyframes wave{0%{d:path('M0,0 Q60,-8 120,0 Q180,8 240,0 Q300,-8 360,0 Q420,8 480,0 L480,20 L0,20 Z')}50%{d:path('M0,0 Q60,8 120,0 Q180,-8 240,0 Q300,8 360,0 Q420,-8 480,0 L480,20 L0,20 Z')}100%{d:path('M0,0 Q60,-8 120,0 Q180,8 240,0 Q300,-8 360,0 Q420,8 480,0 L480,20 L0,20 Z')}}
</style>
<rect x="0" y="0" width="480" height="8" fill="#1a0a00"/><rect x="0" y="8" width="480" height="8" fill="#1c0b00"/><rect x="0" y="16" width="480" height="8" fill="#1e0b00"/><rect x="0" y="24" width="480" height="8" fill="#210c00"/><rect x="0" y="32" width="480" height="8" fill="#230d00"/><rect x="0" y="40" width="480" height="8" fill="#250d00"/><rect x="0" y="48" width="480" height="8" fill="#270e00"/><rect x="0" y="56" width="480" height="8" fill="#290f00"/><rect x="0" y="64" width="480" height="8" fill="#2c1000"/><rect x="0" y="72" width="480" height="8" fill="#2e1000"/><rect x="0" y="80" width="480" height="8" fill="#301100"/><rect x="0" y="88" width="480" height="8" fill="#321200"/><rect x="0" y="96" width="480" height="8" fill="#341200"/><rect x="0" y="104" width="480" height="8" fill="#361300"/><rect x="0" y="112" width="480" height="8" fill="#391400"/><rect x="0" y="120" width="480" height="8" fill="#3b1400"/><rect x="0" y="128" width="480" height="8" fill="#3d1500"/><rect x="0" y="136" width="480" height="8" fill="#3f1600"/><rect x="0" y="144" width="480" height="8" fill="#411800"/><rect x="0" y="152" width="480" height="8" fill="#421900"/><rect x="0" y="160" width="480" height="8" fill="#441a00"/><rect x="0" y="168" width="480" height="8" fill="#461c00"/><rect x="0" y="176" width="480" height="8" fill="#481d00"/><rect x="0" y="184" width="480" height="8" fill="#4a1e00"/><rect x="0" y="192" width="480" height="8" fill="#4c2000"/><rect x="0" y="200" width="480" height="8" fill="#4d2100"/><rect x="0" y="208" width="480" height="8" fill="#4f2200"/><rect x="0" y="216" width="480" height="8" fill="#512300"/><rect x="0" y="224" width="480" height="8" fill="#532500"/><rect x="0" y="232" width="480" height="8" fill="#552600"/><rect x="0" y="240" width="480" height="8" fill="#562700"/><rect x="0" y="248" width="480" height="8" fill="#582900"/><rect x="0" y="256" width="480" height="8" fill="#5a2a00"/><rect x="0" y="264" width="480" height="8" fill="#5c2a00"/><rect x="0" y="272" width="480" height="8" fill="#5e2b00"/><rect x="0" y="280" width="480" height="8" fill="#602b00"/><rect x="0" y="288" width="480" height="8" fill="#622c00"/><rect x="0" y="296" width="480" height="8" fill="#642c00"/><rect x="0" y="304" width="480" height="8" fill="#662c00"/><rect x="0" y="312" width="480" height="8" fill="#682d00"/><rect x="0" y="320" width="160" height="8" fill="#6a2d00"/><rect x="160" y="320" width="8" height="8" fill="#3D1500"/><rect x="168" y="320" width="312" height="8" fill="#6a2d00"/><rect x="0" y="328" width="152" height="8" fill="#6c2d00"/><rect x="152" y="328" width="24" height="8" fill="#3D1500"/><rect x="176" y="328" width="304" height="8" fill="#6c2d00"/><rect x="0" y="336" width="144" height="8" fill="#6e2e00"/><rect x="144" y="336" width="40" height="8" fill="#3D1500"/><rect x="184" y="336" width="296" height="8" fill="#6e2e00"/><rect x="0" y="344" width="136" height="8" fill="#702e00"/><rect x="136" y="344" width="56" height="8" fill="#3D1500"/><rect x="192" y="344" width="288" height="8" fill="#702e00"/><rect x="0" y="352" width="128" height="8" fill="#722f00"/><rect x="128" y="352" width="72" height="8" fill="#3D1500"/><rect x="200" y="352" width="240" height="8" fill="#722f00"/><rect x="440" y="352" width="8" height="8" fill="#4A2000"/><rect x="448" y="352" width="32" height="8" fill="#722f00"/><rect x="0" y="360" width="120" height="8" fill="#742f00"/><rect x="120" y="360" width="88" height="8" fill="#3D1500"/><rect x="208" y="360" width="224" height="8" fill="#742f00"/><rect x="432" y="360" width="24" height="8" fill="#4A2000"/><rect x="456" y="360" width="24" height="8" fill="#742f00"/><rect x="0" y="368" width="112" height="8" fill="#762f00"/><rect x="112" y="368" width="104" height="8" fill="#3D1500"/><rect x="216" y="368" width="208" height="8" fill="#762f00"/><rect x="424" y="368" width="40" height="8" fill="#4A2000"/><rect x="464" y="368" width="16" height="8" fill="#762f00"/><rect x="0" y="376" width="104" height="8" fill="#783000"/><rect x="104" y="376" width="120" height="8" fill="#3D1500"/><rect x="224" y="376" width="192" height="8" fill="#783000"/><rect x="416" y="376" width="56" height="8" fill="#4A2000"/><rect x="472" y="376" width="8" height="8" fill="#783000"/><rect x="0" y="384" width="104" height="8" fill="#7a3000"/><rect x="104" y="384" width="120" height="8" fill="#3D1500"/><rect x="224" y="384" width="184" height="8" fill="#7a3000"/><rect x="408" y="384" width="72" height="8" fill="#4A2000"/><rect x="0" y="392" width="96" height="8" fill="#772f00"/><rect x="96" y="392" width="136" height="8" fill="#3D1500"/><rect x="232" y="392" width="168" height="8" fill="#772f00"/><rect x="400" y="392" width="80" height="8" fill="#4A2000"/><rect x="0" y="400" width="88" height="8" fill="#742e00"/><rect x="88" y="400" width="152" height="8" fill="#3D1500"/><rect x="240" y="400" width="152" height="8" fill="#742e00"/><rect x="392" y="400" width="88" height="8" fill="#4A2000"/><rect x="0" y="408" width="80" height="8" fill="#712d00"/><rect x="80" y="408" width="168" height="8" fill="#3D1500"/><rect x="248" y="408" width="136" height="8" fill="#712d00"/><rect x="384" y="408" width="96" height="8" fill="#4A2000"/><rect x="0" y="416" width="72" height="8" fill="#6e2c00"/><rect x="72" y="416" width="184" height="8" fill="#3D1500"/><rect x="256" y="416" width="120" height="8" fill="#6e2c00"/><rect x="376" y="416" width="104" height="8" fill="#4A2000"/><rect x="0" y="424" width="64" height="8" fill="#6b2b00"/><rect x="64" y="424" width="200" height="8" fill="#3D1500"/><rect x="264" y="424" width="104" height="8" fill="#6b2b00"/><rect x="368" y="424" width="112" height="8" fill="#4A2000"/><rect x="0" y="432" width="56" height="8" fill="#682a00"/><rect x="56" y="432" width="216" height="8" fill="#3D1500"/><rect x="272" y="432" width="88" height="8" fill="#682a00"/><rect x="360" y="432" width="120" height="8" fill="#4A2000"/><rect x="0" y="440" width="368" height="8" fill="#2A1A0A"/><rect x="368" y="440" width="8" height="8" fill="#5A4030"/><rect x="376" y="440" width="104" height="8" fill="#2A1A0A"/><rect x="0" y="448" width="128" height="8" fill="#2A1A0A"/><rect x="128" y="448" width="8" height="8" fill="#5A4030"/><rect x="136" y="448" width="152" height="8" fill="#2A1A0A"/><rect x="288" y="448" width="8" height="8" fill="#5A4030"/><rect x="296" y="448" width="64" height="8" fill="#2A1A0A"/><rect x="360" y="448" width="16" height="8" fill="#4A3020"/><rect x="376" y="448" width="104" height="8" fill="#2A1A0A"/><rect x="0" y="456" width="120" height="8" fill="#1A0A00"/><rect x="120" y="456" width="16" height="8" fill="#4A3020"/><rect x="136" y="456" width="72" height="8" fill="#1A0A00"/><rect x="208" y="456" width="8" height="8" fill="#5A4030"/><rect x="216" y="456" width="64" height="8" fill="#1A0A00"/><rect x="280" y="456" width="16" height="8" fill="#4A3020"/><rect x="296" y="456" width="64" height="8" fill="#1A0A00"/><rect x="360" y="456" width="16" height="8" fill="#4A3020"/><rect x="376" y="456" width="72" height="8" fill="#1A0A00"/><rect x="448" y="456" width="8" height="8" fill="#5A4030"/><rect x="456" y="456" width="24" height="8" fill="#1A0A00"/><rect x="0" y="464" width="48" height="8" fill="#1A0A00"/><rect x="48" y="464" width="8" height="8" fill="#5A4030"/><rect x="56" y="464" width="64" height="8" fill="#1A0A00"/><rect x="120" y="464" width="16" height="8" fill="#4A3020"/><rect x="136" y="464" width="64" height="8" fill="#1A0A00"/><rect x="200" y="464" width="16" height="8" fill="#4A3020"/><rect x="216" y="464" width="64" height="8" fill="#1A0A00"/><rect x="280" y="464" width="16" height="8" fill="#4A3020"/><rect x="296" y="464" width="144" height="8" fill="#1A0A00"/><rect x="440" y="464" width="16" height="8" fill="#4A3020"/><rect x="456" y="464" width="24" height="8" fill="#1A0A00"/><rect x="0" y="472" width="40" height="8" fill="#1A0A00"/><rect x="40" y="472" width="16" height="8" fill="#4A3020"/><rect x="56" y="472" width="144" height="8" fill="#1A0A00"/><rect x="200" y="472" width="16" height="8" fill="#4A3020"/><rect x="216" y="472" width="224" height="8" fill="#1A0A00"/><rect x="440" y="472" width="16" height="8" fill="#4A3020"/><rect x="456" y="472" width="24" height="8" fill="#1A0A00"/><rect x="0" y="480" width="40" height="8" fill="#1A0A00"/><rect x="40" y="480" width="16" height="8" fill="#4A3020"/><rect x="56" y="480" width="424" height="8" fill="#1A0A00"/><rect x="0" y="488" width="480" height="8" fill="#1A0A00"/><rect x="0" y="496" width="480" height="8" fill="#1A0A00"/><rect x="0" y="504" width="480" height="8" fill="#1A0A00"/><rect x="0" y="512" width="480" height="8" fill="#1A0A00"/><rect x="0" y="520" width="480" height="8" fill="#1A0A00"/><rect x="0" y="528" width="480" height="8" fill="#1A0A00"/><rect x="0" y="536" width="480" height="8" fill="#1A0A00"/><rect x="0" y="544" width="480" height="8" fill="#1A0A00"/><rect x="0" y="552" width="480" height="8" fill="#1A0A00"/><rect x="0" y="560" width="480" height="8" fill="#1A0A00"/><rect x="0" y="568" width="480" height="8" fill="#1A0A00"/><rect x="0" y="576" width="480" height="8" fill="#1A0A00"/><rect x="0" y="584" width="480" height="8" fill="#1A0A00"/><rect x="0" y="592" width="480" height="8" fill="#1A0A00"/><rect x="0" y="600" width="480" height="8" fill="#1A0A00"/><rect x="0" y="608" width="480" height="8" fill="#1A0A00"/><rect x="0" y="616" width="480" height="8" fill="#1A0A00"/><rect x="0" y="624" width="480" height="8" fill="#1A0A00"/><rect x="0" y="632" width="480" height="8" fill="#1A0A00"/>
<rect x="10" y="-10" width="2" height="6" fill="#6aa" opacity=".4" style="animation:floatYdown 2.67612406911038s linear 2.4856904178135446s infinite"/><rect x="20" y="-10" width="2" height="6" fill="#6aa" opacity=".4" style="animation:floatYdown 2.6351788866734718s linear 0.9119984847200749s infinite"/><rect x="30" y="-10" width="2" height="6" fill="#6aa" opacity=".4" style="animation:floatYdown 2.0374459978894324s linear 1.2674564676641342s infinite"/><rect x="40" y="-10" width="2" height="6" fill="#6aa" opacity=".4" style="animation:floatYdown 2.5973674764955956s linear 0.18577087764444378s infinite"/><rect x="50" y="-10" width="2" height="6" fill="#6aa" opacity=".4" style="animation:floatYdown 2.1838073954926065s linear 0.4031289334683258s infinite"/><rect x="60" y="-10" width="2" height="6" fill="#6aa" opacity=".4" style="animation:floatYdown 2.1422187947830444s linear 2.447466344076693s infinite"/><rect x="70" y="-10" width="2" height="6" fill="#6aa" opacity=".4" style="animation:floatYdown 3.0860930283678947s linear 0.39023004209461365s infinite"/><rect x="80" y="-10" width="2" height="6" fill="#6aa" opacity=".4" style="animation:floatYdown 2.816566361556074s linear 0.29945815859608804s infinite"/><rect x="90" y="-10" width="2" height="6" fill="#6aa" opacity=".4" style="animation:floatYdown 2.0103360845740608s linear 1.224783339728202s infinite"/><rect x="100" y="-10" width="2" height="6" fill="#6aa" opacity=".4" style="animation:floatYdown 2.6326769609435785s linear 0.7784679845148705s infinite"/><rect x="110" y="-10" width="2" height="6" fill="#6aa" opacity=".4" style="animation:floatYdown 2.8734139328805934s linear 0.261866481711178s infinite"/><rect x="120" y="-10" width="2" height="6" fill="#6aa" opacity=".4" style="animation:floatYdown 3.3349508721916363s linear 2.743619486096666s infinite"/><rect x="130" y="-10" width="2" height="6" fill="#6aa" opacity=".4" style="animation:floatYdown 3.12301332577028s linear 0.6017469413585006s infinite"/><rect x="140" y="-10" width="2" height="6" fill="#6aa" opacity=".4" style="animation:floatYdown 2.0133811040228493s linear 0.8025117368676367s infinite"/><rect x="150" y="-10" width="2" height="6" fill="#6aa" opacity=".4" style="animation:floatYdown 2.4172905690613753s linear 1.8750638858943367s infinite"/><rect x="160" y="-10" width="2" height="6" fill="#6aa" opacity=".4" style="animation:floatYdown 2.3908061945227503s linear 1.0433362960804016s infinite"/><rect x="170" y="-10" width="2" height="6" fill="#6aa" opacity=".4" style="animation:floatYdown 3.116361435433782s linear 2.310678411235647s infinite"/><rect x="180" y="-10" width="2" height="6" fill="#6aa" opacity=".4" style="animation:floatYdown 2.3764318047915363s linear 2.3616018173128492s infinite"/><rect x="190" y="-10" width="2" height="6" fill="#6aa" opacity=".4" style="animation:floatYdown 2.4228900831133036s linear 2.0721606707388474s infinite"/><rect x="200" y="-10" width="2" height="6" fill="#6aa" opacity=".4" style="animation:floatYdown 3.2568733420882046s linear 1.945908219143873s infinite"/><rect x="210" y="-10" width="2" height="6" fill="#6aa" opacity=".4" style="animation:floatYdown 2.4136410137276045s linear 1.38670763571359s infinite"/><rect x="220" y="-10" width="2" height="6" fill="#6aa" opacity=".4" style="animation:floatYdown 2.2752559992131403s linear 1.2626724956534152s infinite"/><rect x="230" y="-10" width="2" height="6" fill="#6aa" opacity=".4" style="animation:floatYdown 2.6290703141819103s linear 2.4354224715295443s infinite"/><rect x="240" y="-10" width="2" height="6" fill="#6aa" opacity=".4" style="animation:floatYdown 3.212045266991588s linear 0.22484531553913834s infinite"/><rect x="250" y="-10" width="2" height="6" fill="#6aa" opacity=".4" style="animation:floatYdown 2.621759423925298s linear 1.822176534171164s infinite"/><rect x="260" y="-10" width="2" height="6" fill="#6aa" opacity=".4" style="animation:floatYdown 2.0070068130624095s linear 1.941859692296663s infinite"/><rect x="270" y="-10" width="2" height="6" fill="#6aa" opacity=".4" style="animation:floatYdown 2.753329898295168s linear 1.1699918307592732s infinite"/><rect x="280" y="-10" width="2" height="6" fill="#6aa" opacity=".4" style="animation:floatYdown 2.8714998606475772s linear 0.08659312879211845s infinite"/><rect x="290" y="-10" width="2" height="6" fill="#6aa" opacity=".4" style="animation:floatYdown 2.5819746147973s linear 1.461244617356972s infinite"/><rect x="300" y="-10" width="2" height="6" fill="#6aa" opacity=".4" style="animation:floatYdown 2.412316742638217s linear 0.9497828798664725s infinite"/><rect x="310" y="-10" width="2" height="6" fill="#6aa" opacity=".4" style="animation:floatYdown 2.3156590107029973s linear 0.502864946930339s infinite"/><rect x="320" y="-10" width="2" height="6" fill="#6aa" opacity=".4" style="animation:floatYdown 2.481108421352216s linear 2.3099540741198665s infinite"/><rect x="330" y="-10" width="2" height="6" fill="#6aa" opacity=".4" style="animation:floatYdown 3.2230746651047983s linear 1.0239287355291165s infinite"/><rect x="340" y="-10" width="2" height="6" fill="#6aa" opacity=".4" style="animation:floatYdown 3.4781415133703284s linear 2.4522332293720286s infinite"/><rect x="350" y="-10" width="2" height="6" fill="#6aa" opacity=".4" style="animation:floatYdown 2.655328310690097s linear 2.3627269738827987s infinite"/><rect x="360" y="-10" width="2" height="6" fill="#6aa" opacity=".4" style="animation:floatYdown 2.2205213037701688s linear 2.7451869340026733s infinite"/><rect x="370" y="-10" width="2" height="6" fill="#6aa" opacity=".4" style="animation:floatYdown 3.135225306054773s linear 1.9015794532384858s infinite"/><rect x="380" y="-10" width="2" height="6" fill="#6aa" opacity=".4" style="animation:floatYdown 2.710651654771598s linear 2.6248326370567563s infinite"/><rect x="390" y="-10" width="2" height="6" fill="#6aa" opacity=".4" style="animation:floatYdown 2.753496911962718s linear 0.341298315416537s infinite"/><rect x="400" y="-10" width="2" height="6" fill="#6aa" opacity=".4" style="animation:floatYdown 2.550520316082429s linear 2.6042556597185396s infinite"/><rect x="410" y="-10" width="2" height="6" fill="#6aa" opacity=".4" style="animation:floatYdown 2.307662913095406s linear 2.343164984066263s infinite"/><rect x="420" y="-10" width="2" height="6" fill="#6aa" opacity=".4" style="animation:floatYdown 2.0945485629937095s linear 2.6046084299335854s infinite"/><rect x="430" y="-10" width="2" height="6" fill="#6aa" opacity=".4" style="animation:floatYdown 3.1755152989617574s linear 1.290905883014354s infinite"/><rect x="440" y="-10" width="2" height="6" fill="#6aa" opacity=".4" style="animation:floatYdown 2.023196395435004s linear 2.1009799967302794s infinite"/><rect x="450" y="-10" width="2" height="6" fill="#6aa" opacity=".4" style="animation:floatYdown 3.418574260539799s linear 0.31731975766104825s infinite"/><rect x="460" y="-10" width="2" height="6" fill="#6aa" opacity=".4" style="animation:floatYdown 2.053601063908432s linear 1.4740367308201603s infinite"/><rect x="470" y="-10" width="2" height="6" fill="#6aa" opacity=".4" style="animation:floatYdown 3.1922377494027647s linear 0.8771570870789813s infinite"/><rect x="480" y="-10" width="2" height="6" fill="#6aa" opacity=".4" style="animation:floatYdown 2.063050963486461s linear 2.8226879920431607s infinite"/><rect x="490" y="-10" width="2" height="6" fill="#6aa" opacity=".4" style="animation:floatYdown 2.638420925646483s linear 1.637381348163709s infinite"/><rect x="500" y="-10" width="2" height="6" fill="#6aa" opacity=".4" style="animation:floatYdown 2.2049452255335393s linear 0.536134070501831s infinite"/><g style="animation:flash 7s ease 4s infinite" transform="translate(100,0)">
<rect x="0" y="20" width="4" height="16" fill="#ff0" opacity=".7"/>
<rect x="4" y="36" width="4" height="12" fill="#ff0" opacity=".5"/>
<rect x="-4" y="48" width="4" height="10" fill="#ff0" opacity=".3"/>
</g><g style="animation:flash 9s ease 6s infinite" transform="translate(250,0)">
<rect x="0" y="20" width="4" height="16" fill="#ff0" opacity=".7"/>
<rect x="4" y="36" width="4" height="12" fill="#ff0" opacity=".5"/>
<rect x="-4" y="48" width="4" height="10" fill="#ff0" opacity=".3"/>
</g><g style="animation:flash 8s ease 3.5s infinite" transform="translate(400,0)">
<rect x="0" y="20" width="4" height="16" fill="#ff0" opacity=".7"/>
<rect x="4" y="36" width="4" height="12" fill="#ff0" opacity=".5"/>
<rect x="-4" y="48" width="4" height="10" fill="#ff0" opacity=".3"/>
</g><g style="animation:floatXneg 12s linear infinite;opacity:0.3" transform="translate(0,10)">
<rect x="0" y="18" width="60" height="18" fill="#fff" rx="2"/>
<rect x="9" y="6" width="30" height="18" fill="#fff" rx="2"/>
<rect x="24" y="0" width="21" height="15" fill="#fff" rx="2"/>
</g><g style="animation:floatXneg 15s linear infinite;opacity:0.25" transform="translate(200,5)">
<rect x="0" y="15" width="50" height="15" fill="#fff" rx="2"/>
<rect x="7.5" y="5" width="25" height="15" fill="#fff" rx="2"/>
<rect x="20" y="0" width="17.5" height="12.5" fill="#fff" rx="2"/>
</g><g style="animation:floatXneg 10s linear infinite;opacity:0.2" transform="translate(380,15)">
<rect x="0" y="13.5" width="45" height="13.5" fill="#fff" rx="2"/>
<rect x="6.75" y="4.5" width="22.5" height="13.5" fill="#fff" rx="2"/>
<rect x="18" y="0" width="15.749999999999998" height="11.25" fill="#fff" rx="2"/>
</g><rect x="30" y="640" width="4.42737032461439" height="4.42737032461439" fill="#fa0" opacity=".6" style="animation:floatYup 6s ease-out 2.8296028352033797s infinite"/><rect x="130" y="640" width="3.0839806872299715" height="3.0839806872299715" fill="#fa0" opacity=".6" style="animation:floatYup 7s ease-out 1.3882717259183468s infinite"/><rect x="230" y="640" width="5.7680380942555765" height="5.7680380942555765" fill="#fa0" opacity=".6" style="animation:floatYup 8s ease-out 1.0971586989177848s infinite"/><rect x="330" y="640" width="4.188991636523907" height="4.188991636523907" fill="#f60" opacity=".6" style="animation:floatYup 9s ease-out 0.8753846178149128s infinite"/>
</svg>