<svg xmlns="http://www.w3.org/2000/svg" viewBox="0 0 480 640" width="480" height="640" shape-rendering="crispEdges">
<style>
@keyframes floatX{0%{transform:translateX(0)}100%{transform:translateX(480px)}}
@keyframes floatXneg{0%{transform:translateX(480px)}100%{transform:translateX(-80px)}}
@keyframes floatYup{0%{transform:translateY(0);opacity:.8}100%{transform:translateY(-640px);opacity:0}}
@keyframes floatYdown{0%{transform:translateY(-40px)}100%{transform:translateY(680px)}}
@keyframes fadeInOut{0%,100%{opacity:.15}50%{opacity:.7}}
@keyframes pulse{0%,100%{opacity:.6;transform:scale(1)}50%{opacity:1;transform:scale(1.15)}}
@keyframes sway{0%,100%{transform:rotate(-3deg)}50%{transform:rotate(3deg)}}
@keyframes bob{0%,100%{transform:translateY(0)}50%{transform:translateY(-6px)}}
@keyframes flash{0%,90%,100%{opacity:0}92%,96%{opacity:.8}}
@keyframes wave{0%{d:path('M0,0 Q60,-8 120,0 Q180,8 240,0 Q300,-8 360,0 Q420,8 480,0 L480,20 L0,20 Z')}50%{d:path('M0,0 Q60,8 120,0 Q180,-8 240,0 Q300,8 360,0 Q420,-8 480,0 L480,20 L0,20 Z')}100%{d:path('M0,0 Q60,-8 120,0 Q180,8 240,0 Q300,-8 360,0 Q420,8 480,0 L480,20 L0,20 Z')}}
</style>
<rect x="0" y="0" width="384" height="8" fill="#000020"/><rect x="384" y="0" width="8" height="8" fill="#000a35"/><rect x="392" y="0" width="88" height="8" fill="#000020"/><rect x="0" y="8" width="384" height="8" fill="#000023"/><rect x="384" y="8" width="8" height="8" fill="#000a37"/><rect x="392" y="8" width="88" height="8" fill="#000023"/><rect x="0" y="16" width="240" height="8" fill="#000025"/><rect x="240" y="16" width="8" height="8" fill="#000a39"/><rect x="248" y="16" width="232" height="8" fill="#000025"/><rect x="0" y="24" width="240" height="8" fill="#000028"/><rect x="240" y="24" width="8" height="8" fill="#000a3c"/><rect x="248" y="24" width="136" height="8" fill="#000028"/><rect x="384" y="24" width="8" height="8" fill="#000a3c"/><rect x="392" y="24" width="88" height="8" fill="#000028"/><rect x="0" y="32" width="384" height="8" fill="#00002b"/><rect x="384" y="32" width="8" height="8" fill="#000a3e"/><rect x="392" y="32" width="88" height="8" fill="#00002b"/><rect x="0" y="40" width="232" height="8" fill="#00002d"/><rect x="232" y="40" width="8" height="8" fill="#000a40"/><rect x="240" y="40" width="136" height="8" fill="#00002d"/><rect x="376" y="40" width="8" height="8" fill="#000a40"/><rect x="384" y="40" width="8" height="8" fill="#00002d"/><rect x="392" y="40" width="8" height="8" fill="#000a40"/><rect x="400" y="40" width="80" height="8" fill="#00002d"/><rect x="0" y="48" width="232" height="8" fill="#000030"/><rect x="232" y="48" width="8" height="8" fill="#000a42"/><rect x="240" y="48" width="8" height="8" fill="#000030"/><rect x="248" y="48" width="8" height="8" fill="#000a42"/><rect x="256" y="48" width="128" height="8" fill="#000030"/><rect x="384" y="48" width="8" height="8" fill="#000a42"/><rect x="392" y="48" width="88" height="8" fill="#000030"/><rect x="0" y="56" width="88" height="8" fill="#000033"/><rect x="88" y="56" width="8" height="8" fill="#000a45"/><rect x="96" y="56" width="144" height="8" fill="#000033"/><rect x="240" y="56" width="16" height="8" fill="#000a45"/><rect x="256" y="56" width="120" height="8" fill="#000033"/><rect x="376" y="56" width="8" height="8" fill="#000a45"/><rect x="384" y="56" width="96" height="8" fill="#000033"/><rect x="0" y="64" width="384" height="8" fill="#000035"/><rect x="384" y="64" width="8" height="8" fill="#000a47"/><rect x="392" y="64" width="88" height="8" fill="#000035"/><rect x="0" y="72" width="240" height="8" fill="#000038"/><rect x="240" y="72" width="8" height="8" fill="#000a49"/><rect x="248" y="72" width="232" height="8" fill="#000038"/><rect x="0" y="80" width="88" height="8" fill="#00003b"/><rect x="88" y="80" width="8" height="8" fill="#000a4c"/><rect x="96" y="80" width="136" height="8" fill="#00003b"/><rect x="232" y="80" width="8" height="8" fill="#000a4c"/><rect x="240" y="80" width="136" height="8" fill="#00003b"/><rect x="376" y="80" width="16" height="8" fill="#000a4c"/><rect x="392" y="80" width="88" height="8" fill="#00003b"/><rect x="0" y="88" width="80" height="8" fill="#00003d"/><rect x="80" y="88" width="24" height="8" fill="#000a4d"/><rect x="104" y="88" width="376" height="8" fill="#00003d"/><rect x="0" y="96" width="80" height="8" fill="#000040"/><rect x="80" y="96" width="24" height="8" fill="#000a50"/><rect x="104" y="96" width="264" height="8" fill="#000040"/><rect x="368" y="96" width="8" height="8" fill="#000a50"/><rect x="376" y="96" width="104" height="8" fill="#000040"/><rect x="0" y="104" width="112" height="8" fill="#000042"/><rect x="112" y="104" width="8" height="8" fill="#000a52"/><rect x="120" y="104" width="112" height="8" fill="#000042"/><rect x="232" y="104" width="24" height="8" fill="#000a52"/><rect x="256" y="104" width="112" height="8" fill="#000042"/><rect x="368" y="104" width="8" height="8" fill="#000a52"/><rect x="376" y="104" width="8" height="8" fill="#000042"/><rect x="384" y="104" width="24" height="8" fill="#000a52"/><rect x="408" y="104" width="72" height="8" fill="#000042"/><rect x="0" y="112" width="224" height="8" fill="#000044"/><rect x="224" y="112" width="8" height="8" fill="#000a53"/><rect x="232" y="112" width="16" height="8" fill="#000044"/><rect x="248" y="112" width="8" height="8" fill="#000a53"/><rect x="256" y="112" width="224" height="8" fill="#000044"/><rect x="0" y="120" width="72" height="8" fill="#000046"/><rect x="72" y="120" width="8" height="8" fill="#000a55"/><rect x="80" y="120" width="40" height="8" fill="#000046"/><rect x="120" y="120" width="8" height="8" fill="#000a55"/><rect x="128" y="120" width="88" height="8" fill="#000046"/><rect x="216" y="120" width="8" height="8" fill="#000a55"/><rect x="224" y="120" width="8" height="8" fill="#000046"/><rect x="232" y="120" width="16" height="8" fill="#000a55"/><rect x="248" y="120" width="8" height="8" fill="#000046"/><rect x="256" y="120" width="16" height="8" fill="#000a55"/><rect x="272" y="120" width="96" height="8" fill="#000046"/><rect x="368" y="120" width="8" height="8" fill="#000a55"/><rect x="376" y="120" width="24" height="8" fill="#000046"/><rect x="400" y="120" width="16" height="8" fill="#000a55"/><rect x="416" y="120" width="64" height="8" fill="#000046"/><rect x="0" y="128" width="72" height="8" fill="#000048"/><rect x="72" y="128" width="8" height="8" fill="#000a57"/><rect x="80" y="128" width="8" height="8" fill="#000048"/><rect x="88" y="128" width="8" height="8" fill="#000a57"/><rect x="96" y="128" width="136" height="8" fill="#000048"/><rect x="232" y="128" width="8" height="8" fill="#000a57"/><rect x="240" y="128" width="128" height="8" fill="#000048"/><rect x="368" y="128" width="16" height="8" fill="#000a57"/><rect x="384" y="128" width="8" height="8" fill="#000048"/><rect x="392" y="128" width="8" height="8" fill="#000a57"/><rect x="400" y="128" width="8" height="8" fill="#000048"/><rect x="408" y="128" width="8" height="8" fill="#000a57"/><rect x="416" y="128" width="64" height="8" fill="#000048"/><rect x="0" y="136" width="264" height="8" fill="#00004a"/><rect x="264" y="136" width="8" height="8" fill="#000a58"/><rect x="272" y="136" width="208" height="8" fill="#00004a"/><rect x="0" y="144" width="80" height="8" fill="#00004c"/><rect x="80" y="144" width="8" height="8" fill="#000a5a"/><rect x="88" y="144" width="24" height="8" fill="#00004c"/><rect x="112" y="144" width="8" height="8" fill="#000a5a"/><rect x="120" y="144" width="104" height="8" fill="#00004c"/><rect x="224" y="144" width="8" height="8" fill="#000a5a"/><rect x="232" y="144" width="8" height="8" fill="#00004c"/><rect x="240" y="144" width="16" height="8" fill="#000a5a"/><rect x="256" y="144" width="104" height="8" fill="#00004c"/><rect x="360" y="144" width="32" height="8" fill="#000a5a"/><rect x="392" y="144" width="88" height="8" fill="#00004c"/><rect x="0" y="152" width="104" height="8" fill="#00004e"/><rect x="104" y="152" width="8" height="8" fill="#000a5c"/><rect x="112" y="152" width="8" height="8" fill="#00004e"/><rect x="120" y="152" width="8" height="8" fill="#000a5c"/><rect x="128" y="152" width="88" height="8" fill="#00004e"/><rect x="216" y="152" width="8" height="8" fill="#000a5c"/><rect x="224" y="152" width="16" height="8" fill="#00004e"/><rect x="240" y="152" width="8" height="8" fill="#000a5c"/><rect x="248" y="152" width="8" height="8" fill="#00004e"/><rect x="256" y="152" width="16" height="8" fill="#000a5c"/><rect x="272" y="152" width="96" height="8" fill="#00004e"/><rect x="368" y="152" width="8" height="8" fill="#000a5c"/><rect x="376" y="152" width="8" height="8" fill="#00004e"/><rect x="384" y="152" width="8" height="8" fill="#000a5c"/><rect x="392" y="152" width="16" height="8" fill="#00004e"/><rect x="408" y="152" width="8" height="8" fill="#000a5c"/><rect x="416" y="152" width="64" height="8" fill="#00004e"/><rect x="0" y="160" width="64" height="8" fill="#000050"/><rect x="64" y="160" width="16" height="8" fill="#000a5e"/><rect x="80" y="160" width="24" height="8" fill="#000050"/><rect x="104" y="160" width="8" height="8" fill="#000a5e"/><rect x="112" y="160" width="96" height="8" fill="#000050"/><rect x="208" y="160" width="8" height="8" fill="#000a5e"/><rect x="216" y="160" width="8" height="8" fill="#000050"/><rect x="224" y="160" width="16" height="8" fill="#000a5e"/><rect x="240" y="160" width="16" height="8" fill="#000050"/><rect x="256" y="160" width="8" height="8" fill="#000a5e"/><rect x="264" y="160" width="104" height="8" fill="#000050"/><rect x="368" y="160" width="48" height="8" fill="#000a5e"/><rect x="416" y="160" width="64" height="8" fill="#000050"/><rect x="0" y="168" width="64" height="8" fill="#000052"/><rect x="64" y="168" width="8" height="8" fill="#000a5f"/><rect x="72" y="168" width="40" height="8" fill="#000052"/><rect x="112" y="168" width="8" height="8" fill="#000a5f"/><rect x="120" y="168" width="104" height="8" fill="#000052"/><rect x="224" y="168" width="32" height="8" fill="#000a5f"/><rect x="256" y="168" width="16" height="8" fill="#000052"/><rect x="272" y="168" width="8" height="8" fill="#000a5f"/><rect x="280" y="168" width="72" height="8" fill="#000052"/><rect x="352" y="168" width="8" height="8" fill="#000a5f"/><rect x="360" y="168" width="8" height="8" fill="#000052"/><rect x="368" y="168" width="8" height="8" fill="#000a5f"/><rect x="376" y="168" width="16" height="8" fill="#000052"/><rect x="392" y="168" width="16" height="8" fill="#000a5f"/><rect x="408" y="168" width="72" height="8" fill="#000052"/><rect x="0" y="176" width="64" height="8" fill="#000054"/><rect x="64" y="176" width="8" height="8" fill="#000a61"/><rect x="72" y="176" width="24" height="8" fill="#000054"/><rect x="96" y="176" width="8" height="8" fill="#000a61"/><rect x="104" y="176" width="24" height="8" fill="#000054"/><rect x="128" y="176" width="8" height="8" fill="#000a61"/><rect x="136" y="176" width="80" height="8" fill="#000054"/><rect x="216" y="176" width="24" height="8" fill="#000a61"/><rect x="240" y="176" width="240" height="8" fill="#000054"/><rect x="0" y="184" width="88" height="8" fill="#000056"/><rect x="88" y="184" width="8" height="8" fill="#000a63"/><rect x="96" y="184" width="264" height="8" fill="#000056"/><rect x="360" y="184" width="8" height="8" fill="#000a63"/><rect x="368" y="184" width="8" height="8" fill="#000056"/><rect x="376" y="184" width="16" height="8" fill="#000a63"/><rect x="392" y="184" width="88" height="8" fill="#000056"/><rect x="0" y="192" width="128" height="8" fill="#000058"/><rect x="128" y="192" width="8" height="8" fill="#000a64"/><rect x="136" y="192" width="72" height="8" fill="#000058"/><rect x="208" y="192" width="16" height="8" fill="#000a64"/><rect x="224" y="192" width="128" height="8" fill="#000058"/><rect x="352" y="192" width="8" height="8" fill="#000a64"/><rect x="360" y="192" width="24" height="8" fill="#000058"/><rect x="384" y="192" width="8" height="8" fill="#000a64"/><rect x="392" y="192" width="8" height="8" fill="#000058"/><rect x="400" y="192" width="24" height="8" fill="#000a64"/><rect x="424" y="192" width="56" height="8" fill="#000058"/><rect x="0" y="200" width="64" height="8" fill="#00005a"/><rect x="64" y="200" width="16" height="8" fill="#000a66"/><rect x="80" y="200" width="8" height="8" fill="#00005a"/><rect x="88" y="200" width="16" height="8" fill="#000a66"/><rect x="104" y="200" width="104" height="8" fill="#00005a"/><rect x="208" y="200" width="16" height="8" fill="#000a66"/><rect x="224" y="200" width="136" height="8" fill="#00005a"/><rect x="360" y="200" width="16" height="8" fill="#000a66"/><rect x="376" y="200" width="32" height="8" fill="#00005a"/><rect x="408" y="200" width="16" height="8" fill="#000a66"/><rect x="424" y="200" width="56" height="8" fill="#00005a"/><rect x="0" y="208" width="64" height="8" fill="#00005c"/><rect x="64" y="208" width="8" height="8" fill="#000a68"/><rect x="72" y="208" width="16" height="8" fill="#00005c"/><rect x="88" y="208" width="8" height="8" fill="#000a68"/><rect x="96" y="208" width="8" height="8" fill="#00005c"/><rect x="104" y="208" width="8" height="8" fill="#000a68"/><rect x="112" y="208" width="160" height="8" fill="#00005c"/><rect x="272" y="208" width="8" height="8" fill="#000a68"/><rect x="280" y="208" width="72" height="8" fill="#00005c"/><rect x="352" y="208" width="8" height="8" fill="#000a68"/><rect x="360" y="208" width="8" height="8" fill="#00005c"/><rect x="368" y="208" width="8" height="8" fill="#000a68"/><rect x="376" y="208" width="104" height="8" fill="#00005c"/><rect x="0" y="216" width="96" height="8" fill="#00005e"/><rect x="96" y="216" width="16" height="8" fill="#000a69"/><rect x="112" y="216" width="8" height="8" fill="#00005e"/><rect x="120" y="216" width="24" height="8" fill="#000a69"/><rect x="144" y="216" width="72" height="8" fill="#00005e"/><rect x="216" y="216" width="8" height="8" fill="#000a69"/><rect x="224" y="216" width="24" height="8" fill="#00005e"/><rect x="248" y="216" width="16" height="8" fill="#000a69"/><rect x="264" y="216" width="80" height="8" fill="#00005e"/><rect x="344" y="216" width="8" height="8" fill="#000a69"/><rect x="352" y="216" width="24" height="8" fill="#00005e"/><rect x="376" y="216" width="16" height="8" fill="#000a69"/><rect x="392" y="216" width="88" height="8" fill="#00005e"/><rect x="0" y="224" width="64" height="8" fill="#000060"/><rect x="64" y="224" width="8" height="8" fill="#000a6b"/><rect x="72" y="224" width="24" height="8" fill="#000060"/><rect x="96" y="224" width="24" height="8" fill="#000a6b"/><rect x="120" y="224" width="120" height="8" fill="#000060"/><rect x="240" y="224" width="8" height="8" fill="#000a6b"/><rect x="248" y="224" width="8" height="8" fill="#000060"/><rect x="256" y="224" width="8" height="8" fill="#000a6b"/><rect x="264" y="224" width="80" height="8" fill="#000060"/><rect x="344" y="224" width="8" height="8" fill="#000a6b"/><rect x="352" y="224" width="24" height="8" fill="#000060"/><rect x="376" y="224" width="8" height="8" fill="#000a6b"/><rect x="384" y="224" width="8" height="8" fill="#000060"/><rect x="392" y="224" width="16" height="8" fill="#000a6b"/><rect x="408" y="224" width="8" height="8" fill="#000060"/><rect x="416" y="224" width="16" height="8" fill="#000a6b"/><rect x="432" y="224" width="48" height="8" fill="#000060"/><rect x="0" y="232" width="64" height="8" fill="#000062"/><rect x="64" y="232" width="16" height="8" fill="#000a6d"/><rect x="80" y="232" width="16" height="8" fill="#000062"/><rect x="96" y="232" width="8" height="8" fill="#000a6d"/><rect x="104" y="232" width="8" height="8" fill="#000062"/><rect x="112" y="232" width="8" height="8" fill="#000a6d"/><rect x="120" y="232" width="224" height="8" fill="#000062"/><rect x="344" y="232" width="8" height="8" fill="#000a6d"/><rect x="352" y="232" width="8" height="8" fill="#000062"/><rect x="360" y="232" width="16" height="8" fill="#000a6d"/><rect x="376" y="232" width="48" height="8" fill="#000062"/><rect x="424" y="232" width="8" height="8" fill="#000a6d"/><rect x="432" y="232" width="48" height="8" fill="#000062"/><rect x="0" y="240" width="80" height="8" fill="#000064"/><rect x="80" y="240" width="24" height="8" fill="#000a6f"/><rect x="104" y="240" width="24" height="8" fill="#000064"/><rect x="128" y="240" width="16" height="8" fill="#000a6f"/><rect x="144" y="240" width="56" height="8" fill="#000064"/><rect x="200" y="240" width="8" height="8" fill="#000a6f"/><rect x="208" y="240" width="8" height="8" fill="#000064"/><rect x="216" y="240" width="16" height="8" fill="#000a6f"/><rect x="232" y="240" width="24" height="8" fill="#000064"/><rect x="256" y="240" width="8" height="8" fill="#000a6f"/><rect x="264" y="240" width="16" height="8" fill="#000064"/><rect x="280" y="240" width="8" height="8" fill="#000a6f"/><rect x="288" y="240" width="64" height="8" fill="#000064"/><rect x="352" y="240" width="24" height="8" fill="#000a6f"/><rect x="376" y="240" width="32" height="8" fill="#000064"/><rect x="408" y="240" width="16" height="8" fill="#000a6f"/><rect x="424" y="240" width="56" height="8" fill="#000064"/><rect x="0" y="248" width="80" height="8" fill="#000066"/><rect x="80" y="248" width="8" height="8" fill="#000a70"/><rect x="88" y="248" width="32" height="8" fill="#000066"/><rect x="120" y="248" width="8" height="8" fill="#000a70"/><rect x="128" y="248" width="16" height="8" fill="#000066"/><rect x="144" y="248" width="8" height="8" fill="#000a70"/><rect x="152" y="248" width="56" height="8" fill="#000066"/><rect x="208" y="248" width="8" height="8" fill="#000a70"/><rect x="216" y="248" width="8" height="8" fill="#000066"/><rect x="224" y="248" width="8" height="8" fill="#000a70"/><rect x="232" y="248" width="8" height="8" fill="#000066"/><rect x="240" y="248" width="24" height="8" fill="#000a70"/><rect x="264" y="248" width="16" height="8" fill="#000066"/><rect x="280" y="248" width="8" height="8" fill="#000a70"/><rect x="288" y="248" width="48" height="8" fill="#000066"/><rect x="336" y="248" width="8" height="8" fill="#000a70"/><rect x="344" y="248" width="8" height="8" fill="#000066"/><rect x="352" y="248" width="8" height="8" fill="#000a70"/><rect x="360" y="248" width="16" height="8" fill="#000066"/><rect x="376" y="248" width="8" height="8" fill="#000a70"/><rect x="384" y="248" width="96" height="8" fill="#000066"/><rect x="0" y="256" width="56" height="8" fill="#000068"/><rect x="56" y="256" width="32" height="8" fill="#000a72"/><rect x="88" y="256" width="8" height="8" fill="#000068"/><rect x="96" y="256" width="8" height="8" fill="#000a72"/><rect x="104" y="256" width="16" height="8" fill="#000068"/><rect x="120" y="256" width="8" height="8" fill="#000a72"/><rect x="128" y="256" width="8" height="8" fill="#000068"/><rect x="136" y="256" width="8" height="8" fill="#000a72"/><rect x="144" y="256" width="48" height="8" fill="#000068"/><rect x="192" y="256" width="8" height="8" fill="#000a72"/><rect x="200" y="256" width="8" height="8" fill="#000068"/><rect x="208" y="256" width="8" height="8" fill="#000a72"/><rect x="216" y="256" width="16" height="8" fill="#000068"/><rect x="232" y="256" width="8" height="8" fill="#000a72"/><rect x="240" y="256" width="8" height="8" fill="#000068"/><rect x="248" y="256" width="8" height="8" fill="#000a72"/><rect x="256" y="256" width="8" height="8" fill="#000068"/><rect x="264" y="256" width="32" height="8" fill="#000a72"/><rect x="296" y="256" width="56" height="8" fill="#000068"/><rect x="352" y="256" width="8" height="8" fill="#000a72"/><rect x="360" y="256" width="8" height="8" fill="#000068"/><rect x="368" y="256" width="8" height="8" fill="#000a72"/><rect x="376" y="256" width="16" height="8" fill="#000068"/><rect x="392" y="256" width="8" height="8" fill="#000a72"/><rect x="400" y="256" width="24" height="8" fill="#000068"/><rect x="424" y="256" width="8" height="8" fill="#000a72"/><rect x="432" y="256" width="48" height="8" fill="#000068"/><rect x="0" y="264" width="48" height="8" fill="#00006a"/><rect x="48" y="264" width="8" height="8" fill="#000a74"/><rect x="56" y="264" width="16" height="8" fill="#00006a"/><rect x="72" y="264" width="8" height="8" fill="#000a74"/><rect x="80" y="264" width="8" height="8" fill="#00006a"/><rect x="88" y="264" width="8" height="8" fill="#000a74"/><rect x="96" y="264" width="16" height="8" fill="#00006a"/><rect x="112" y="264" width="16" height="8" fill="#000a74"/><rect x="128" y="264" width="8" height="8" fill="#00006a"/><rect x="136" y="264" width="8" height="8" fill="#000a74"/><rect x="144" y="264" width="48" height="8" fill="#00006a"/><rect x="192" y="264" width="8" height="8" fill="#000a74"/><rect x="200" y="264" width="56" height="8" fill="#00006a"/><rect x="256" y="264" width="8" height="8" fill="#000a74"/><rect x="264" y="264" width="16" height="8" fill="#00006a"/><rect x="280" y="264" width="8" height="8" fill="#000a74"/><rect x="288" y="264" width="96" height="8" fill="#00006a"/><rect x="384" y="264" width="8" height="8" fill="#000a74"/><rect x="392" y="264" width="16" height="8" fill="#00006a"/><rect x="408" y="264" width="8" height="8" fill="#000a74"/><rect x="416" y="264" width="64" height="8" fill="#00006a"/><rect x="0" y="272" width="48" height="8" fill="#00006c"/><rect x="48" y="272" width="16" height="8" fill="#000a75"/><rect x="64" y="272" width="16" height="8" fill="#00006c"/><rect x="80" y="272" width="24" height="8" fill="#000a75"/><rect x="104" y="272" width="8" height="8" fill="#00006c"/><rect x="112" y="272" width="8" height="8" fill="#000a75"/><rect x="120" y="272" width="16" height="8" fill="#00006c"/><rect x="136" y="272" width="16" height="8" fill="#000a75"/><rect x="152" y="272" width="40" height="8" fill="#00006c"/><rect x="192" y="272" width="8" height="8" fill="#000a75"/><rect x="200" y="272" width="16" height="8" fill="#00006c"/><rect x="216" y="272" width="8" height="8" fill="#000a75"/><rect x="224" y="272" width="8" height="8" fill="#00006c"/><rect x="232" y="272" width="8" height="8" fill="#000a75"/><rect x="240" y="272" width="16" height="8" fill="#00006c"/><rect x="256" y="272" width="16" height="8" fill="#000a75"/><rect x="272" y="272" width="208" height="8" fill="#00006c"/><rect x="0" y="280" width="480" height="8" fill="#00006e"/><rect x="0" y="288" width="480" height="8" fill="#000070"/><rect x="0" y="296" width="480" height="8" fill="#000072"/><rect x="0" y="304" width="480" height="8" fill="#000074"/><rect x="0" y="312" width="480" height="8" fill="#000076"/><rect x="0" y="320" width="480" height="8" fill="#000078"/><rect x="0" y="328" width="480" height="8" fill="#00007a"/><rect x="0" y="336" width="480" height="8" fill="#00007c"/><rect x="0" y="344" width="480" height="8" fill="#00007e"/><rect x="0" y="352" width="480" height="8" fill="#000080"/><rect x="0" y="360" width="480" height="8" fill="#00007c"/><rect x="0" y="368" width="480" height="8" fill="#000078"/><rect x="0" y="376" width="480" height="8" fill="#000074"/><rect x="0" y="384" width="480" height="8" fill="#000070"/><rect x="0" y="392" width="480" height="8" fill="#00006c"/><rect x="0" y="400" width="480" height="8" fill="#000068"/><rect x="0" y="408" width="480" height="8" fill="#000064"/><rect x="0" y="416" width="480" height="8" fill="#000060"/><rect x="0" y="424" width="480" height="8" fill="#00005c"/><rect x="0" y="432" width="480" height="8" fill="#000058"/><rect x="0" y="440" width="48" height="8" fill="#001520"/><rect x="48" y="440" width="8" height="8" fill="#FF4040"/><rect x="56" y="440" width="104" height="8" fill="#001520"/><rect x="160" y="440" width="8" height="8" fill="#FF6B6B"/><rect x="168" y="440" width="104" height="8" fill="#001520"/><rect x="272" y="440" width="8" height="8" fill="#FF8888"/><rect x="280" y="440" width="104" height="8" fill="#001520"/><rect x="384" y="440" width="8" height="8" fill="#CC3333"/><rect x="392" y="440" width="88" height="8" fill="#001520"/><rect x="0" y="448" width="40" height="8" fill="#001520"/><rect x="40" y="448" width="24" height="8" fill="#FF4040"/><rect x="64" y="448" width="88" height="8" fill="#001520"/><rect x="152" y="448" width="24" height="8" fill="#FF6B6B"/><rect x="176" y="448" width="88" height="8" fill="#001520"/><rect x="264" y="448" width="24" height="8" fill="#FF8888"/><rect x="288" y="448" width="88" height="8" fill="#001520"/><rect x="376" y="448" width="24" height="8" fill="#CC3333"/><rect x="400" y="448" width="80" height="8" fill="#001520"/><rect x="0" y="456" width="40" height="8" fill="#001520"/><rect x="40" y="456" width="8" height="8" fill="#FF4040"/><rect x="48" y="456" width="104" height="8" fill="#001520"/><rect x="152" y="456" width="8" height="8" fill="#FF6B6B"/><rect x="160" y="456" width="104" height="8" fill="#001520"/><rect x="264" y="456" width="8" height="8" fill="#FF8888"/><rect x="272" y="456" width="48" height="8" fill="#001520"/><rect x="320" y="456" width="16" height="8" fill="#B8860B"/><rect x="336" y="456" width="8" height="8" fill="#FFD700"/><rect x="344" y="456" width="8" height="8" fill="#B8860B"/><rect x="352" y="456" width="24" height="8" fill="#001520"/><rect x="376" y="456" width="8" height="8" fill="#CC3333"/><rect x="384" y="456" width="96" height="8" fill="#001520"/><rect x="0" y="464" width="40" height="8" fill="#000A15"/><rect x="40" y="464" width="8" height="8" fill="#FF4040"/><rect x="48" y="464" width="104" height="8" fill="#000A15"/><rect x="152" y="464" width="8" height="8" fill="#FF6B6B"/><rect x="160" y="464" width="104" height="8" fill="#000A15"/><rect x="264" y="464" width="8" height="8" fill="#FF8888"/><rect x="272" y="464" width="48" height="8" fill="#000A15"/><rect x="320" y="464" width="32" height="8" fill="#8B6914"/><rect x="352" y="464" width="24" height="8" fill="#000A15"/><rect x="376" y="464" width="8" height="8" fill="#CC3333"/><rect x="384" y="464" width="96" height="8" fill="#000A15"/><rect x="0" y="472" width="320" height="8" fill="#000A15"/><rect x="320" y="472" width="32" height="8" fill="#8B6914"/><rect x="352" y="472" width="128" height="8" fill="#000A15"/><rect x="0" y="480" width="320" height="8" fill="#000A15"/><rect x="320" y="480" width="32" height="8" fill="#8B6914"/><rect x="352" y="480" width="128" height="8" fill="#000A15"/><rect x="0" y="488" width="480" height="8" fill="#000A15"/><rect x="0" y="496" width="480" height="8" fill="#000A15"/><rect x="0" y="504" width="480" height="8" fill="#000A15"/><rect x="0" y="512" width="480" height="8" fill="#000A15"/><rect x="0" y="520" width="480" height="8" fill="#000A15"/><rect x="0" y="528" width="480" height="8" fill="#000A15"/><rect x="0" y="536" width="480" height="8" fill="#000A15"/><rect x="0" y="544" width="480" height="8" fill="#000A15"/><rect x="0" y="552" width="480" height="8" fill="#000A15"/><rect x="0" y="560" width="480" height="8" fill="#000A15"/><rect x="0" y="568" width="480" height="8" fill="#000A15"/><rect x="0" y="576" width="480" height="8" fill="#000A15"/><rect x="0" y="584" width="480" height="8" fill="#000A15"/><rect x="0" y="592" width="480" height="8" fill="#000A15"/><rect x="0" y="600" width="480" height="8" fill="#000A15"/><rect x="0" y="608" width="480" height="8" fill="#000A15"/><rect x="0" y="616" width="480" height="8" fill="#000A15"/><rect x="0" y="624" width="480" height="8" fill="#000A15"/><rect x="0" y="632" width="480" height="8" fill="#000A15"/>
<g transform="translate(30,440)" style="animation:sway 4.717692414560604s ease-in-out infinite;transform-origin:center bottom">
<rect x="0" y="-92.22107248977193" width="8" height="92.22107248977193" fill="#064"/>
<rect x="8" y="-84.22107248977193" width="8" height="84.22107248977193" fill="#075"/>
</g><g transform="translate(85,440)" style="animation:sway 4.16558986215094s ease-in-out infinite;transform-origin:center bottom">
<rect x="0" y="-78.50597567116978" width="8" height="78.50597567116978" fill="#064"/>
<rect x="8" y="-70.50597567116978" width="8" height="70.50597567116978" fill="#075"/>
</g><g transform="translate(140,440)" style="animation:sway 4.123121855921701s ease-in-out infinite;transform-origin:center bottom">
<rect x="0" y="-75.75611367040331" width="8" height="75.75611367040331" fill="#064"/>
<rect x="8" y="-67.75611367040331" width="8" height="67.75611367040331" fill="#075"/>
</g><g transform="translate(195,440)" style="animation:sway 3.261617379902951s ease-in-out infinite;transform-origin:center bottom">
<rect x="0" y="-79.38554091419674" width="8" height="79.38554091419674" fill="#064"/>
<rect x="8" y="-71.38554091419674" width="8" height="71.38554091419674" fill="#075"/>
</g><g transform="translate(250,440)" style="animation:sway 3.4678745874505057s ease-in-out infinite;transform-origin:center bottom">
<rect x="0" y="-74.13173211946975" width="8" height="74.13173211946975" fill="#064"/>
<rect x="8" y="-66.13173211946975" width="8" height="66.13173211946975" fill="#075"/>
</g><g transform="translate(305,440)" style="animation:sway 3.9042101559728355s ease-in-out infinite;transform-origin:center bottom">
<rect x="0" y="-62.26146906463287" width="8" height="62.26146906463287" fill="#064"/>
<rect x="8" y="-54.26146906463287" width="8" height="54.26146906463287" fill="#075"/>
</g><g transform="translate(360,440)" style="animation:sway 3.00950389375015s ease-in-out infinite;transform-origin:center bottom">
<rect x="0" y="-71.67939289441243" width="8" height="71.67939289441243" fill="#064"/>
<rect x="8" y="-63.67939289441243" width="8" height="63.67939289441243" fill="#075"/>
</g><g transform="translate(415,440)" style="animation:sway 3.1257425019029403s ease-in-out infinite;transform-origin:center bottom">
<rect x="0" y="-73.51068552577257" width="8" height="73.51068552577257" fill="#064"/>
<rect x="8" y="-65.51068552577257" width="8" height="65.51068552577257" fill="#075"/>
</g><rect x="20" y="650" width="6.012069518809325" height="6.012069518809325" fill="#4af" opacity=".3" rx="3.0060347594046624" style="animation:floatYup 7s ease-in 0s infinite"/><rect x="50" y="650" width="4.788852972195709" height="4.788852972195709" fill="#4af" opacity=".3" rx="2.3944264860978546" style="animation:floatYup 8.5s ease-in 1.2s infinite"/><rect x="80" y="650" width="6.261032875735863" height="6.261032875735863" fill="#4af" opacity=".3" rx="3.1305164378679313" style="animation:floatYup 10s ease-in 2.4s infinite"/><rect x="110" y="650" width="5.805794751819322" height="5.805794751819322" fill="#4af" opacity=".3" rx="2.902897375909661" style="animation:floatYup 11.5s ease-in 3.5999999999999996s infinite"/><rect x="140" y="650" width="7.243805398446646" height="7.243805398446646" fill="#4af" opacity=".3" rx="3.621902699223323" style="animation:floatYup 13s ease-in 4.8s infinite"/><rect x="170" y="650" width="5.765364561852373" height="5.765364561852373" fill="#4af" opacity=".3" rx="2.8826822809261863" style="animation:floatYup 14.5s ease-in 6s infinite"/><rect x="200" y="650" width="8.345590212460003" height="8.345590212460003" fill="#4af" opacity=".3" rx="4.1727951062300015" style="animation:floatYup 16s ease-in 7.199999999999999s infinite"/><rect x="230" y="650" width="9.60504301576402" height="9.60504301576402" fill="#4af" opacity=".3" rx="4.80252150788201" style="animation:floatYup 17.5s ease-in 8.4s infinite"/><rect x="260" y="650" width="5.597334913186356" height="5.597334913186356" fill="#4af" opacity=".3" rx="2.798667456593178" style="animation:floatYup 19s ease-in 9.6s infinite"/><rect x="290" y="650" width="7.29461394873768" height="7.29461394873768" fill="#4af" opacity=".3" rx="3.64730697436884" style="animation:floatYup 20.5s ease-in 10.799999999999999s infinite"/><rect x="320" y="650" width="5.062506602769581" height="5.062506602769581" fill="#4af" opacity=".3" rx="2.5312533013847904" style="animation:floatYup 22s ease-in 12s infinite"/><rect x="350" y="650" width="9.179771533513996" height="9.179771533513996" fill="#4af" opacity=".3" rx="4.589885766756998" style="animation:floatYup 23.5s ease-in 13.2s infinite"/><rect x="380" y="650" width="4.3887178024756786" height="4.3887178024756786" fill="#4af" opacity=".3" rx="2.1943589012378393" style="animation:floatYup 25s ease-in 14.399999999999999s infinite"/><rect x="410" y="650" width="4.1854499275442425" height="4.1854499275442425" fill="#4af" opacity=".3" rx="2.0927249637721212" style="animation:floatYup 26.5s ease-in 15.6s infinite"/><rect x="440" y="650" width="5.718186880091736" height="5.718186880091736" fill="#4af" opacity=".3" rx="2.859093440045868" style="animation:floatYup 28s ease-in 16.8s infinite"/><g style="animation:floatX 10s linear 0s infinite" transform="translate(520,150)">
<rect x="0" y="0" width="12" height="6" fill="#48a"/>
<rect x="-4" y="-2" width="4" height="10" fill="#48a"/>
<rect x="8" y="2" width="2" height="2" fill="#fff"/>
</g><g style="animation:floatX 12s linear 3s infinite" transform="translate(-40,230)">
<rect x="0" y="0" width="12" height="6" fill="#269"/>
<rect x="12" y="-2" width="4" height="10" fill="#269"/>
<rect x="2" y="2" width="2" height="2" fill="#fff"/>
</g><g style="animation:floatX 14s linear 6s infinite" transform="translate(520,310)">
<rect x="0" y="0" width="12" height="6" fill="#48a"/>
<rect x="-4" y="-2" width="4" height="10" fill="#48a"/>
<rect x="8" y="2" width="2" height="2" fill="#fff"/>
</g><g style="animation:floatX 16s linear 9s infinite" transform="translate(-40,390)">
<rect x="0" y="0" width="12" height="6" fill="#269"/>
<rect x="12" y="-2" width="4" height="10" fill="#269"/>
<rect x="2" y="2" width="2" height="2" fill="#fff"/>
</g><g style="animation:floatX 18s linear 12s infinite" transform="translate(520,470)">
<rect x="0" y="0" width="12" height="6" fill="#48a"/>
<rect x="-4" y="-2" width="4" height="10" fill="#48a"/>
<rect x="8" y="2" width="2" height="2" fill="#fff"/>
</g><rect x="0" y="0" width="480" height="120" fill="#06a" opacity=".04" style="animation:fadeInOut 7s ease-in-out infinite"/><rect x="50" y="0" width="40" height="320" fill="#08b" opacity=".03" style="animation:fadeInOut 5s ease-in-out 0s infinite"/><rect x="210" y="0" width="40" height="320" fill="#08b" opacity=".03" style="animation:fadeInOut 7s ease-in-out 2s infinite"/><rect x="370" y="0" width="40" height="320" fill="#08b" opacity=".03" style="animation:fadeInOut 9s ease-in-out 4s infinite"/>
</svg>