<svg xmlns="http://www.w3.org/2000/svg" viewBox="0 0 64 64" width="64" height="64" shape-rendering="crispEdges"><rect x="8" y="0" width="8" height="4" fill="#B0BEC5"/><rect x="32" y="0" width="8" height="4" fill="#B0BEC5"/><rect x="4" y="4" width="16" height="4" fill="#B0BEC5"/><rect x="28" y="4" width="16" height="4" fill="#B0BEC5"/><rect x="4" y="8" width="40" height="4" fill="#B0BEC5"/><rect x="4" y="12" width="8" height="4" fill="#B0BEC5"/><rect x="12" y="12" width="4" height="4" fill="#E3F2FD"/><rect x="16" y="12" width="12" height="4" fill="#B0BEC5"/><rect x="28" y="12" width="4" height="4" fill="#E3F2FD"/><rect x="32" y="12" width="8" height="4" fill="#B0BEC5"/><rect x="4" y="16" width="36" height="4" fill="#B0BEC5"/><rect x="8" y="20" width="28" height="4" fill="#B0BEC5"/><rect x="8" y="24" width="28" height="4" fill="#B0BEC5"/><rect x="4" y="28" width="36" height="4" fill="#B0BEC5"/><rect x="4" y="32" width="40" height="4" fill="#B0BEC5"/><rect x="8" y="36" width="28" height="4" fill="#B0BEC5"/><rect x="12" y="40" width="20" height="4" fill="#B0BEC5"/><rect x="16" y="44" width="12" height="4" fill="#B0BEC5"/><rect x="12" y="48" width="8" height="4" fill="#B0BEC5"/><rect x="24" y="48" width="8" height="4" fill="#B0BEC5"/><rect x="12" y="52" width="8" height="4" fill="#B0BEC5"/><rect x="24" y="52" width="8" height="4" fill="#B0BEC5"/></svg>