<svg xmlns="http://www.w3.org/2000/svg" viewBox="0 0 64 64" width="64" height="64" shape-rendering="crispEdges"><rect x="20" y="4" width="16" height="4" fill="#1A237E"/><rect x="16" y="8" width="24" height="4" fill="#1A237E"/><rect x="12" y="12" width="32" height="4" fill="#1A237E"/><rect x="12" y="16" width="8" height="4" fill="#1A237E"/><rect x="20" y="16" width="4" height="4" fill="#E3F2FD"/><rect x="24" y="16" width="8" height="4" fill="#1A237E"/><rect x="32" y="16" width="4" height="4" fill="#E3F2FD"/><rect x="36" y="16" width="8" height="4" fill="#1A237E"/><rect x="12" y="20" width="32" height="4" fill="#1A237E"/><rect x="16" y="24" width="24" height="4" fill="#1A237E"/><rect x="12" y="28" width="32" height="4" fill="#1A237E"/><rect x="8" y="32" width="40" height="4" fill="#1A237E"/><rect x="4" y="36" width="48" height="4" fill="#1A237E"/><rect x="8" y="40" width="40" height="4" fill="#1A237E"/><rect x="12" y="44" width="32" height="4" fill="#1A237E"/></svg>