<svg xmlns="http://www.w3.org/2000/svg" viewBox="0 0 64 64" width="64" height="64" shape-rendering="crispEdges"><rect x="32" y="8" width="4" height="4" fill="#FBD000"/><rect x="20" y="12" width="28" height="4" fill="#FBD000"/><rect x="16" y="16" width="12" height="4" fill="#FBD000"/><rect x="28" y="16" width="8" height="4" fill="#E65100"/><rect x="36" y="16" width="16" height="4" fill="#FBD000"/><rect x="12" y="20" width="12" height="4" fill="#FBD000"/><rect x="24" y="20" width="8" height="4" fill="#E65100"/><rect x="32" y="20" width="4" height="4" fill="#FBD000"/><rect x="36" y="20" width="8" height="4" fill="#FFE57A"/><rect x="44" y="20" width="12" height="4" fill="#FBD000"/><rect x="12" y="24" width="8" height="4" fill="#FBD000"/><rect x="20" y="24" width="4" height="4" fill="#FFE57A"/><rect x="24" y="24" width="4" height="4" fill="#FBD000"/><rect x="28" y="24" width="8" height="4" fill="#E65100"/><rect x="36" y="24" width="8" height="4" fill="#FBD000"/><rect x="44" y="24" width="4" height="4" fill="#FFE57A"/><rect x="48" y="24" width="8" height="4" fill="#FBD000"/><rect x="12" y="28" width="8" height="4" fill="#FBD000"/><rect x="20" y="28" width="4" height="4" fill="#FFE57A"/><rect x="24" y="28" width="8" height="4" fill="#E65100"/><rect x="32" y="28" width="12" height="4" fill="#FBD000"/><rect x="44" y="28" width="4" height="4" fill="#FFE57A"/><rect x="48" y="28" width="8" height="4" fill="#FBD000"/><rect x="8" y="32" width="8" height="4" fill="#FBD000"/><rect x="16" y="32" width="4" height="4" fill="#FFE57A"/><rect x="20" y="32" width="8" height="4" fill="#FBD000"/><rect x="28" y="32" width="8" height="4" fill="#E65100"/><rect x="36" y="32" width="12" height="4" fill="#FBD000"/><rect x="48" y="32" width="4" height="4" fill="#FFE57A"/><rect x="52" y="32" width="8" height="4" fill="#FBD000"/><rect x="12" y="36" width="8" height="4" fill="#FBD000"/><rect x="20" y="36" width="4" height="4" fill="#FFE57A"/><rect x="24" y="36" width="8" height="4" fill="#FBD000"/><rect x="32" y="36" width="8" height="4" fill="#E65100"/><rect x="40" y="36" width="4" height="4" fill="#FBD000"/><rect x="44" y="36" width="4" height="4" fill="#FFE57A"/><rect x="48" y="36" width="8" height="4" fill="#FBD000"/><rect x="12" y="40" width="8" height="4" fill="#FBD000"/><rect x="20" y="40" width="4" height="4" fill="#FFE57A"/><rect x="24" y="40" width="4" height="4" fill="#FBD000"/><rect x="28" y="40" width="8" height="4" fill="#E65100"/><rect x="36" y="40" width="8" height="4" fill="#FBD000"/><rect x="44" y="40" width="4" height="4" fill="#FFE57A"/><rect x="48" y="40" width="8" height="4" fill="#FBD000"/><rect x="12" y="44" width="12" height="4" fill="#FBD000"/><rect x="24" y="44" width="8" height="4" fill="#FFE57A"/><rect x="32" y="44" width="8" height="4" fill="#E65100"/><rect x="40" y="44" width="4" height="4" fill="#FFE57A"/><rect x="44" y="44" width="12" height="4" fill="#FBD000"/><rect x="16" y="48" width="16" height="4" fill="#FBD000"/><rect x="32" y="48" width="4" height="4" fill="#FFE57A"/><rect x="36" y="48" width="16" height="4" fill="#FBD000"/><rect x="20" y="52" width="28" height="4" fill="#FBD000"/><rect x="32" y="56" width="4" height="4" fill="#FBD000"/></svg>