<svg xmlns="http://www.w3.org/2000/svg" viewBox="0 0 64 64" width="64" height="64" shape-rendering="crispEdges"><rect x="28" y="4" width="8" height="4" fill="#42A5F5"/><rect x="24" y="8" width="16" height="4" fill="#42A5F5"/><rect x="20" y="12" width="8" height="4" fill="#42A5F5"/><rect x="28" y="12" width="4" height="4" fill="#BBDEFB"/><rect x="32" y="12" width="12" height="4" fill="#42A5F5"/><rect x="16" y="16" width="8" height="4" fill="#42A5F5"/><rect x="24" y="16" width="8" height="4" fill="#BBDEFB"/><rect x="32" y="16" width="12" height="4" fill="#42A5F5"/><rect x="12" y="20" width="12" height="4" fill="#42A5F5"/><rect x="24" y="20" width="4" height="4" fill="#BBDEFB"/><rect x="28" y="20" width="16" height="4" fill="#42A5F5"/><rect x="12" y="24" width="12" height="4" fill="#42A5F5"/><rect x="24" y="24" width="4" height="4" fill="#BBDEFB"/><rect x="28" y="24" width="16" height="4" fill="#42A5F5"/><rect x="12" y="28" width="12" height="4" fill="#42A5F5"/><rect x="24" y="28" width="4" height="4" fill="#BBDEFB"/><rect x="28" y="28" width="16" height="4" fill="#42A5F5"/><rect x="16" y="32" width="8" height="4" fill="#42A5F5"/><rect x="24" y="32" width="8" height="4" fill="#BBDEFB"/><rect x="32" y="32" width="8" height="4" fill="#42A5F5"/><rect x="16" y="36" width="8" height="4" fill="#42A5F5"/><rect x="24" y="36" width="8" height="4" fill="#BBDEFB"/><rect x="32" y="36" width="8" height="4" fill="#42A5F5"/><rect x="20" y="40" width="4" height="4" fill="#42A5F5"/><rect x="24" y="40" width="8" height="4" fill="#BBDEFB"/><rect x="32" y="40" width="8" height="4" fill="#42A5F5"/><rect x="24" y="44" width="4" height="4" fill="#42A5F5"/><rect x="28" y="44" width="4" height="4" fill="#BBDEFB"/><rect x="32" y="44" width="4" height="4" fill="#42A5F5"/><rect x="28" y="48" width="4" height="4" fill="#42A5F5"/></svg>