<svg xmlns="http://www.w3.org/2000/svg" viewBox="0 0 64 64" width="64" height="64" shape-rendering="crispEdges"><rect x="8" y="4" width="8" height="4" fill="#555555"/><rect x="32" y="4" width="8" height="4" fill="#555555"/><rect x="4" y="8" width="4" height="4" fill="#555555"/><rect x="16" y="8" width="4" height="4" fill="#555555"/><rect x="28" y="8" width="4" height="4" fill="#555555"/><rect x="40" y="8" width="4" height="4" fill="#555555"/><rect x="4" y="12" width="4" height="4" fill="#555555"/><rect x="16" y="12" width="16" height="4" fill="#555555"/><rect x="40" y="12" width="4" height="4" fill="#555555"/><rect x="4" y="16" width="4" height="4" fill="#555555"/><rect x="16" y="16" width="4" height="4" fill="#555555"/><rect x="28" y="16" width="4" height="4" fill="#555555"/><rect x="40" y="16" width="4" height="4" fill="#555555"/><rect x="8" y="20" width="4" height="4" fill="#555555"/><rect x="16" y="20" width="4" height="4" fill="#555555"/><rect x="28" y="20" width="4" height="4" fill="#555555"/><rect x="36" y="20" width="4" height="4" fill="#555555"/><rect x="12" y="24" width="4" height="4" fill="#555555"/><rect x="32" y="24" width="4" height="4" fill="#555555"/><rect x="16" y="28" width="4" height="4" fill="#555555"/><rect x="28" y="28" width="4" height="4" fill="#555555"/><rect x="20" y="32" width="8" height="4" fill="#555555"/></svg>