<svg xmlns="http://www.w3.org/2000/svg" viewBox="0 0 64 64" width="64" height="64" shape-rendering="crispEdges"><rect x="8" y="4" width="32" height="4" fill="#8B6914"/><rect x="4" y="8" width="4" height="4" fill="#8B6914"/><rect x="8" y="8" width="28" height="4" fill="#F5E6D3"/><rect x="36" y="8" width="4" height="4" fill="#8B6914"/><rect x="4" y="12" width="4" height="4" fill="#8B6914"/><rect x="8" y="12" width="32" height="4" fill="#F5E6D3"/><rect x="40" y="12" width="4" height="4" fill="#8B6914"/><rect x="4" y="16" width="4" height="4" fill="#8B6914"/><rect x="8" y="16" width="4" height="4" fill="#F5E6D3"/><rect x="16" y="16" width="12" height="4" fill="#8B6914"/><rect x="32" y="16" width="8" height="4" fill="#F5E6D3"/><rect x="40" y="16" width="4" height="4" fill="#8B6914"/><rect x="4" y="20" width="4" height="4" fill="#8B6914"/><rect x="8" y="20" width="4" height="4" fill="#F5E6D3"/><rect x="16" y="20" width="12" height="4" fill="#F5E6D3"/><rect x="32" y="20" width="8" height="4" fill="#F5E6D3"/><rect x="40" y="20" width="4" height="4" fill="#8B6914"/><rect x="4" y="24" width="4" height="4" fill="#8B6914"/><rect x="8" y="24" width="4" height="4" fill="#F5E6D3"/><rect x="16" y="24" width="12" height="4" fill="#8B6914"/><rect x="32" y="24" width="8" height="4" fill="#F5E6D3"/><rect x="40" y="24" width="4" height="4" fill="#8B6914"/><rect x="4" y="28" width="4" height="4" fill="#8B6914"/><rect x="8" y="28" width="4" height="4" fill="#F5E6D3"/><rect x="16" y="28" width="12" height="4" fill="#F5E6D3"/><rect x="32" y="28" width="8" height="4" fill="#F5E6D3"/><rect x="40" y="28" width="4" height="4" fill="#8B6914"/><rect x="4" y="32" width="4" height="4" fill="#8B6914"/><rect x="8" y="32" width="4" height="4" fill="#F5E6D3"/><rect x="16" y="32" width="12" height="4" fill="#8B6914"/><rect x="32" y="32" width="8" height="4" fill="#F5E6D3"/><rect x="40" y="32" width="4" height="4" fill="#8B6914"/><rect x="4" y="36" width="4" height="4" fill="#8B6914"/><rect x="8" y="36" width="4" height="4" fill="#F5E6D3"/><rect x="16" y="36" width="12" height="4" fill="#F5E6D3"/><rect x="32" y="36" width="8" height="4" fill="#F5E6D3"/><rect x="40" y="36" width="4" height="4" fill="#8B6914"/><rect x="4" y="40" width="4" height="4" fill="#8B6914"/><rect x="8" y="40" width="28" height="4" fill="#F5E6D3"/><rect x="36" y="40" width="4" height="4" fill="#8B6914"/><rect x="4" y="44" width="4" height="4" fill="#8B6914"/><rect x="8" y="44" width="28" height="4" fill="#F5E6D3"/><rect x="36" y="44" width="4" height="4" fill="#8B6914"/><rect x="8" y="48" width="32" height="4" fill="#8B6914"/></svg>