<svg xmlns="http://www.w3.org/2000/svg" viewBox="0 0 64 64" width="64" height="64" shape-rendering="crispEdges"><rect x="12" y="8" width="40" height="4" fill="#D4A437"/><rect x="12" y="12" width="4" height="4" fill="#D4A437"/><rect x="16" y="12" width="32" height="4" fill="#F5DEB3"/><rect x="48" y="12" width="4" height="4" fill="#D4A437"/><rect x="12" y="16" width="4" height="4" fill="#D4A437"/><rect x="16" y="16" width="4" height="4" fill="#F5DEB3"/><rect x="20" y="16" width="4" height="4" fill="#333"/><rect x="24" y="16" width="24" height="4" fill="#F5DEB3"/><rect x="48" y="16" width="4" height="4" fill="#D4A437"/><rect x="12" y="20" width="4" height="4" fill="#D4A437"/><rect x="16" y="20" width="12" height="4" fill="#F5DEB3"/><rect x="28" y="20" width="4" height="4" fill="#E53935"/><rect x="32" y="20" width="16" height="4" fill="#F5DEB3"/><rect x="48" y="20" width="4" height="4" fill="#D4A437"/><rect x="12" y="24" width="4" height="4" fill="#D4A437"/><rect x="16" y="24" width="8" height="4" fill="#F5DEB3"/><rect x="24" y="24" width="4" height="4" fill="#E53935"/><rect x="28" y="24" width="4" height="4" fill="#F5DEB3"/><rect x="32" y="24" width="4" height="4" fill="#E53935"/><rect x="36" y="24" width="12" height="4" fill="#F5DEB3"/><rect x="48" y="24" width="4" height="4" fill="#D4A437"/><rect x="12" y="28" width="4" height="4" fill="#D4A437"/><rect x="16" y="28" width="4" height="4" fill="#F5DEB3"/><rect x="20" y="28" width="4" height="4" fill="#E53935"/><rect x="24" y="28" width="12" height="4" fill="#F5DEB3"/><rect x="36" y="28" width="4" height="4" fill="#E53935"/><rect x="40" y="28" width="8" height="4" fill="#F5DEB3"/><rect x="48" y="28" width="4" height="4" fill="#D4A437"/><rect x="12" y="32" width="4" height="4" fill="#D4A437"/><rect x="16" y="32" width="8" height="4" fill="#F5DEB3"/><rect x="24" y="32" width="4" height="4" fill="#E53935"/><rect x="28" y="32" width="4" height="4" fill="#F5DEB3"/><rect x="32" y="32" width="4" height="4" fill="#E53935"/><rect x="36" y="32" width="12" height="4" fill="#F5DEB3"/><rect x="48" y="32" width="4" height="4" fill="#D4A437"/><rect x="12" y="36" width="4" height="4" fill="#D4A437"/><rect x="16" y="36" width="12" height="4" fill="#F5DEB3"/><rect x="28" y="36" width="4" height="4" fill="#E53935"/><rect x="32" y="36" width="16" height="4" fill="#F5DEB3"/><rect x="48" y="36" width="4" height="4" fill="#D4A437"/><rect x="12" y="40" width="4" height="4" fill="#D4A437"/><rect x="16" y="40" width="32" height="4" fill="#F5DEB3"/><rect x="48" y="40" width="4" height="4" fill="#D4A437"/><rect x="12" y="44" width="4" height="4" fill="#D4A437"/><rect x="16" y="44" width="32" height="4" fill="#F5DEB3"/><rect x="48" y="44" width="4" height="4" fill="#D4A437"/><rect x="12" y="48" width="4" height="4" fill="#D4A437"/><rect x="16" y="48" width="32" height="4" fill="#F5DEB3"/><rect x="48" y="48" width="4" height="4" fill="#D4A437"/><rect x="12" y="52" width="40" height="4" fill="#D4A437"/></svg>