<svg xmlns="http://www.w3.org/2000/svg" viewBox="0 0 64 64" width="64" height="64" shape-rendering="crispEdges"><rect x="8" y="4" width="8" height="4" fill="#FF8A65"/><rect x="40" y="4" width="8" height="4" fill="#FF8A65"/><rect x="4" y="8" width="12" height="4" fill="#FF8A65"/><rect x="32" y="8" width="16" height="4" fill="#FF8A65"/><rect x="4" y="12" width="40" height="4" fill="#FF8A65"/><rect x="4" y="16" width="4" height="4" fill="#FF8A65"/><rect x="8" y="16" width="4" height="4" fill="#4CAF50"/><rect x="12" y="16" width="4" height="4" fill="#FFFFFF"/><rect x="16" y="16" width="16" height="4" fill="#FF8A65"/><rect x="32" y="16" width="4" height="4" fill="#FFFFFF"/><rect x="36" y="16" width="4" height="4" fill="#4CAF50"/><rect x="40" y="16" width="4" height="4" fill="#FF8A65"/><rect x="4" y="20" width="4" height="4" fill="#FF8A65"/><rect x="8" y="20" width="8" height="4" fill="#FFFFFF"/><rect x="16" y="20" width="16" height="4" fill="#FF8A65"/><rect x="32" y="20" width="8" height="4" fill="#FFFFFF"/><rect x="40" y="20" width="4" height="4" fill="#FF8A65"/><rect x="4" y="24" width="8" height="4" fill="#FF8A65"/><rect x="12" y="24" width="4" height="4" fill="#FFFFFF"/><rect x="16" y="24" width="16" height="4" fill="#FF8A65"/><rect x="32" y="24" width="4" height="4" fill="#FFFFFF"/><rect x="36" y="24" width="8" height="4" fill="#FF8A65"/><rect x="8" y="28" width="8" height="4" fill="#FF8A65"/><rect x="16" y="28" width="20" height="4" fill="#FFFFFF"/><rect x="36" y="28" width="8" height="4" fill="#FF8A65"/><rect x="12" y="32" width="4" height="4" fill="#FF8A65"/><rect x="16" y="32" width="4" height="4" fill="#FFFFFF"/><rect x="20" y="32" width="4" height="4" fill="#333333"/><rect x="24" y="32" width="4" height="4" fill="#FFFFFF"/><rect x="28" y="32" width="4" height="4" fill="#FF8A65"/><rect x="32" y="32" width="4" height="4" fill="#FFFFFF"/><rect x="36" y="32" width="4" height="4" fill="#FF8A65"/><rect x="12" y="36" width="8" height="4" fill="#FF8A65"/><rect x="20" y="36" width="12" height="4" fill="#FFFFFF"/><rect x="32" y="36" width="8" height="4" fill="#FF8A65"/><rect x="8" y="40" width="36" height="4" fill="#FF8A65"/><rect x="8" y="44" width="36" height="4" fill="#FF8A65"/><rect x="12" y="48" width="8" height="4" fill="#FF8A65"/><rect x="32" y="48" width="8" height="4" fill="#FF8A65"/><rect x="12" y="52" width="8" height="4" fill="#FF8A65"/><rect x="32" y="52" width="8" height="4" fill="#FF8A65"/></svg>