<svg xmlns="http://www.w3.org/2000/svg" viewBox="0 0 64 64" width="64" height="64" shape-rendering="crispEdges"><rect x="12" y="4" width="28" height="4" fill="#66BB6A"/><rect x="8" y="8" width="36" height="4" fill="#66BB6A"/><rect x="8" y="12" width="8" height="4" fill="#66BB6A"/><rect x="16" y="12" width="4" height="4" fill="#FFFFFF"/><rect x="20" y="12" width="8" height="4" fill="#66BB6A"/><rect x="28" y="12" width="4" height="4" fill="#FFFFFF"/><rect x="32" y="12" width="12" height="4" fill="#66BB6A"/><rect x="8" y="16" width="36" height="4" fill="#66BB6A"/><rect x="8" y="20" width="36" height="4" fill="#66BB6A"/><rect x="8" y="24" width="36" height="4" fill="#66BB6A"/><rect x="8" y="28" width="40" height="4" fill="#66BB6A"/><rect x="8" y="32" width="44" height="4" fill="#66BB6A"/><rect x="12" y="36" width="40" height="4" fill="#66BB6A"/><rect x="12" y="40" width="36" height="4" fill="#66BB6A"/><rect x="16" y="44" width="24" height="4" fill="#66BB6A"/><rect x="16" y="48" width="8" height="4" fill="#66BB6A"/><rect x="32" y="48" width="8" height="4" fill="#66BB6A"/><rect x="16" y="52" width="8" height="4" fill="#66BB6A"/><rect x="32" y="52" width="8" height="4" fill="#66BB6A"/></svg>