<svg xmlns="http://www.w3.org/2000/svg" viewBox="0 0 64 64" width="64" height="64" shape-rendering="crispEdges"><rect x="8" y="4" width="4" height="4" fill="#388E3C"/><rect x="32" y="4" width="4" height="4" fill="#388E3C"/><rect x="4" y="8" width="32" height="4" fill="#388E3C"/><rect x="4" y="12" width="8" height="4" fill="#388E3C"/><rect x="12" y="12" width="4" height="4" fill="#FFD54F"/><rect x="16" y="12" width="8" height="4" fill="#388E3C"/><rect x="24" y="12" width="4" height="4" fill="#FFD54F"/><rect x="28" y="12" width="8" height="4" fill="#388E3C"/><rect x="4" y="16" width="32" height="4" fill="#388E3C"/><rect x="8" y="20" width="28" height="4" fill="#388E3C"/><rect x="12" y="24" width="24" height="4" fill="#388E3C"/><rect x="8" y="28" width="36" height="4" fill="#388E3C"/><rect x="4" y="32" width="44" height="4" fill="#388E3C"/><rect x="4" y="36" width="48" height="4" fill="#388E3C"/><rect x="4" y="40" width="48" height="4" fill="#388E3C"/><rect x="8" y="44" width="36" height="4" fill="#388E3C"/><rect x="12" y="48" width="12" height="4" fill="#388E3C"/><rect x="32" y="48" width="12" height="4" fill="#388E3C"/><rect x="12" y="52" width="12" height="4" fill="#388E3C"/><rect x="32" y="52" width="12" height="4" fill="#388E3C"/></svg>