<svg xmlns="http://www.w3.org/2000/svg" viewBox="0 0 64 64" width="64" height="64" shape-rendering="crispEdges"><rect x="8" y="4" width="8" height="4" fill="#E1F5FE"/><rect x="32" y="4" width="8" height="4" fill="#E1F5FE"/><rect x="4" y="8" width="4" height="4" fill="#E1F5FE"/><rect x="8" y="8" width="8" height="4" fill="#CE93D8"/><rect x="16" y="8" width="4" height="4" fill="#E1F5FE"/><rect x="28" y="8" width="4" height="4" fill="#E1F5FE"/><rect x="32" y="8" width="8" height="4" fill="#CE93D8"/><rect x="40" y="8" width="4" height="4" fill="#E1F5FE"/><rect x="8" y="12" width="8" height="4" fill="#E1F5FE"/><rect x="32" y="12" width="8" height="4" fill="#E1F5FE"/><rect x="20" y="16" width="16" height="4" fill="#CE93D8"/><rect x="16" y="20" width="24" height="4" fill="#CE93D8"/><rect x="16" y="24" width="4" height="4" fill="#CE93D8"/><rect x="20" y="24" width="4" height="4" fill="#FFCC80"/><rect x="24" y="24" width="8" height="4" fill="#CE93D8"/><rect x="32" y="24" width="4" height="4" fill="#FFCC80"/><rect x="36" y="24" width="4" height="4" fill="#CE93D8"/><rect x="16" y="28" width="24" height="4" fill="#CE93D8"/><rect x="12" y="32" width="32" height="4" fill="#CE93D8"/><rect x="8" y="36" width="12" height="4" fill="#CE93D8"/><rect x="20" y="36" width="4" height="4" fill="#F48FB1"/><rect x="24" y="36" width="8" height="4" fill="#CE93D8"/><rect x="32" y="36" width="4" height="4" fill="#F48FB1"/><rect x="36" y="36" width="8" height="4" fill="#CE93D8"/><rect x="8" y="40" width="32" height="4" fill="#CE93D8"/><rect x="12" y="44" width="24" height="4" fill="#CE93D8"/><rect x="12" y="48" width="8" height="4" fill="#CE93D8"/><rect x="28" y="48" width="8" height="4" fill="#CE93D8"/><rect x="12" y="52" width="8" height="4" fill="#CE93D8"/><rect x="28" y="52" width="8" height="4" fill="#CE93D8"/></svg>