<svg xmlns="http://www.w3.org/2000/svg" viewBox="0 0 64 64" width="64" height="64" shape-rendering="crispEdges"><rect x="16" y="8" width="24" height="4" fill="#E0E0E0"/><rect x="12" y="12" width="32" height="4" fill="#E0E0E0"/><rect x="8" y="16" width="12" height="4" fill="#E0E0E0"/><rect x="24" y="16" width="8" height="4" fill="#E0E0E0"/><rect x="36" y="16" width="12" height="4" fill="#E0E0E0"/><rect x="8" y="20" width="8" height="4" fill="#E0E0E0"/><rect x="24" y="20" width="8" height="4" fill="#E0E0E0"/><rect x="40" y="20" width="8" height="4" fill="#E0E0E0"/><rect x="8" y="24" width="36" height="4" fill="#E0E0E0"/><rect x="8" y="28" width="36" height="4" fill="#E0E0E0"/><rect x="8" y="32" width="36" height="4" fill="#E0E0E0"/><rect x="8" y="36" width="36" height="4" fill="#E0E0E0"/><rect x="8" y="40" width="36" height="4" fill="#E0E0E0"/><rect x="8" y="44" width="36" height="4" fill="#E0E0E0"/><rect x="8" y="48" width="8" height="4" fill="#E0E0E0"/><rect x="20" y="48" width="8" height="4" fill="#E0E0E0"/><rect x="32" y="48" width="8" height="4" fill="#E0E0E0"/><rect x="8" y="52" width="4" height="4" fill="#E0E0E0"/><rect x="20" y="52" width="4" height="4" fill="#E0E0E0"/><rect x="32" y="52" width="4" height="4" fill="#E0E0E0"/></svg>