<svg xmlns="http://www.w3.org/2000/svg" viewBox="0 0 64 64" width="64" height="64" shape-rendering="crispEdges"><rect x="16" y="4" width="24" height="4" fill="#FFD54F"/><rect x="16" y="8" width="24" height="4" fill="#FFD54F"/><rect x="16" y="12" width="24" height="4" fill="#FFD54F"/><rect x="20" y="16" width="4" height="4" fill="#333333"/><rect x="24" y="16" width="8" height="4" fill="#FFCC80"/><rect x="32" y="16" width="4" height="4" fill="#333333"/><rect x="20" y="20" width="4" height="4" fill="#333333"/><rect x="24" y="20" width="4" height="4" fill="#FFCC80"/><rect x="28" y="20" width="4" height="4" fill="#E53935"/><rect x="32" y="20" width="4" height="4" fill="#FFCC80"/><rect x="36" y="20" width="4" height="4" fill="#333333"/><rect x="24" y="24" width="8" height="4" fill="#FFCC80"/><rect x="20" y="28" width="16" height="4" fill="#EC407A"/><rect x="16" y="32" width="24" height="4" fill="#EC407A"/><rect x="12" y="36" width="32" height="4" fill="#EC407A"/><rect x="12" y="40" width="8" height="4" fill="#EC407A"/><rect x="20" y="40" width="4" height="4" fill="#F48FB1"/><rect x="24" y="40" width="12" height="4" fill="#EC407A"/><rect x="36" y="40" width="4" height="4" fill="#F48FB1"/><rect x="12" y="44" width="32" height="4" fill="#EC407A"/><rect x="16" y="48" width="16" height="4" fill="#EC407A"/><rect x="16" y="52" width="8" height="4" fill="#EC407A"/><rect x="28" y="52" width="8" height="4" fill="#EC407A"/><rect x="16" y="56" width="8" height="4" fill="#EC407A"/><rect x="28" y="56" width="8" height="4" fill="#EC407A"/></svg>