<svg xmlns="http://www.w3.org/2000/svg" viewBox="0 0 64 64" width="64" height="64" shape-rendering="crispEdges"><rect x="24" y="0" width="8" height="4" fill="#FFD54F"/><rect x="20" y="4" width="16" height="4" fill="#FFD54F"/><rect x="20" y="8" width="16" height="4" fill="#F8BBD0"/><rect x="16" y="12" width="24" height="4" fill="#F8BBD0"/><rect x="16" y="16" width="4" height="4" fill="#F8BBD0"/><rect x="20" y="16" width="4" height="4" fill="#CE93D8"/><rect x="24" y="16" width="8" height="4" fill="#F8BBD0"/><rect x="32" y="16" width="4" height="4" fill="#CE93D8"/><rect x="36" y="16" width="4" height="4" fill="#F8BBD0"/><rect x="16" y="20" width="24" height="4" fill="#F8BBD0"/><rect x="20" y="24" width="16" height="4" fill="#F8BBD0"/><rect x="16" y="28" width="24" height="4" fill="#FFFFFF"/><rect x="12" y="32" width="32" height="4" fill="#FFFFFF"/><rect x="8" y="36" width="40" height="4" fill="#FFFFFF"/><rect x="8" y="40" width="8" height="4" fill="#FFFFFF"/><rect x="20" y="40" width="8" height="4" fill="#FFFFFF"/><rect x="32" y="40" width="12" height="4" fill="#FFFFFF"/><rect x="8" y="44" width="40" height="4" fill="#FFFFFF"/><rect x="12" y="48" width="32" height="4" fill="#FFFFFF"/><rect x="16" y="52" width="8" height="4" fill="#FFFFFF"/><rect x="32" y="52" width="8" height="4" fill="#FFFFFF"/><rect x="16" y="56" width="8" height="4" fill="#FFFFFF"/><rect x="32" y="56" width="8" height="4" fill="#FFFFFF"/></svg>